<svg id="svg" version="1.1" xmlns="http://www.w3.org/2000/svg" xmlns:xlink="http://www.w3.org/1999/xlink" width="400" height="400" viewBox="0, 0, 400,400"><g id="svgg"><path id="path0" d="M186.642 14.067 C 186.755 14.250,185.170 14.400,183.121 14.400 C 181.072 14.400,178.799 14.571,178.071 14.780 C 177.342 14.989,175.589 15.197,174.173 15.243 C 172.758 15.289,171.600 15.478,171.600 15.663 C 171.600 15.848,171.240 16.000,170.800 16.000 C 170.008 16.000,170.000 16.267,170.000 42.200 L 170.000 68.400 171.320 68.400 C 172.046 68.400,172.835 68.205,173.073 67.967 C 173.312 67.728,174.338 67.533,175.353 67.533 C 176.369 67.533,177.200 67.368,177.200 67.167 C 177.200 66.965,178.202 66.800,179.426 66.800 C 180.651 66.800,181.965 66.633,182.346 66.429 C 182.728 66.225,184.887 66.009,187.145 65.950 C 189.403 65.891,191.344 65.691,191.458 65.507 C 191.742 65.047,205.600 65.172,205.600 65.634 C 205.600 65.835,207.389 66.000,209.576 66.000 C 211.796 66.000,213.662 66.177,213.800 66.400 C 213.936 66.620,215.196 66.800,216.600 66.800 C 218.004 66.800,219.245 66.949,219.357 67.131 C 219.470 67.313,220.601 67.504,221.872 67.555 C 223.143 67.606,224.277 67.781,224.391 67.944 C 224.506 68.106,225.050 68.230,225.600 68.219 L 226.600 68.200 226.703 42.100 C 226.804 16.463,226.792 16.000,226.027 16.000 C 225.598 16.000,225.136 15.820,225.000 15.600 C 224.864 15.380,223.503 15.200,221.976 15.200 C 220.449 15.200,219.200 15.033,219.200 14.828 C 219.200 14.624,217.485 14.447,215.388 14.436 C 213.291 14.425,211.266 14.272,210.888 14.097 C 210.042 13.707,209.161 13.720,208.500 14.134 C 208.225 14.306,208.000 14.274,208.000 14.063 C 208.000 13.825,203.870 13.689,197.218 13.706 C 191.288 13.722,186.529 13.884,186.642 14.067 M188.460 78.100 C 188.291 78.269,186.633 78.492,184.776 78.596 C 182.919 78.699,180.565 78.936,179.544 79.122 C 178.523 79.308,177.398 79.417,177.044 79.365 C 176.690 79.313,176.400 79.417,176.400 79.595 C 176.400 79.773,175.635 80.019,174.700 80.141 C 173.765 80.263,172.326 80.481,171.503 80.625 L 170.005 80.887 170.001 199.016 C 169.997 317.143,169.997 317.145,170.804 317.401 C 171.248 317.542,171.530 317.790,171.430 317.952 C 171.330 318.114,172.002 318.290,172.924 318.343 C 173.846 318.397,174.660 318.611,174.733 318.820 C 174.807 319.029,175.042 319.200,175.257 319.200 C 175.472 319.200,175.520 318.975,175.365 318.700 C 175.139 318.300,175.190 318.300,175.621 318.700 C 175.918 318.975,176.833 319.200,177.656 319.200 C 178.479 319.200,179.264 319.380,179.400 319.600 C 179.536 319.820,180.897 320.000,182.424 320.000 C 183.951 320.000,185.200 320.155,185.200 320.345 C 185.200 320.534,190.967 320.708,198.015 320.731 C 207.979 320.764,210.765 320.665,210.538 320.286 C 210.333 319.944,210.435 319.953,210.884 320.317 C 211.262 320.623,211.579 320.673,211.661 320.439 C 211.737 320.221,213.105 320.007,214.700 319.961 C 216.295 319.916,217.600 319.743,217.600 319.576 C 217.600 319.410,218.545 319.175,219.700 319.055 C 223.613 318.647,225.196 318.318,224.974 317.958 C 224.852 317.761,225.213 317.600,225.776 317.600 L 226.800 317.600 226.800 199.833 C 226.800 135.061,226.691 81.781,226.557 81.433 C 226.405 81.037,225.832 80.800,225.024 80.800 C 224.314 80.800,223.607 80.673,223.452 80.518 C 223.297 80.363,222.686 80.172,222.095 80.092 C 221.504 80.013,220.829 79.790,220.596 79.596 C 220.362 79.403,219.209 79.252,218.033 79.261 C 216.857 79.270,215.784 79.108,215.648 78.900 C 215.511 78.692,214.073 78.482,212.451 78.433 C 210.830 78.383,209.050 78.171,208.496 77.960 C 207.942 77.750,207.394 77.673,207.278 77.789 C 207.162 77.905,207.307 78.000,207.600 78.000 C 207.893 78.000,208.029 78.105,207.901 78.232 C 207.773 78.360,207.293 78.264,206.834 78.018 C 206.190 77.673,205.999 77.689,205.994 78.086 C 205.989 78.496,205.923 78.498,205.668 78.097 C 205.309 77.531,189.026 77.534,188.460 78.100 " stroke="none" fill="#349ccc" fill-rule="evenodd"></path><path id="path1" d="M155.600 18.896 C 155.600 19.063,154.867 19.200,153.971 19.200 C 153.057 19.200,152.080 19.463,151.743 19.800 C 151.413 20.130,150.785 20.400,150.348 20.400 C 149.911 20.400,149.641 20.542,149.748 20.716 C 149.856 20.890,149.302 20.958,148.517 20.866 C 147.530 20.751,147.176 20.838,147.369 21.150 C 147.522 21.397,147.457 21.600,147.224 21.600 C 146.991 21.600,146.800 21.437,146.800 21.238 C 146.800 21.038,146.365 21.080,145.834 21.331 C 145.303 21.582,144.954 21.925,145.058 22.093 C 145.224 22.363,144.095 22.512,141.918 22.508 C 141.543 22.508,141.273 22.618,141.318 22.754 C 141.363 22.889,141.240 23.030,141.045 23.066 C 140.849 23.102,140.537 23.372,140.351 23.666 C 140.073 24.104,140.011 24.105,140.006 23.671 C 140.001 23.269,139.854 23.288,139.388 23.754 C 139.052 24.091,138.530 24.271,138.229 24.156 C 137.928 24.040,137.562 24.138,137.417 24.373 C 137.272 24.608,136.703 24.800,136.153 24.800 C 135.603 24.800,135.249 24.955,135.366 25.145 C 135.483 25.335,135.179 25.466,134.690 25.437 C 134.200 25.408,133.552 25.623,133.248 25.915 C 132.945 26.207,132.450 26.351,132.148 26.236 C 131.837 26.116,131.600 26.279,131.600 26.613 C 131.600 27.324,130.805 27.410,130.787 26.700 C 130.780 26.397,130.563 26.479,130.238 26.907 C 129.943 27.296,129.443 27.515,129.127 27.394 C 128.812 27.272,128.144 27.528,127.644 27.962 C 127.144 28.395,126.480 28.652,126.168 28.532 C 125.855 28.412,125.600 28.514,125.600 28.757 C 125.600 29.001,125.465 29.179,125.300 29.153 C 124.497 29.026,124.010 29.248,124.100 29.700 C 124.158 29.988,123.819 30.187,123.300 30.168 C 122.805 30.151,122.400 30.352,122.400 30.616 C 122.400 30.913,121.943 31.042,121.200 30.955 C 120.540 30.878,120.000 30.971,120.000 31.161 C 120.000 31.351,119.622 31.606,119.160 31.726 C 118.625 31.866,118.429 32.124,118.622 32.435 C 118.815 32.747,118.757 32.821,118.462 32.638 C 118.208 32.481,118.000 32.515,118.000 32.712 C 118.000 32.910,117.539 33.282,116.975 33.539 C 116.381 33.809,116.054 33.836,116.198 33.603 C 116.335 33.381,116.167 33.200,115.824 33.200 C 115.481 33.200,115.200 33.380,115.200 33.600 C 115.200 33.820,114.962 34.000,114.672 34.000 C 114.382 34.000,113.739 34.466,113.243 35.036 C 112.554 35.829,112.091 36.021,111.271 35.852 C 110.682 35.731,110.435 35.733,110.721 35.856 C 111.423 36.159,110.108 37.170,108.991 37.187 C 108.546 37.194,107.556 37.699,106.791 38.308 C 106.026 38.918,104.905 39.668,104.300 39.976 C 103.695 40.284,103.200 40.685,103.200 40.868 C 103.200 41.050,102.859 41.200,102.443 41.200 C 102.026 41.200,101.578 41.481,101.446 41.825 C 101.314 42.169,101.028 42.341,100.811 42.207 C 100.272 41.874,98.720 42.747,99.012 43.220 C 99.142 43.429,98.832 43.603,98.324 43.606 C 97.105 43.614,96.227 44.197,96.578 44.765 C 96.733 45.015,96.711 45.180,96.530 45.131 C 95.891 44.958,94.391 45.662,94.618 46.029 C 94.744 46.233,94.487 46.400,94.047 46.400 C 93.607 46.400,93.119 46.608,92.962 46.862 C 92.773 47.167,92.854 47.214,93.200 47.000 C 93.557 46.779,93.627 46.832,93.421 47.165 C 93.255 47.434,92.847 47.550,92.515 47.423 C 92.095 47.262,91.982 47.375,92.143 47.795 C 92.300 48.205,92.128 48.400,91.607 48.400 C 91.185 48.400,90.656 48.715,90.432 49.100 C 90.109 49.654,90.019 49.675,89.998 49.200 C 89.982 48.837,89.753 48.996,89.418 49.600 C 89.114 50.150,88.764 50.510,88.640 50.400 C 88.517 50.290,88.132 50.605,87.785 51.100 C 87.438 51.595,86.884 52.000,86.554 52.000 C 86.223 52.000,86.052 52.161,86.174 52.358 C 86.295 52.554,85.676 53.003,84.797 53.354 C 83.789 53.758,83.198 54.253,83.194 54.697 C 83.189 55.297,83.131 55.312,82.800 54.800 C 82.486 54.315,82.411 54.372,82.406 55.100 C 82.402 55.721,82.160 56.000,81.627 56.000 C 81.202 56.000,80.740 56.360,80.600 56.800 C 80.460 57.240,80.078 57.600,79.749 57.600 C 79.421 57.600,79.264 57.780,79.400 58.000 C 79.622 58.360,79.097 58.573,78.300 58.447 C 78.034 58.405,77.859 58.968,77.930 59.633 C 77.944 59.762,77.703 59.867,77.395 59.867 C 77.087 59.867,76.952 59.672,77.094 59.433 C 77.237 59.195,77.045 59.251,76.667 59.557 C 76.290 59.863,76.072 60.205,76.183 60.316 C 76.420 60.554,74.836 62.000,74.339 62.000 C 74.152 62.000,74.000 62.281,74.000 62.624 C 74.000 62.967,73.820 63.136,73.600 63.000 C 73.380 62.864,73.200 63.013,73.200 63.330 C 73.200 63.648,72.744 64.207,72.187 64.572 C 71.579 64.970,71.290 65.428,71.464 65.718 C 71.682 66.080,71.602 66.078,71.145 65.707 C 70.641 65.300,70.337 65.422,69.393 66.407 C 68.765 67.063,68.396 67.600,68.574 67.600 C 68.752 67.600,68.670 67.874,68.392 68.210 C 68.114 68.545,67.791 68.725,67.675 68.609 C 67.292 68.225,66.050 69.665,66.270 70.238 C 66.396 70.566,66.237 70.800,65.887 70.800 C 65.558 70.800,65.314 71.115,65.344 71.500 C 65.379 71.939,65.072 72.246,64.519 72.325 C 64.034 72.394,63.527 72.800,63.391 73.227 C 63.256 73.654,62.662 74.265,62.073 74.586 C 61.483 74.906,61.162 75.175,61.359 75.184 C 61.557 75.193,61.197 75.699,60.559 76.308 C 59.922 76.917,59.310 77.592,59.200 77.808 C 59.090 78.024,58.878 78.159,58.729 78.110 C 58.580 78.060,58.221 78.555,57.932 79.210 C 57.642 79.864,57.269 80.400,57.102 80.400 C 56.936 80.400,56.800 80.681,56.800 81.024 C 56.800 81.367,56.620 81.536,56.400 81.400 C 56.180 81.264,56.000 81.354,56.000 81.600 C 56.000 81.846,55.794 81.920,55.542 81.764 C 55.226 81.569,55.147 81.810,55.287 82.544 C 55.463 83.465,55.407 83.540,54.868 83.103 C 54.370 82.700,54.306 82.700,54.549 83.103 C 54.729 83.404,54.600 83.702,54.228 83.845 C 53.885 83.976,53.709 84.252,53.836 84.458 C 53.963 84.663,53.386 85.454,52.555 86.216 C 51.724 86.977,51.214 87.601,51.422 87.603 C 51.630 87.604,51.287 87.943,50.661 88.356 C 49.874 88.875,49.689 89.174,50.061 89.322 C 50.450 89.477,50.461 89.546,50.100 89.568 C 49.825 89.586,49.600 89.858,49.600 90.173 C 49.600 90.488,49.226 90.865,48.770 91.010 C 48.313 91.154,48.040 91.374,48.164 91.497 C 48.287 91.620,48.075 91.977,47.694 92.290 C 47.312 92.603,47.243 92.734,47.540 92.581 C 47.977 92.357,47.992 92.468,47.620 93.163 C 47.363 93.642,46.962 93.900,46.712 93.746 C 46.433 93.573,46.348 93.688,46.488 94.051 C 46.772 94.793,45.792 96.166,45.227 95.816 C 44.992 95.671,44.800 95.743,44.800 95.976 C 44.800 96.209,44.989 96.400,45.221 96.400 C 45.452 96.400,45.182 96.826,44.621 97.346 C 44.059 97.866,43.600 98.695,43.600 99.189 C 43.600 99.775,43.414 100.014,43.062 99.879 C 42.677 99.732,42.577 99.946,42.709 100.637 C 42.843 101.336,42.715 101.600,42.240 101.600 C 41.875 101.600,41.281 102.262,40.894 103.100 C 40.512 103.925,40.042 104.715,39.849 104.855 C 39.656 104.996,39.609 105.291,39.745 105.512 C 39.882 105.732,39.545 106.206,38.997 106.565 C 38.448 106.925,38.000 107.590,38.000 108.045 C 38.000 108.500,37.595 109.229,37.100 109.666 C 36.605 110.103,36.425 110.347,36.700 110.207 C 37.345 109.879,37.319 110.409,36.648 111.294 C 36.358 111.675,36.004 111.870,35.860 111.727 C 35.717 111.584,35.600 111.767,35.600 112.133 C 35.600 112.500,35.399 112.800,35.153 112.800 C 34.906 112.800,34.799 113.151,34.912 113.586 C 35.038 114.067,34.747 114.803,34.159 115.486 C 33.253 116.539,33.043 117.003,33.153 117.700 C 33.179 117.865,33.020 118.000,32.800 118.000 C 32.580 118.000,32.400 118.360,32.400 118.800 C 32.400 119.240,32.220 119.600,32.000 119.600 C 31.780 119.600,31.600 119.855,31.600 120.167 C 31.600 120.478,31.422 120.793,31.203 120.867 C 30.985 120.940,30.766 121.495,30.716 122.100 C 30.666 122.705,30.466 123.200,30.270 123.200 C 30.074 123.200,30.024 123.486,30.159 123.836 C 30.495 124.714,30.001 125.436,29.538 124.743 C 29.302 124.389,29.265 124.583,29.431 125.300 C 29.590 125.985,29.522 126.400,29.249 126.400 C 29.008 126.400,28.604 127.225,28.350 128.233 C 28.084 129.287,27.766 129.868,27.600 129.600 C 27.397 129.271,27.240 129.320,27.068 129.766 C 26.935 130.115,26.983 130.400,27.175 130.400 C 27.367 130.400,27.320 130.835,27.069 131.366 C 26.818 131.897,26.513 132.270,26.390 132.194 C 26.268 132.118,26.237 132.652,26.322 133.381 C 26.413 134.163,26.272 134.832,25.976 135.015 C 25.632 135.227,25.577 135.161,25.800 134.800 C 26.010 134.461,25.967 134.373,25.679 134.551 C 25.435 134.702,25.348 135.119,25.485 135.478 C 25.661 135.935,25.585 136.038,25.233 135.821 C 24.875 135.599,24.766 135.780,24.853 136.455 C 24.920 136.975,24.836 137.624,24.665 137.898 C 24.494 138.173,24.279 138.789,24.187 139.269 C 24.094 139.749,23.808 140.271,23.551 140.430 C 23.294 140.589,23.189 140.994,23.318 141.330 C 23.447 141.667,23.293 142.157,22.976 142.420 C 22.288 142.991,22.199 143.772,22.869 143.357 C 23.127 143.198,23.051 143.478,22.699 143.980 C 22.348 144.481,22.167 145.171,22.298 145.512 C 22.441 145.885,22.370 146.029,22.118 145.873 C 21.867 145.718,21.700 146.044,21.700 146.691 C 21.700 147.282,21.498 147.834,21.250 147.917 C 21.003 147.999,20.800 148.692,20.800 149.457 C 20.800 150.222,20.665 150.764,20.500 150.663 C 20.335 150.561,20.153 151.120,20.095 151.904 C 20.037 152.688,19.817 153.539,19.605 153.794 C 19.355 154.095,19.369 154.409,19.644 154.684 C 19.945 154.985,19.942 155.189,19.635 155.378 C 19.396 155.526,19.200 156.187,19.200 156.847 C 19.200 157.545,19.033 157.944,18.800 157.800 C 18.556 157.649,18.400 158.263,18.400 159.376 C 18.400 160.452,18.217 161.200,17.953 161.200 C 17.708 161.200,17.598 161.548,17.709 161.974 C 17.820 162.400,17.660 163.108,17.351 163.548 C 16.973 164.088,16.929 164.432,17.215 164.609 C 17.484 164.776,17.501 165.041,17.263 165.336 C 17.056 165.591,16.916 166.655,16.952 167.700 C 16.989 168.770,16.839 169.600,16.609 169.600 C 16.384 169.600,16.153 170.426,16.095 171.436 C 16.037 172.446,15.842 173.571,15.662 173.936 C 15.481 174.301,15.354 175.680,15.380 177.000 C 15.412 178.719,15.252 179.538,14.813 179.887 C 14.278 180.313,14.302 180.378,15.000 180.400 C 15.750 180.424,15.757 180.458,15.100 180.957 C 14.364 181.515,14.112 182.225,14.800 181.800 C 15.020 181.664,15.200 181.823,15.200 182.153 C 15.200 182.483,15.063 182.837,14.896 182.941 C 14.728 183.044,14.593 184.677,14.596 186.569 C 14.599 189.163,14.477 189.962,14.099 189.816 C 13.738 189.678,13.759 189.873,14.173 190.512 C 14.673 191.284,14.674 191.502,14.174 192.176 C 13.498 193.091,13.407 194.166,14.040 193.775 C 14.349 193.584,14.345 193.756,14.026 194.352 C 13.655 195.045,13.684 195.200,14.186 195.200 C 14.961 195.200,14.962 195.726,14.191 197.217 C 13.546 198.466,13.448 206.141,14.083 205.749 C 14.537 205.468,14.475 206.565,14.011 207.029 C 13.758 207.282,13.822 207.806,14.193 208.522 C 14.795 209.681,14.631 210.796,13.857 210.806 C 13.592 210.810,13.636 210.962,13.964 211.170 C 14.369 211.425,14.525 212.360,14.516 214.463 C 14.509 216.079,14.705 217.660,14.952 217.977 C 15.294 218.418,15.282 218.483,14.900 218.253 C 14.210 217.838,14.231 219.762,14.923 220.336 C 15.270 220.624,15.397 221.471,15.301 222.848 C 15.213 224.104,15.334 225.035,15.605 225.203 C 15.872 225.368,16.059 226.718,16.066 228.527 C 16.074 230.605,16.225 231.546,16.539 231.487 C 16.829 231.432,16.954 231.876,16.877 232.683 C 16.809 233.388,16.956 234.344,17.203 234.806 C 17.451 235.269,17.679 236.447,17.711 237.424 C 17.743 238.401,17.956 239.200,18.185 239.200 C 18.413 239.200,18.579 239.875,18.554 240.700 C 18.528 241.525,18.678 242.310,18.886 242.443 C 19.094 242.577,19.321 243.567,19.390 244.643 C 19.555 247.203,19.974 248.461,20.545 248.119 C 20.795 247.969,20.753 248.151,20.451 248.523 C 19.986 249.097,19.986 249.201,20.451 249.206 C 20.889 249.211,20.881 249.288,20.411 249.585 C 19.901 249.907,19.909 249.990,20.467 250.204 C 20.863 250.356,21.035 250.745,20.913 251.212 C 20.804 251.629,21.004 252.261,21.357 252.615 C 21.773 253.030,21.914 253.602,21.757 254.229 C 21.609 254.820,21.687 255.200,21.957 255.200 C 22.200 255.200,22.400 255.787,22.400 256.504 C 22.400 257.404,22.666 257.974,23.259 258.344 C 23.850 258.713,23.971 258.971,23.647 259.171 C 23.294 259.389,23.324 259.748,23.767 260.602 C 24.093 261.230,24.250 261.918,24.118 262.133 C 23.984 262.350,24.082 262.396,24.338 262.238 C 24.642 262.050,24.800 262.310,24.800 263.000 C 24.800 263.603,24.971 263.941,25.204 263.798 C 25.444 263.649,25.583 264.005,25.548 264.674 C 25.442 266.642,25.580 267.150,26.438 267.950 C 27.038 268.509,27.196 268.981,26.995 269.615 C 26.834 270.123,26.899 270.614,27.147 270.767 C 27.385 270.914,27.635 271.387,27.701 271.817 C 27.887 273.009,28.402 273.645,28.928 273.330 C 29.197 273.168,29.164 273.338,28.851 273.723 C 28.493 274.164,28.458 274.400,28.751 274.400 C 28.998 274.400,29.200 274.850,29.200 275.400 C 29.200 275.977,29.430 276.400,29.745 276.400 C 30.087 276.400,30.250 276.768,30.182 277.388 C 30.118 277.967,30.265 278.339,30.537 278.288 C 30.791 278.240,31.002 278.502,31.005 278.872 C 31.008 279.241,31.143 279.676,31.305 279.838 C 31.467 280.001,31.600 280.424,31.600 280.778 C 31.600 281.133,31.956 281.680,32.391 281.994 C 32.973 282.413,33.052 282.646,32.691 282.876 C 32.342 283.098,32.392 283.190,32.863 283.194 C 33.344 283.198,33.463 283.437,33.298 284.067 C 33.124 284.735,33.214 284.880,33.690 284.697 C 34.161 284.517,34.257 284.659,34.092 285.292 C 33.944 285.859,34.022 286.034,34.337 285.839 C 34.627 285.660,34.800 285.843,34.800 286.327 C 34.800 286.753,35.083 287.337,35.428 287.623 C 35.775 287.911,35.966 288.487,35.855 288.912 C 35.745 289.334,35.759 289.574,35.888 289.446 C 36.252 289.081,37.173 290.504,37.187 291.453 C 37.195 291.964,37.522 292.391,38.000 292.516 C 38.551 292.660,38.800 293.062,38.800 293.805 C 38.800 294.584,38.962 294.824,39.380 294.663 C 39.787 294.507,39.886 294.633,39.712 295.086 C 39.548 295.513,39.621 295.634,39.927 295.445 C 40.221 295.263,40.311 295.367,40.172 295.728 C 40.052 296.041,40.234 296.577,40.577 296.920 C 40.920 297.263,41.200 297.729,41.200 297.956 C 41.200 298.183,41.583 298.726,42.051 299.162 C 42.563 299.639,42.804 300.212,42.656 300.598 C 42.520 300.952,42.563 301.146,42.751 301.030 C 43.186 300.762,44.619 302.314,44.264 302.669 C 44.119 302.814,44.000 302.723,44.000 302.467 C 44.000 302.210,43.775 302.000,43.500 302.000 C 43.225 302.000,43.638 302.585,44.418 303.300 C 45.199 304.015,45.820 304.870,45.799 305.200 C 45.779 305.530,46.336 306.375,47.037 307.077 C 47.739 307.779,48.215 308.452,48.096 308.571 C 47.976 308.690,48.353 309.262,48.933 309.842 C 49.513 310.422,49.891 311.053,49.773 311.244 C 49.655 311.435,49.830 311.487,50.162 311.359 C 50.585 311.197,50.850 311.470,51.045 312.264 C 51.198 312.889,51.520 313.528,51.762 313.685 C 52.003 313.842,52.200 314.202,52.200 314.485 C 52.200 314.768,52.388 315.000,52.618 315.000 C 53.164 315.000,54.962 316.870,55.132 317.614 C 55.205 317.932,55.445 318.304,55.666 318.441 C 55.887 318.578,56.053 318.849,56.034 319.045 C 56.015 319.240,56.225 319.404,56.500 319.409 C 56.775 319.414,56.946 319.732,56.881 320.115 C 56.816 320.499,56.981 320.765,57.248 320.706 C 57.516 320.648,57.952 321.016,58.217 321.525 C 58.482 322.034,58.857 322.441,59.049 322.430 C 59.242 322.418,59.408 322.722,59.419 323.104 C 59.429 323.487,59.630 323.763,59.866 323.718 C 60.101 323.672,60.709 324.077,61.217 324.618 C 61.724 325.158,62.018 325.600,61.870 325.600 C 61.721 325.600,62.005 326.005,62.500 326.500 C 62.995 326.995,63.520 327.400,63.667 327.400 C 63.813 327.400,64.068 327.535,64.233 327.700 C 64.398 327.865,64.297 328.000,64.008 328.000 C 63.719 328.000,63.969 328.450,64.562 329.000 C 65.156 329.550,65.823 330.000,66.044 330.000 C 66.266 330.000,66.336 330.180,66.200 330.400 C 66.064 330.620,66.188 330.801,66.476 330.803 C 66.764 330.804,67.307 331.344,67.681 332.003 C 68.056 332.661,68.671 333.200,69.048 333.200 C 69.425 333.200,69.624 333.309,69.491 333.443 C 69.174 333.760,70.109 334.771,70.500 334.534 C 70.665 334.435,70.800 334.644,70.800 335.000 C 70.800 335.356,70.980 335.536,71.200 335.400 C 71.420 335.264,71.600 335.421,71.600 335.749 C 71.600 336.078,71.961 336.461,72.402 336.601 C 72.843 336.740,73.465 337.338,73.786 337.927 C 74.106 338.517,74.375 338.852,74.384 338.671 C 74.404 338.259,75.596 339.424,75.611 339.871 C 75.618 340.052,76.608 340.796,77.811 341.525 C 79.015 342.253,80.000 343.105,80.000 343.417 C 80.000 343.729,80.437 344.094,80.971 344.228 C 81.505 344.363,82.039 344.726,82.159 345.036 C 82.278 345.346,82.630 345.600,82.941 345.600 C 83.252 345.600,83.601 345.960,83.716 346.400 C 83.841 346.879,84.262 347.200,84.763 347.200 C 85.223 347.200,85.600 347.442,85.600 347.738 C 85.600 348.533,86.936 349.600,87.931 349.600 C 88.409 349.600,88.800 349.842,88.800 350.138 C 88.800 350.892,90.261 352.133,90.775 351.816 C 91.012 351.669,91.200 351.857,91.200 352.243 C 91.200 352.623,91.314 352.820,91.453 352.681 C 91.856 352.278,93.200 353.168,93.200 353.838 C 93.200 354.173,93.368 354.344,93.572 354.217 C 93.777 354.091,94.070 354.189,94.222 354.436 C 94.416 354.750,94.579 354.757,94.764 354.459 C 94.926 354.196,95.226 354.349,95.543 354.858 C 95.929 355.476,95.935 355.607,95.568 355.380 C 95.243 355.179,95.179 355.242,95.379 355.565 C 95.545 355.834,95.933 355.958,96.240 355.840 C 96.551 355.721,96.800 355.867,96.800 356.169 C 96.800 356.468,97.250 356.826,97.800 356.964 C 98.350 357.102,98.803 357.437,98.806 357.708 C 98.810 358.026,98.949 357.988,99.200 357.600 C 99.458 357.200,99.590 357.167,99.594 357.500 C 99.597 357.775,99.881 358.000,100.224 358.000 C 100.567 358.000,100.736 358.180,100.600 358.400 C 100.464 358.620,100.678 358.806,101.076 358.813 C 101.848 358.826,103.305 359.761,103.012 360.055 C 102.915 360.151,103.233 360.477,103.718 360.779 C 104.548 361.296,104.564 361.285,104.000 360.599 C 103.439 359.916,103.458 359.900,104.300 360.349 C 104.795 360.612,105.200 361.092,105.200 361.414 C 105.200 361.736,105.560 362.000,106.000 362.000 C 106.440 362.000,106.800 362.191,106.800 362.424 C 106.800 362.657,106.946 362.757,107.125 362.646 C 107.585 362.362,109.669 363.798,109.312 364.154 C 109.150 364.316,109.464 364.376,110.009 364.288 C 110.919 364.140,112.606 365.261,112.154 365.712 C 112.056 365.811,112.386 365.894,112.888 365.897 C 114.524 365.908,114.851 365.995,114.626 366.358 C 114.344 366.815,115.547 367.343,116.634 367.239 C 117.093 367.196,117.700 367.439,117.983 367.780 C 118.266 368.121,118.734 368.400,119.022 368.400 C 119.310 368.400,119.660 368.760,119.800 369.200 C 119.951 369.675,120.409 370.002,120.927 370.006 C 121.937 370.013,125.301 371.155,124.400 371.185 C 124.070 371.196,124.328 371.480,124.974 371.817 C 125.619 372.154,126.382 372.339,126.669 372.229 C 126.956 372.119,127.148 372.247,127.095 372.514 C 127.036 372.815,127.419 372.969,128.100 372.919 C 128.705 372.874,129.200 373.020,129.200 373.242 C 129.200 373.465,129.380 373.536,129.600 373.400 C 129.820 373.264,130.000 373.363,130.000 373.619 C 130.000 373.876,130.278 373.979,130.621 373.847 C 130.962 373.716,131.143 373.768,131.023 373.963 C 130.772 374.370,131.911 374.902,132.394 374.603 C 132.572 374.494,133.218 374.664,133.830 374.982 C 134.442 375.299,135.091 375.468,135.271 375.356 C 135.452 375.244,135.600 375.343,135.600 375.576 C 135.600 375.809,135.949 376.000,136.376 376.000 C 136.803 376.000,137.272 376.192,137.417 376.427 C 137.562 376.662,137.927 376.760,138.228 376.645 C 138.528 376.529,138.876 376.599,139.000 376.800 C 139.124 377.001,139.490 377.064,139.813 376.940 C 140.136 376.816,140.400 376.890,140.400 377.105 C 140.400 377.320,141.255 377.719,142.300 377.991 C 143.345 378.264,144.787 378.747,145.504 379.064 C 146.222 379.382,146.971 379.541,147.170 379.418 C 147.369 379.296,147.592 379.370,147.666 379.585 C 147.740 379.799,148.385 380.019,149.100 380.072 C 149.815 380.126,150.400 380.306,150.400 380.473 C 150.400 380.639,150.641 380.682,150.936 380.569 C 151.231 380.456,151.705 380.644,151.989 380.987 C 152.411 381.496,152.621 381.517,153.130 381.105 C 153.621 380.708,153.690 380.707,153.453 381.100 C 153.172 381.569,154.371 381.828,155.900 381.630 C 156.175 381.594,156.400 381.753,156.400 381.982 C 156.400 382.212,156.591 382.400,156.824 382.400 C 157.057 382.400,157.112 382.175,156.947 381.900 C 156.740 381.555,156.855 381.569,157.318 381.945 C 157.688 382.244,158.269 382.382,158.610 382.251 C 158.951 382.121,159.318 382.243,159.426 382.522 C 159.533 382.802,159.980 383.058,160.419 383.091 C 160.858 383.125,161.113 382.982,160.985 382.776 C 160.857 382.569,160.943 382.400,161.176 382.400 C 161.409 382.400,161.600 382.580,161.600 382.800 C 161.600 383.020,161.949 383.200,162.376 383.200 C 162.803 383.200,163.260 383.373,163.390 383.584 C 163.521 383.796,164.612 383.899,165.814 383.815 C 167.804 383.675,168.738 384.063,167.500 384.516 C 167.225 384.617,167.495 384.677,168.100 384.649 C 168.705 384.622,169.200 384.459,169.200 384.286 C 169.200 384.113,169.560 384.165,170.000 384.400 C 170.440 384.635,170.800 384.710,170.800 384.565 C 170.800 384.420,171.105 384.549,171.477 384.851 C 171.849 385.153,172.029 385.192,171.876 384.937 C 171.691 384.628,171.862 384.543,172.395 384.683 C 172.833 384.797,173.102 385.034,172.994 385.210 C 172.886 385.385,174.160 385.491,175.826 385.446 C 178.573 385.372,179.958 385.681,178.723 386.092 C 178.458 386.181,180.122 386.240,182.420 386.223 C 184.719 386.207,186.699 386.328,186.820 386.492 C 186.942 386.656,187.593 386.632,188.267 386.438 C 189.530 386.076,191.029 386.498,189.945 386.911 C 189.645 387.025,189.785 387.100,190.256 387.077 C 190.833 387.050,191.051 386.835,190.923 386.418 C 190.800 386.015,190.960 386.078,191.383 386.598 C 191.940 387.284,192.085 387.312,192.410 386.798 C 192.745 386.268,192.789 386.268,192.800 386.800 C 192.811 387.315,192.864 387.318,193.176 386.826 C 193.440 386.408,193.684 386.367,194.070 386.676 C 194.749 387.220,201.049 387.368,201.371 386.847 C 201.505 386.631,202.145 386.469,202.793 386.487 C 203.537 386.509,203.875 386.683,203.709 386.960 C 203.565 387.202,203.751 387.153,204.123 386.851 C 204.573 386.486,204.800 386.455,204.800 386.756 C 204.800 387.083,205.166 387.065,206.100 386.695 C 206.907 386.374,209.023 386.195,211.682 386.222 C 214.037 386.246,215.872 386.116,215.759 385.933 C 215.645 385.750,216.418 385.580,217.476 385.557 C 222.324 385.447,223.114 385.371,223.639 384.959 C 223.950 384.716,225.235 384.578,226.517 384.649 C 227.947 384.729,228.742 384.629,228.593 384.389 C 228.390 384.060,230.960 383.755,232.142 383.967 C 232.330 384.000,232.727 383.827,233.024 383.580 C 233.321 383.334,234.560 383.103,235.777 383.066 C 237.219 383.023,238.063 382.811,238.198 382.458 C 238.318 382.149,238.684 382.023,239.054 382.165 C 239.410 382.302,239.983 382.186,240.327 381.907 C 240.817 381.511,240.888 381.509,240.653 381.900 C 240.267 382.542,240.459 382.529,241.826 381.820 C 242.440 381.502,243.091 381.332,243.271 381.444 C 243.452 381.556,243.600 381.495,243.600 381.309 C 243.600 381.123,244.095 380.928,244.700 380.875 C 246.411 380.728,246.956 380.605,247.558 380.230 C 247.864 380.038,248.633 379.896,249.265 379.914 C 249.897 379.932,250.311 379.779,250.184 379.573 C 250.057 379.368,250.308 379.200,250.743 379.200 C 251.178 379.200,251.595 379.016,251.670 378.791 C 251.744 378.567,252.487 378.357,253.321 378.326 C 254.154 378.295,254.628 378.141,254.375 377.985 C 253.675 377.552,254.449 377.262,255.862 377.427 C 256.689 377.524,257.468 377.304,258.125 376.788 C 259.225 375.923,259.796 375.760,259.382 376.430 C 259.196 376.730,259.339 376.738,259.858 376.456 C 260.266 376.234,261.185 375.817,261.900 375.529 C 262.615 375.240,263.200 374.856,263.200 374.674 C 263.200 374.492,263.607 374.396,264.104 374.461 C 264.601 374.526,265.447 374.272,265.984 373.896 C 266.635 373.441,267.049 373.355,267.225 373.640 C 267.375 373.883,267.591 373.679,267.724 373.168 C 267.918 372.428,268.064 372.355,268.548 372.757 C 269.148 373.255,270.800 372.629,270.800 371.904 C 270.800 371.737,270.991 371.600,271.224 371.600 C 271.457 371.600,271.518 371.825,271.359 372.100 C 271.201 372.375,271.550 372.164,272.135 371.630 C 272.721 371.097,273.206 370.827,273.213 371.030 C 273.220 371.234,273.472 371.075,273.774 370.677 C 274.075 370.279,274.803 369.902,275.391 369.840 C 275.980 369.777,276.809 369.427,277.235 369.063 C 277.661 368.698,278.457 368.400,279.005 368.400 C 279.612 368.400,280.000 368.172,280.000 367.814 C 280.000 367.044,281.275 366.383,282.360 366.592 C 282.834 366.684,283.136 366.620,283.032 366.452 C 282.928 366.283,283.463 365.921,284.221 365.647 C 284.980 365.373,285.600 364.980,285.600 364.774 C 285.600 364.568,285.948 364.400,286.373 364.400 C 286.798 364.400,287.260 364.040,287.400 363.600 C 287.683 362.710,288.623 362.526,288.935 363.300 C 289.096 363.700,289.143 363.700,289.168 363.300 C 289.186 363.025,289.515 362.797,289.900 362.794 C 290.498 362.789,290.513 362.731,290.000 362.400 C 289.532 362.098,289.643 362.011,290.500 362.006 C 291.227 362.002,291.600 361.789,291.600 361.376 C 291.600 361.033,291.780 360.864,292.000 361.000 C 292.220 361.136,292.400 361.077,292.400 360.869 C 292.400 360.661,292.985 360.222,293.700 359.893 C 294.415 359.564,295.673 358.984,296.496 358.604 C 297.320 358.223,297.895 357.754,297.776 357.561 C 297.656 357.367,297.838 357.316,298.179 357.447 C 298.582 357.602,298.800 357.459,298.800 357.043 C 298.800 356.689,299.081 356.400,299.424 356.400 C 299.793 356.400,299.931 356.212,299.762 355.938 C 299.600 355.676,299.651 355.584,299.879 355.725 C 300.101 355.862,300.616 355.730,301.024 355.432 C 301.433 355.133,302.029 354.990,302.349 355.112 C 302.685 355.242,302.824 355.163,302.678 354.926 C 302.539 354.701,302.869 354.315,303.413 354.067 C 303.956 353.820,304.400 353.360,304.400 353.046 C 304.400 352.670,304.676 352.547,305.206 352.686 C 305.808 352.843,305.953 352.742,305.779 352.289 C 305.650 351.954,305.738 351.562,305.973 351.417 C 306.208 351.272,306.400 351.343,306.400 351.576 C 306.400 351.809,306.580 352.000,306.800 352.000 C 307.020 352.000,307.200 351.734,307.200 351.409 C 307.200 350.808,308.528 349.758,309.579 349.527 C 310.268 349.376,312.243 347.176,312.100 346.719 C 312.045 346.543,312.281 346.400,312.624 346.400 C 313.007 346.400,313.138 346.593,312.964 346.900 C 312.808 347.175,313.379 346.770,314.234 346.000 C 315.089 345.230,315.852 344.462,315.930 344.293 C 316.260 343.575,317.294 342.811,317.642 343.026 C 317.850 343.154,317.970 343.021,317.910 342.730 C 317.849 342.437,318.111 342.225,318.496 342.255 C 318.878 342.285,319.113 342.182,319.016 342.026 C 318.765 341.620,320.273 340.412,320.630 340.733 C 320.794 340.880,320.798 340.773,320.638 340.497 C 320.455 340.177,320.687 339.868,321.274 339.651 C 321.783 339.462,322.155 339.149,322.100 338.954 C 322.045 338.759,322.220 338.600,322.488 338.600 C 322.757 338.600,323.191 338.169,323.454 337.642 C 324.063 336.420,325.994 334.749,326.462 335.038 C 326.659 335.160,326.770 335.029,326.710 334.748 C 326.649 334.467,326.870 334.220,327.200 334.200 C 327.530 334.180,327.755 333.947,327.700 333.682 C 327.645 333.417,327.735 333.221,327.900 333.247 C 328.702 333.374,328.849 333.140,328.349 332.531 C 327.859 331.933,327.899 331.887,328.722 332.099 C 329.441 332.284,329.723 332.128,330.004 331.389 C 330.202 330.868,330.822 330.142,331.382 329.775 C 331.942 329.408,332.400 328.829,332.400 328.487 C 332.400 328.146,332.511 327.978,332.648 328.114 C 332.952 328.419,333.752 327.645,334.110 326.700 C 334.256 326.315,334.661 326.000,335.011 326.000 C 335.361 326.000,335.548 325.839,335.426 325.642 C 335.304 325.445,335.475 325.180,335.806 325.053 C 336.137 324.926,336.361 324.592,336.304 324.311 C 336.247 324.030,336.438 323.849,336.730 323.910 C 337.021 323.970,337.172 323.878,337.065 323.705 C 336.860 323.374,337.763 321.936,338.159 321.962 C 338.774 322.004,339.571 321.476,339.374 321.158 C 339.252 320.961,339.343 320.800,339.576 320.800 C 339.809 320.800,339.955 320.575,339.900 320.300 C 339.845 320.025,340.025 319.845,340.300 319.900 C 340.575 319.955,340.800 319.629,340.800 319.176 C 340.800 318.723,340.960 318.451,341.155 318.572 C 341.606 318.851,342.283 318.037,342.462 317.000 C 342.538 316.560,342.940 316.020,343.355 315.800 C 343.770 315.580,344.120 315.220,344.133 315.000 C 344.145 314.780,344.480 314.251,344.878 313.825 C 345.275 313.398,345.600 312.813,345.600 312.525 C 345.600 312.236,345.979 312.000,346.443 312.000 C 347.006 312.000,347.213 311.812,347.068 311.433 C 346.948 311.121,347.135 310.757,347.483 310.624 C 347.830 310.490,348.002 310.269,347.864 310.131 C 347.727 309.993,348.090 309.472,348.672 308.972 C 349.253 308.473,349.775 307.644,349.831 307.132 C 349.887 306.619,349.948 306.065,349.967 305.900 C 349.985 305.735,350.270 305.600,350.600 305.600 C 350.930 305.600,351.200 305.409,351.200 305.176 C 351.200 304.943,351.378 304.863,351.595 304.997 C 351.822 305.137,351.889 304.977,351.753 304.621 C 351.596 304.213,351.743 304.000,352.181 304.000 C 352.577 304.000,352.733 303.815,352.566 303.545 C 352.410 303.293,352.711 302.743,353.242 302.310 C 353.769 301.881,353.956 301.658,353.659 301.815 C 353.288 302.009,353.334 301.768,353.802 301.053 C 354.179 300.477,354.618 300.087,354.777 300.186 C 354.936 300.284,355.067 300.111,355.067 299.800 C 355.067 299.489,354.920 299.326,354.741 299.436 C 354.562 299.547,354.722 299.103,355.097 298.450 C 355.472 297.797,355.918 297.349,356.089 297.455 C 356.260 297.561,356.400 297.386,356.400 297.066 C 356.400 296.747,356.670 296.382,357.000 296.255 C 357.330 296.129,357.600 295.681,357.600 295.262 C 357.600 294.842,357.874 294.270,358.210 293.992 C 358.545 293.714,358.739 293.406,358.641 293.308 C 358.543 293.209,358.988 292.300,359.631 291.286 C 360.274 290.273,360.800 289.218,360.800 288.942 C 360.800 288.666,361.115 288.240,361.500 287.997 C 361.988 287.688,362.052 287.491,361.712 287.347 C 361.327 287.185,361.327 287.029,361.712 286.613 C 361.980 286.322,362.335 286.166,362.500 286.266 C 362.665 286.365,362.800 285.987,362.800 285.424 C 362.800 284.861,362.991 284.400,363.224 284.400 C 363.457 284.400,363.535 284.219,363.398 283.997 C 363.261 283.776,363.431 283.486,363.775 283.354 C 364.119 283.222,364.400 282.943,364.400 282.734 C 364.400 282.524,364.234 282.455,364.031 282.581 C 363.828 282.707,364.049 282.102,364.522 281.238 C 364.996 280.373,365.492 279.733,365.625 279.815 C 365.758 279.898,365.867 279.725,365.867 279.432 C 365.867 278.513,367.674 274.399,367.992 274.595 C 368.158 274.698,368.273 274.381,368.247 273.891 C 368.215 273.292,368.397 273.044,368.800 273.133 C 369.130 273.207,369.264 273.131,369.099 272.965 C 368.933 272.799,369.075 272.239,369.415 271.721 C 369.755 271.202,369.934 270.617,369.813 270.421 C 369.692 270.225,369.837 269.821,370.135 269.522 C 370.433 269.224,370.616 268.580,370.541 268.091 C 370.465 267.595,370.599 267.246,370.842 267.301 C 371.082 267.355,371.537 266.417,371.853 265.215 C 372.169 264.014,372.621 262.910,372.859 262.764 C 373.146 262.586,373.107 262.435,372.745 262.313 C 372.295 262.162,372.305 262.001,372.800 261.388 C 373.333 260.729,373.333 260.685,372.800 260.992 C 372.395 261.225,372.436 261.068,372.926 260.509 C 373.325 260.053,373.667 259.131,373.686 258.460 C 373.705 257.789,373.918 257.276,374.160 257.320 C 374.402 257.364,374.544 257.072,374.476 256.670 C 374.407 256.269,374.554 255.696,374.802 255.398 C 375.049 255.100,375.267 254.309,375.286 253.642 C 375.305 252.974,375.445 252.504,375.596 252.598 C 375.748 252.691,375.897 252.101,375.927 251.287 C 375.958 250.472,376.167 249.744,376.391 249.670 C 376.616 249.595,376.800 249.224,376.800 248.847 C 376.800 248.469,377.025 247.918,377.300 247.621 C 377.705 247.185,377.693 247.144,377.237 247.404 C 376.790 247.659,376.737 247.526,376.979 246.763 C 377.146 246.233,377.374 245.216,377.485 244.503 C 377.596 243.790,377.835 243.298,378.017 243.410 C 378.198 243.523,378.332 243.077,378.313 242.421 C 378.294 241.765,378.531 240.917,378.840 240.537 C 379.326 239.937,379.321 239.891,378.800 240.182 C 378.312 240.455,378.293 240.417,378.700 239.979 C 378.975 239.682,379.200 238.835,379.200 238.096 C 379.200 237.303,379.364 236.854,379.600 237.000 C 379.820 237.136,380.000 236.956,380.000 236.600 C 380.000 236.244,379.820 236.064,379.600 236.200 C 379.380 236.336,379.200 236.257,379.200 236.024 C 379.200 235.791,379.341 235.600,379.513 235.600 C 379.685 235.600,379.866 235.113,379.915 234.518 C 379.964 233.922,380.177 233.263,380.388 233.052 C 380.633 232.807,380.524 232.474,380.086 232.133 C 379.576 231.735,379.556 231.651,380.009 231.807 C 380.483 231.969,380.632 231.654,380.683 230.381 C 380.718 229.481,380.984 228.453,381.274 228.096 C 381.721 227.544,381.710 227.500,381.200 227.800 C 380.708 228.090,380.687 228.046,381.081 227.558 C 381.382 227.187,381.532 225.803,381.481 223.881 C 381.433 222.034,381.561 220.800,381.801 220.800 C 382.048 220.800,382.199 218.915,382.193 215.900 C 382.188 213.205,382.339 210.667,382.527 210.261 C 383.148 208.921,383.254 206.681,382.712 206.337 C 382.431 206.159,382.380 206.009,382.600 206.006 C 382.820 206.002,383.047 205.178,383.105 204.173 C 383.183 202.799,383.084 202.418,382.705 202.632 C 382.301 202.861,382.300 202.810,382.700 202.379 C 382.975 202.082,383.200 201.192,383.200 200.400 C 383.200 199.608,382.975 198.718,382.700 198.421 C 382.300 197.990,382.300 197.939,382.700 198.165 C 383.313 198.511,383.410 196.577,382.799 196.199 C 382.539 196.039,382.533 195.699,382.780 195.237 C 383.039 194.753,383.008 194.355,382.681 194.003 C 382.305 193.596,382.309 193.544,382.700 193.765 C 383.010 193.940,383.200 193.802,383.200 193.400 C 383.200 193.044,383.020 192.864,382.800 193.000 C 382.580 193.136,382.400 193.057,382.400 192.824 C 382.400 192.591,382.625 192.397,382.900 192.394 C 383.266 192.389,383.254 192.295,382.855 192.042 C 382.394 191.751,382.394 191.663,382.855 191.480 C 383.240 191.327,383.199 191.254,382.713 191.232 C 382.255 191.211,382.106 190.988,382.268 190.566 C 382.464 190.056,382.577 190.037,382.850 190.466 C 383.077 190.826,383.188 190.608,383.188 189.800 C 383.188 188.882,383.097 188.741,382.803 189.200 C 382.524 189.634,382.419 189.301,382.423 188.000 C 382.438 183.667,382.278 181.762,381.854 181.223 C 381.505 180.780,381.516 180.716,381.900 180.947 C 382.211 181.134,382.400 181.021,382.400 180.647 C 382.400 180.317,382.220 179.936,382.000 179.800 C 381.780 179.664,381.600 178.473,381.600 177.153 C 381.600 175.833,381.447 174.847,381.260 174.963 C 381.074 175.078,380.906 174.635,380.887 173.979 C 380.864 173.161,381.002 172.875,381.327 173.070 C 381.618 173.244,381.595 173.101,381.268 172.698 C 380.976 172.337,380.677 171.448,380.604 170.721 C 380.531 169.994,380.293 168.514,380.074 167.431 C 379.856 166.349,379.769 165.224,379.882 164.931 C 379.994 164.639,379.886 164.400,379.643 164.400 C 379.399 164.400,379.200 164.028,379.200 163.574 C 379.200 163.119,379.002 162.378,378.760 161.925 C 378.440 161.328,378.440 161.178,378.760 161.375 C 379.005 161.527,379.200 161.382,379.200 161.047 C 379.200 160.717,379.020 160.336,378.800 160.200 C 378.580 160.064,378.400 159.323,378.400 158.553 C 378.400 157.721,378.238 157.253,378.000 157.400 C 377.780 157.536,377.600 157.356,377.600 157.000 C 377.600 156.644,377.764 156.454,377.965 156.578 C 378.165 156.702,377.985 156.091,377.565 155.221 C 376.675 153.380,376.621 153.042,377.279 153.449 C 377.542 153.611,377.361 153.187,376.876 152.507 C 376.234 151.606,376.131 151.213,376.497 151.066 C 376.896 150.905,376.897 150.857,376.500 150.832 C 376.216 150.814,376.000 150.272,376.000 149.576 C 376.000 148.863,375.833 148.456,375.600 148.600 C 375.033 148.950,375.103 148.264,375.700 147.621 C 376.100 147.190,376.100 147.139,375.700 147.365 C 375.237 147.626,375.006 147.133,375.173 146.240 C 375.210 146.042,375.110 145.592,374.951 145.240 C 374.792 144.888,374.612 144.174,374.551 143.654 C 374.491 143.134,374.150 142.387,373.794 141.994 C 373.377 141.533,373.296 141.188,373.566 141.021 C 373.851 140.845,373.834 140.523,373.512 140.007 C 373.252 139.592,372.878 139.352,372.680 139.474 C 372.482 139.596,372.539 139.288,372.807 138.788 C 373.221 138.013,373.202 137.914,372.677 138.115 C 372.199 138.298,372.103 138.126,372.245 137.344 C 372.379 136.600,372.293 136.417,371.914 136.645 C 371.589 136.840,371.621 136.676,372.000 136.200 C 372.351 135.759,372.392 135.571,372.099 135.747 C 371.500 136.107,370.634 134.254,370.768 132.900 C 370.828 132.298,370.641 132.000,370.205 132.000 C 369.846 132.000,369.669 131.812,369.811 131.582 C 369.953 131.353,369.828 130.868,369.534 130.506 C 369.079 129.944,369.089 129.892,369.600 130.153 C 369.980 130.347,369.950 130.254,369.519 129.900 C 369.075 129.535,368.913 129.002,369.054 128.370 C 369.207 127.679,369.159 127.556,368.885 127.943 C 368.399 128.628,367.900 127.925,368.241 127.036 C 368.390 126.648,368.274 126.398,367.943 126.394 C 367.524 126.389,367.537 126.299,368.000 126.000 C 368.400 125.742,368.433 125.610,368.100 125.606 C 367.825 125.603,367.600 125.330,367.600 125.000 C 367.600 124.670,367.300 124.400,366.933 124.400 C 366.567 124.400,366.380 124.286,366.519 124.147 C 366.658 124.009,366.528 123.547,366.230 123.122 C 365.932 122.696,365.771 122.031,365.873 121.644 C 365.980 121.235,365.643 120.541,365.071 119.990 C 364.529 119.469,364.176 118.806,364.287 118.518 C 364.525 117.898,363.392 115.362,362.689 114.940 C 362.409 114.772,362.453 114.978,362.793 115.423 C 363.372 116.182,363.366 116.183,362.532 115.474 C 362.063 115.074,361.722 114.448,361.776 114.082 C 361.830 113.716,361.622 113.165,361.314 112.857 C 361.006 112.549,360.852 112.041,360.972 111.728 C 361.093 111.415,361.046 111.248,360.869 111.357 C 360.397 111.649,359.104 109.279,359.439 108.737 C 359.615 108.452,359.548 108.385,359.262 108.562 C 358.972 108.741,358.800 108.550,358.800 108.047 C 358.800 107.607,358.620 107.136,358.400 107.000 C 358.180 106.864,358.000 106.393,358.000 105.953 C 358.000 105.444,357.830 105.258,357.532 105.442 C 357.222 105.633,357.146 105.517,357.307 105.099 C 357.449 104.728,357.301 104.371,356.949 104.236 C 356.619 104.109,356.469 103.812,356.615 103.576 C 356.761 103.339,356.516 103.051,356.068 102.934 C 355.577 102.805,355.341 102.499,355.470 102.161 C 355.589 101.852,355.486 101.600,355.243 101.600 C 354.999 101.600,354.800 101.319,354.800 100.976 C 354.800 100.633,354.639 100.452,354.442 100.574 C 354.245 100.696,353.977 100.517,353.846 100.177 C 353.711 99.823,353.778 99.663,354.005 99.803 C 354.923 100.370,354.295 99.322,353.196 98.455 C 352.538 97.935,352.000 97.165,352.000 96.742 C 352.000 96.320,351.730 95.871,351.400 95.745 C 351.070 95.618,350.800 95.174,350.800 94.757 C 350.800 94.341,350.609 94.000,350.376 94.000 C 350.143 94.000,350.067 93.816,350.206 93.590 C 350.345 93.365,350.311 93.230,350.130 93.290 C 349.948 93.351,349.395 92.995,348.900 92.500 C 348.405 92.005,348.135 91.595,348.300 91.588 C 348.465 91.581,348.285 91.392,347.900 91.168 C 347.515 90.944,347.200 90.415,347.200 89.993 C 347.200 89.450,347.010 89.298,346.554 89.473 C 346.032 89.673,345.963 89.545,346.197 88.810 C 346.394 88.189,346.345 87.987,346.043 88.174 C 345.775 88.339,345.600 88.130,345.600 87.647 C 345.600 87.207,345.392 86.719,345.138 86.562 C 344.825 86.368,344.785 86.457,345.015 86.838 C 345.303 87.316,345.252 87.318,344.681 86.855 C 344.311 86.555,344.100 86.162,344.211 85.982 C 344.322 85.802,344.202 85.525,343.945 85.366 C 343.652 85.185,343.584 85.250,343.762 85.538 C 343.919 85.792,343.857 86.000,343.624 86.000 C 343.391 86.000,343.200 85.832,343.200 85.626 C 343.200 85.420,342.991 84.745,342.735 84.126 C 342.480 83.507,342.304 82.852,342.345 82.670 C 342.386 82.489,342.235 82.455,342.010 82.594 C 341.784 82.733,341.600 82.657,341.600 82.424 C 341.600 82.191,341.240 82.000,340.800 82.000 C 340.360 82.000,340.000 81.801,340.000 81.557 C 340.000 81.309,340.308 81.222,340.700 81.358 C 341.363 81.589,341.363 81.573,340.706 81.061 C 340.325 80.764,340.130 80.404,340.273 80.260 C 340.416 80.117,340.223 80.000,339.843 80.000 C 339.463 80.000,339.249 79.844,339.367 79.653 C 339.485 79.463,339.199 78.968,338.732 78.553 C 337.887 77.803,337.885 77.804,338.364 78.800 C 338.811 79.730,338.802 79.747,338.235 79.041 C 337.900 78.624,337.729 78.115,337.855 77.911 C 338.260 77.255,336.342 75.550,335.751 76.041 C 335.351 76.372,335.267 76.291,335.383 75.686 C 335.483 75.168,335.205 74.724,334.567 74.383 C 334.035 74.098,333.600 73.625,333.600 73.332 C 333.600 73.040,333.311 72.800,332.957 72.800 C 332.544 72.800,332.398 72.581,332.550 72.187 C 332.701 71.792,332.468 71.447,331.892 71.215 C 330.463 70.639,328.401 68.437,328.394 67.480 C 328.389 66.765,328.315 66.713,328.000 67.200 C 327.622 67.784,327.403 67.372,327.540 66.337 C 327.559 66.193,327.276 66.118,326.911 66.172 C 326.083 66.293,323.910 64.410,324.152 63.781 C 324.386 63.171,323.111 62.096,322.425 62.325 C 322.102 62.433,322.001 62.323,322.170 62.049 C 322.566 61.408,321.391 60.352,320.613 60.650 C 320.258 60.787,319.996 60.741,320.031 60.549 C 320.181 59.730,319.971 59.171,319.600 59.400 C 319.380 59.536,319.200 59.447,319.200 59.203 C 319.200 58.958,318.649 58.566,317.975 58.332 C 317.197 58.060,316.828 57.705,316.961 57.357 C 317.077 57.056,317.043 56.850,316.886 56.899 C 316.407 57.049,314.017 55.096,314.239 54.736 C 314.354 54.551,314.077 54.400,313.624 54.400 C 313.171 54.400,312.800 54.209,312.800 53.976 C 312.800 53.743,312.647 53.647,312.460 53.763 C 312.273 53.878,311.886 53.535,311.600 53.000 C 311.314 52.465,310.925 52.123,310.737 52.239 C 310.548 52.355,310.293 52.186,310.168 51.862 C 310.044 51.538,309.418 51.056,308.776 50.790 C 308.135 50.525,307.707 50.150,307.826 49.958 C 307.944 49.766,307.762 49.716,307.421 49.847 C 307.079 49.978,306.800 49.913,306.800 49.701 C 306.800 49.490,306.350 48.831,305.800 48.238 C 305.122 47.506,304.800 47.352,304.800 47.760 C 304.800 48.192,304.489 48.071,303.700 47.333 C 303.095 46.767,302.652 46.123,302.716 45.903 C 302.780 45.682,302.555 45.608,302.216 45.738 C 301.810 45.894,301.598 45.741,301.594 45.287 C 301.589 44.697,301.533 44.685,301.200 45.200 C 300.924 45.627,300.810 45.651,300.806 45.282 C 300.803 44.998,300.575 44.801,300.300 44.846 C 299.444 44.984,298.441 44.359,298.649 43.817 C 298.778 43.480,298.527 43.318,297.924 43.350 C 297.281 43.385,297.016 43.192,297.053 42.716 C 297.082 42.339,296.992 42.046,296.853 42.063 C 295.793 42.196,294.670 41.943,295.102 41.669 C 295.447 41.450,295.098 41.080,293.985 40.487 C 293.095 40.011,292.478 39.843,292.614 40.111 C 292.750 40.380,292.503 40.195,292.066 39.700 C 291.629 39.205,290.986 38.800,290.636 38.800 C 290.286 38.800,290.000 38.609,290.000 38.376 C 290.000 38.143,289.820 38.064,289.600 38.200 C 289.380 38.336,289.200 38.227,289.200 37.957 C 289.200 37.687,289.081 37.586,288.935 37.731 C 288.790 37.877,288.070 37.538,287.335 36.978 C 286.601 36.418,286.000 36.093,286.000 36.256 C 286.000 36.419,285.758 36.222,285.463 35.818 C 285.167 35.414,284.436 35.057,283.838 35.025 C 283.240 34.993,282.606 34.734,282.430 34.449 C 282.255 34.165,281.996 33.947,281.855 33.966 C 281.715 33.985,281.607 33.895,281.617 33.766 C 281.652 33.265,278.195 31.805,277.906 32.199 C 277.726 32.444,277.610 32.397,277.606 32.076 C 277.603 31.788,277.420 31.664,277.200 31.800 C 276.980 31.936,276.800 31.767,276.800 31.424 C 276.800 31.081,276.665 30.821,276.500 30.847 C 275.471 31.010,274.783 30.749,275.053 30.300 C 275.257 29.960,275.137 29.976,274.677 30.349 C 274.257 30.690,274.000 30.732,274.000 30.462 C 274.000 30.221,273.732 30.128,273.403 30.254 C 273.063 30.385,272.701 30.208,272.561 29.844 C 272.427 29.492,272.156 29.304,271.960 29.425 C 271.764 29.546,271.162 29.169,270.622 28.586 C 270.083 28.004,269.472 27.632,269.266 27.759 C 269.059 27.887,268.670 27.725,268.400 27.400 C 268.130 27.075,267.762 26.900,267.582 27.011 C 267.402 27.122,267.130 27.011,266.978 26.764 C 266.781 26.446,266.600 26.473,266.356 26.857 C 266.091 27.276,266.011 27.235,266.006 26.676 C 266.003 26.277,265.813 26.068,265.582 26.211 C 265.353 26.353,264.948 26.305,264.682 26.105 C 264.417 25.905,263.766 25.719,263.236 25.691 C 262.706 25.663,262.139 25.425,261.976 25.162 C 261.814 24.899,261.407 24.788,261.073 24.916 C 260.739 25.045,260.376 24.913,260.265 24.625 C 260.012 23.966,257.682 23.591,257.441 24.171 C 257.343 24.407,257.249 24.285,257.232 23.900 C 257.202 23.255,256.550 23.008,255.300 23.170 C 255.025 23.206,254.800 23.047,254.800 22.818 C 254.800 22.588,254.339 22.400,253.776 22.400 C 253.196 22.400,252.860 22.227,253.000 22.000 C 253.136 21.780,253.057 21.600,252.824 21.600 C 252.591 21.600,252.400 21.777,252.400 21.994 C 252.400 22.211,251.815 22.032,251.100 21.596 C 250.385 21.160,249.431 20.802,248.980 20.801 C 248.529 20.801,247.937 20.577,247.663 20.303 C 247.268 19.908,247.090 19.928,246.789 20.403 C 246.538 20.802,246.410 20.834,246.406 20.500 C 246.403 20.215,245.895 20.000,245.224 20.000 C 244.577 20.000,243.936 19.820,243.800 19.600 C 243.664 19.380,242.854 19.200,242.000 19.200 C 241.146 19.200,240.338 19.023,240.204 18.806 C 240.070 18.589,239.522 18.448,238.987 18.493 C 238.349 18.546,238.149 18.709,238.407 18.967 C 239.041 19.601,238.936 69.998,238.300 70.006 C 237.938 70.011,237.952 70.109,238.351 70.361 C 238.654 70.553,238.779 70.911,238.628 71.155 C 238.460 71.427,238.674 71.600,239.176 71.600 C 239.629 71.600,240.000 71.774,240.000 71.987 C 240.000 72.201,240.272 72.270,240.605 72.143 C 240.938 72.015,241.512 72.156,241.882 72.455 C 242.345 72.831,242.460 72.845,242.253 72.500 C 242.088 72.225,242.143 72.000,242.376 72.000 C 242.609 72.000,242.800 72.282,242.800 72.627 C 242.800 73.072,243.032 73.180,243.600 73.000 C 244.139 72.829,244.400 72.928,244.400 73.304 C 244.400 73.696,244.756 73.809,245.600 73.685 C 246.484 73.556,246.800 73.669,246.800 74.117 C 246.800 74.516,247.060 74.657,247.555 74.528 C 247.970 74.419,248.431 74.526,248.578 74.765 C 248.726 75.004,249.124 75.200,249.462 75.200 C 249.800 75.200,250.598 75.571,251.236 76.025 C 251.873 76.479,252.577 76.738,252.800 76.600 C 253.024 76.462,253.498 76.641,253.855 76.998 C 254.211 77.354,254.757 77.549,255.067 77.430 C 255.377 77.311,255.733 77.480,255.858 77.807 C 255.983 78.133,256.336 78.400,256.643 78.400 C 256.949 78.400,257.200 78.580,257.200 78.800 C 257.200 79.020,257.470 79.200,257.800 79.200 C 258.130 79.200,258.400 79.401,258.400 79.647 C 258.400 79.896,258.753 80.001,259.200 79.884 C 259.720 79.748,260.000 79.872,260.000 80.237 C 260.000 80.547,260.135 80.779,260.300 80.753 C 261.372 80.583,262.808 80.863,262.600 81.200 C 262.464 81.420,262.554 81.600,262.800 81.600 C 263.046 81.600,263.149 81.760,263.028 81.955 C 262.907 82.150,263.032 82.302,263.304 82.292 C 264.592 82.245,265.225 82.435,265.000 82.800 C 264.781 83.155,265.622 83.395,266.530 83.237 C 266.711 83.206,266.758 83.344,266.634 83.545 C 266.331 84.036,267.102 84.600,268.845 85.161 C 269.639 85.416,270.482 86.025,270.717 86.513 C 270.953 87.001,271.158 87.147,271.173 86.839 C 271.191 86.459,271.449 86.565,271.970 87.165 C 272.393 87.653,272.843 88.041,272.970 88.026 C 273.768 87.935,274.016 88.050,273.794 88.410 C 273.655 88.635,273.689 88.780,273.870 88.731 C 274.469 88.569,276.016 89.251,275.809 89.586 C 275.697 89.767,276.062 90.029,276.619 90.169 C 277.177 90.309,277.532 90.586,277.410 90.784 C 277.287 90.982,277.398 91.275,277.655 91.434 C 277.937 91.608,278.017 91.551,277.855 91.289 C 277.708 91.051,277.761 90.748,277.973 90.616 C 278.451 90.322,279.281 91.774,278.886 92.212 C 278.729 92.386,278.838 92.391,279.128 92.223 C 279.465 92.029,280.044 92.343,280.728 93.092 C 281.318 93.737,282.115 94.380,282.500 94.520 C 282.885 94.660,283.200 94.961,283.200 95.187 C 283.200 95.414,283.577 95.600,284.037 95.600 C 284.538 95.600,284.959 95.921,285.084 96.400 C 285.199 96.840,285.542 97.200,285.847 97.200 C 286.151 97.200,286.400 97.380,286.400 97.600 C 286.400 97.820,286.610 97.955,286.867 97.900 C 287.124 97.845,287.572 98.250,287.861 98.800 C 288.151 99.350,288.391 99.645,288.394 99.456 C 288.397 99.266,288.774 99.536,289.230 100.056 C 289.687 100.575,289.931 100.730,289.772 100.400 C 289.613 100.070,289.869 100.197,290.341 100.683 C 290.814 101.169,291.200 101.838,291.200 102.171 C 291.200 102.570,291.426 102.688,291.866 102.519 C 292.315 102.347,292.437 102.417,292.240 102.735 C 292.075 103.002,292.219 103.309,292.575 103.446 C 292.919 103.578,293.200 103.947,293.200 104.266 C 293.200 104.586,293.380 104.736,293.600 104.600 C 293.820 104.464,294.000 104.593,294.000 104.887 C 294.000 105.513,295.255 106.660,296.619 107.281 C 297.145 107.521,297.461 107.901,297.322 108.126 C 297.162 108.384,297.348 108.429,297.822 108.247 C 298.237 108.088,298.449 108.084,298.294 108.239 C 298.139 108.394,298.325 108.777,298.706 109.090 C 299.169 109.470,299.200 109.573,298.800 109.400 C 298.470 109.257,298.549 109.424,298.976 109.770 C 299.404 110.117,299.909 110.400,300.100 110.400 C 300.291 110.400,300.336 110.580,300.200 110.800 C 300.064 111.020,300.233 111.200,300.576 111.200 C 300.919 111.200,301.200 111.391,301.200 111.624 C 301.200 111.857,301.007 111.928,300.770 111.782 C 300.534 111.636,300.572 111.887,300.855 112.340 C 301.138 112.793,301.437 113.097,301.519 113.015 C 301.888 112.645,303.107 114.182,302.901 114.759 C 302.775 115.111,302.818 115.268,302.996 115.107 C 303.430 114.713,305.199 116.813,305.200 117.724 C 305.200 118.122,305.380 118.336,305.600 118.200 C 305.820 118.064,306.000 118.263,306.000 118.643 C 306.000 119.023,306.111 119.222,306.248 119.086 C 306.546 118.787,307.640 119.818,307.756 120.508 C 307.909 121.415,308.987 122.800,309.539 122.800 C 309.859 122.800,309.991 123.047,309.857 123.395 C 309.725 123.739,309.834 123.950,310.114 123.895 C 310.381 123.843,310.603 124.091,310.606 124.446 C 310.609 124.801,310.833 125.358,311.103 125.683 C 311.372 126.008,311.460 126.421,311.297 126.601 C 311.133 126.780,311.313 126.815,311.695 126.678 C 312.078 126.541,312.373 126.557,312.352 126.714 C 312.260 127.395,312.922 128.772,313.245 128.572 C 313.574 128.369,313.772 128.955,313.637 129.730 C 313.606 129.911,313.752 129.953,313.962 129.823 C 314.173 129.693,314.458 129.770,314.596 129.993 C 314.734 130.217,314.612 130.403,314.324 130.406 C 313.943 130.411,313.964 130.518,314.400 130.800 C 314.730 131.013,314.820 131.198,314.600 131.210 C 314.380 131.222,314.679 131.492,315.264 131.810 C 316.046 132.235,316.271 132.607,316.112 133.213 C 315.983 133.707,316.201 134.393,316.654 134.919 C 317.709 136.148,318.823 138.244,318.559 138.507 C 318.439 138.628,318.716 138.846,319.176 138.992 C 319.635 139.138,319.917 139.410,319.802 139.597 C 319.687 139.783,319.864 140.207,320.196 140.539 C 320.528 140.871,320.800 141.411,320.800 141.738 C 320.800 142.065,321.025 142.424,321.300 142.535 C 321.690 142.692,321.686 142.744,321.284 142.768 C 320.945 142.789,321.047 143.099,321.584 143.675 C 322.033 144.157,322.400 144.781,322.400 145.063 C 322.400 145.345,322.757 146.211,323.193 146.988 C 323.629 147.765,323.909 148.400,323.814 148.400 C 323.719 148.400,323.830 148.940,324.060 149.600 C 324.290 150.260,324.625 150.800,324.804 150.800 C 324.983 150.800,325.081 151.245,325.021 151.789 C 324.955 152.386,325.075 152.677,325.324 152.523 C 325.574 152.369,325.637 152.526,325.485 152.922 C 325.348 153.281,325.435 153.698,325.679 153.849 C 325.948 154.015,326.011 153.941,325.838 153.662 C 325.681 153.408,325.763 153.200,326.020 153.200 C 326.324 153.200,326.395 153.566,326.224 154.248 C 326.023 155.048,326.159 155.436,326.799 155.885 C 327.352 156.272,327.514 156.630,327.274 156.936 C 326.728 157.630,326.853 158.754,327.451 158.525 C 327.808 158.388,327.914 158.610,327.792 159.241 C 327.695 159.743,327.904 160.473,328.257 160.863 C 328.625 161.270,328.786 161.860,328.635 162.253 C 328.491 162.629,328.548 163.044,328.762 163.177 C 328.976 163.309,329.237 163.892,329.343 164.473 C 329.448 165.054,329.706 165.861,329.915 166.265 C 330.125 166.669,330.247 167.307,330.186 167.683 C 330.125 168.058,330.312 168.561,330.601 168.801 C 330.939 169.082,331.072 169.874,330.974 171.035 C 330.890 172.024,330.978 172.737,331.169 172.619 C 331.711 172.284,331.991 173.449,331.489 173.951 C 331.188 174.252,331.180 174.400,331.465 174.400 C 331.703 174.400,331.804 174.844,331.695 175.414 C 331.584 175.995,331.756 176.721,332.097 177.114 C 332.491 177.568,332.641 178.385,332.540 179.528 C 332.434 180.728,332.523 181.171,332.834 180.979 C 333.161 180.777,333.162 180.923,332.840 181.525 C 332.293 182.547,332.279 182.922,332.800 182.600 C 333.166 182.374,333.430 184.599,333.265 186.517 C 333.231 186.911,333.364 187.946,333.559 188.817 C 333.813 189.945,333.783 190.402,333.457 190.406 C 333.168 190.410,333.193 190.535,333.527 190.747 C 333.940 191.008,334.050 193.115,334.036 200.440 C 334.017 209.796,333.979 210.650,333.547 211.400 C 333.421 211.620,333.293 212.790,333.265 214.000 C 333.213 216.145,333.165 216.509,332.605 219.000 C 332.401 219.908,332.439 220.054,332.762 219.600 C 333.316 218.820,333.308 219.164,332.734 220.840 C 332.478 221.588,332.073 222.332,331.834 222.494 C 331.543 222.691,331.573 222.790,331.924 222.794 C 332.245 222.798,332.324 222.993,332.130 223.300 C 331.955 223.575,331.801 224.520,331.788 225.400 C 331.774 226.350,331.583 226.964,331.318 226.912 C 331.070 226.863,330.919 227.245,330.978 227.776 C 331.035 228.299,330.880 229.328,330.633 230.063 C 330.387 230.799,330.209 231.805,330.238 232.300 C 330.267 232.795,330.113 233.200,329.896 233.200 C 329.680 233.200,329.749 233.505,330.051 233.877 C 330.424 234.337,330.440 234.457,330.100 234.253 C 329.825 234.088,329.586 234.098,329.569 234.276 C 329.461 235.427,329.192 236.158,328.784 236.410 C 328.445 236.619,328.438 236.776,328.758 236.974 C 329.071 237.168,329.080 237.477,328.787 238.024 C 328.559 238.451,328.496 238.800,328.648 238.800 C 328.800 238.800,328.598 239.160,328.200 239.600 C 327.802 240.040,327.616 240.400,327.787 240.400 C 327.958 240.400,327.874 240.670,327.600 241.000 C 327.199 241.484,327.208 241.602,327.651 241.613 C 328.020 241.621,327.948 241.816,327.429 242.209 C 327.005 242.529,326.772 242.905,326.910 243.043 C 327.049 243.182,326.916 243.541,326.617 243.841 C 326.317 244.141,326.158 244.717,326.263 245.121 C 326.369 245.525,326.192 246.075,325.869 246.343 C 325.547 246.610,325.372 247.171,325.481 247.589 C 325.597 248.030,325.328 248.725,324.840 249.249 C 324.378 249.745,324.000 250.531,324.000 250.995 C 324.000 251.460,323.775 252.082,323.500 252.379 C 323.094 252.816,323.112 252.858,323.600 252.600 C 324.088 252.342,324.106 252.384,323.700 252.821 C 323.425 253.118,323.200 253.684,323.200 254.080 C 323.200 254.476,323.020 254.800,322.800 254.800 C 322.580 254.800,322.400 255.171,322.400 255.624 C 322.400 256.077,322.220 256.336,322.000 256.200 C 321.772 256.059,321.600 256.404,321.600 257.000 C 321.600 257.731,321.449 257.957,321.100 257.747 C 320.760 257.543,320.776 257.663,321.149 258.123 C 321.623 258.707,321.607 258.800,321.036 258.800 C 320.673 258.800,320.259 259.115,320.117 259.500 C 319.975 259.885,319.711 260.300,319.531 260.422 C 319.351 260.545,319.164 261.130,319.115 261.722 C 319.066 262.315,318.904 262.800,318.756 262.800 C 318.607 262.800,318.378 263.079,318.247 263.421 C 318.098 263.809,318.173 263.940,318.446 263.772 C 318.686 263.623,318.575 263.972,318.198 264.547 C 317.821 265.123,317.352 265.494,317.156 265.373 C 316.960 265.252,316.800 265.511,316.800 265.948 C 316.800 266.385,316.492 267.051,316.115 267.428 C 315.739 267.804,315.388 268.399,315.337 268.749 C 315.286 269.099,315.054 269.449,314.822 269.526 C 314.590 269.603,314.400 269.886,314.400 270.153 C 314.400 270.421,314.175 270.865,313.900 271.140 C 313.625 271.415,313.400 271.794,313.400 271.982 C 313.400 272.170,312.864 272.925,312.209 273.661 C 311.554 274.396,310.981 275.247,310.937 275.551 C 310.892 275.855,310.637 276.306,310.369 276.552 C 310.000 276.892,309.960 276.864,310.203 276.438 C 310.411 276.074,310.370 275.971,310.086 276.147 C 309.846 276.295,309.718 276.773,309.802 277.208 C 309.885 277.644,309.784 278.000,309.577 278.000 C 309.370 278.000,309.197 278.315,309.194 278.700 C 309.189 279.298,309.131 279.313,308.800 278.800 C 308.484 278.311,308.402 278.367,308.356 279.100 C 308.325 279.595,308.255 280.180,308.200 280.400 C 308.145 280.620,308.078 280.912,308.050 281.049 C 308.023 281.186,307.749 281.090,307.442 280.835 C 306.999 280.467,306.896 280.519,306.942 281.086 C 306.974 281.479,306.775 281.755,306.500 281.700 C 306.225 281.645,306.000 281.870,306.000 282.200 C 306.000 282.530,305.775 282.803,305.500 282.806 C 305.132 282.811,305.143 282.903,305.543 283.156 C 305.921 283.396,305.951 283.583,305.643 283.774 C 305.399 283.924,305.020 283.936,304.800 283.800 C 304.580 283.664,304.400 283.833,304.400 284.176 C 304.400 284.519,304.209 284.800,303.976 284.800 C 303.743 284.800,303.664 284.980,303.800 285.200 C 303.936 285.420,303.756 285.600,303.400 285.600 C 303.044 285.600,302.864 285.780,303.000 286.000 C 303.136 286.220,303.044 286.400,302.795 286.400 C 302.107 286.400,301.117 287.506,301.647 287.682 C 301.907 287.769,301.793 288.069,301.367 288.415 C 300.783 288.889,300.711 288.893,300.985 288.438 C 301.218 288.052,301.176 287.968,300.851 288.168 C 300.591 288.329,300.429 288.760,300.489 289.127 C 300.552 289.503,300.209 289.966,299.700 290.191 C 299.205 290.410,298.800 290.821,298.800 291.105 C 298.800 291.388,298.350 291.791,297.800 292.000 C 297.250 292.209,296.800 292.655,296.800 292.990 C 296.800 293.326,296.519 293.600,296.176 293.600 C 295.833 293.600,295.644 293.747,295.755 293.927 C 295.866 294.107,295.616 294.500,295.200 294.800 C 294.784 295.100,294.534 295.493,294.645 295.673 C 294.756 295.853,294.499 296.000,294.073 296.000 C 293.229 296.000,292.214 296.972,292.524 297.482 C 292.629 297.657,292.465 298.032,292.158 298.316 C 291.835 298.614,291.600 298.656,291.600 298.415 C 291.600 298.186,290.628 299.011,289.440 300.248 C 288.034 301.710,287.104 302.388,286.778 302.186 C 286.475 301.999,286.377 302.039,286.531 302.288 C 286.671 302.514,286.338 303.035,285.792 303.445 C 284.778 304.206,284.396 305.075,285.300 304.565 C 285.674 304.354,285.669 304.423,285.283 304.838 C 284.843 305.311,284.711 305.305,284.389 304.797 C 284.059 304.275,284.011 304.278,284.006 304.825 C 283.999 305.519,282.270 306.934,280.892 307.371 C 280.401 307.527,279.813 308.002,279.586 308.427 C 279.358 308.852,278.908 309.200,278.586 309.200 C 278.264 309.200,278.000 309.460,278.000 309.777 C 278.000 310.141,277.701 310.296,277.189 310.198 C 276.667 310.097,276.477 310.201,276.655 310.489 C 276.834 310.779,276.699 310.847,276.270 310.682 C 275.790 310.498,275.538 310.706,275.355 311.438 C 275.203 312.041,274.893 312.368,274.584 312.249 C 274.299 312.140,273.957 312.335,273.824 312.683 C 273.690 313.030,273.465 313.198,273.323 313.056 C 273.181 312.914,272.735 313.097,272.332 313.461 C 271.930 313.826,271.600 313.972,271.600 313.787 C 271.600 313.601,271.229 313.847,270.776 314.333 C 270.323 314.820,269.802 315.125,269.618 315.011 C 269.434 314.898,269.181 315.074,269.054 315.402 C 268.928 315.731,268.539 316.000,268.189 316.000 C 267.786 316.000,267.663 316.184,267.853 316.500 C 268.028 316.791,267.839 316.750,267.400 316.400 C 266.961 316.050,266.772 316.009,266.947 316.300 C 267.116 316.581,267.051 316.800,266.800 316.800 C 266.554 316.800,266.463 316.978,266.597 317.195 C 266.737 317.422,266.577 317.489,266.221 317.353 C 265.879 317.222,265.600 317.308,265.600 317.545 C 265.600 317.783,265.288 317.863,264.900 317.724 C 264.515 317.586,264.320 317.606,264.467 317.770 C 264.873 318.222,263.559 319.559,262.941 319.322 C 262.644 319.208,262.400 319.314,262.400 319.557 C 262.400 319.801,262.048 320.000,261.619 320.000 C 260.503 320.000,258.689 320.868,258.077 321.694 C 257.780 322.096,257.004 322.414,256.277 322.432 C 255.575 322.449,255.235 322.557,255.521 322.672 C 256.080 322.896,254.998 323.968,254.200 323.981 C 253.980 323.985,254.070 323.813,254.400 323.600 C 254.928 323.259,254.925 323.212,254.375 323.206 C 254.032 323.203,253.364 323.560,252.892 324.000 C 252.420 324.440,251.677 324.800,251.240 324.800 C 250.804 324.800,250.333 324.985,250.193 325.211 C 250.054 325.436,249.728 325.595,249.470 325.563 C 248.507 325.444,247.960 325.611,248.174 325.958 C 248.296 326.155,248.126 326.419,247.798 326.546 C 247.469 326.672,247.200 326.601,247.200 326.387 C 247.200 326.174,247.026 326.000,246.813 326.000 C 246.599 326.000,246.538 326.295,246.677 326.657 C 246.895 327.224,246.715 327.274,245.365 327.028 C 243.920 326.764,243.861 326.788,244.595 327.335 C 245.336 327.888,245.277 327.922,243.710 327.836 C 242.746 327.784,241.956 327.938,241.856 328.198 C 241.760 328.447,241.136 328.614,240.470 328.568 C 239.608 328.508,239.316 328.636,239.460 329.011 C 239.611 329.407,239.249 329.505,238.002 329.405 C 236.756 329.305,236.392 329.403,236.544 329.797 C 236.685 330.166,236.428 330.289,235.689 330.208 C 235.108 330.144,234.265 330.321,233.816 330.602 C 233.367 330.882,232.685 331.057,232.300 330.991 C 231.915 330.925,231.600 331.035,231.600 331.235 C 231.600 331.436,231.409 331.600,231.176 331.600 C 230.943 331.600,230.867 331.375,231.006 331.100 C 231.145 330.825,230.976 330.949,230.630 331.376 C 230.283 331.804,230.000 332.006,230.000 331.827 C 230.000 331.648,229.716 331.738,229.370 332.025 C 228.862 332.447,228.678 332.450,228.425 332.040 C 228.037 331.413,227.577 331.389,227.214 331.977 C 227.063 332.222,226.412 332.463,225.769 332.512 C 225.126 332.560,224.468 332.780,224.306 333.000 C 224.133 333.235,224.007 333.153,224.000 332.800 C 223.991 332.375,223.899 332.339,223.685 332.676 C 223.519 332.937,222.847 333.259,222.191 333.391 C 220.696 333.693,217.625 334.116,216.700 334.147 C 216.315 334.161,216.000 334.313,216.000 334.486 C 216.000 334.975,214.615 334.855,214.080 334.320 C 213.707 333.947,213.600 333.947,213.600 334.320 C 213.600 334.630,212.884 334.800,211.576 334.800 C 210.149 334.800,209.637 334.936,209.838 335.262 C 210.034 335.578,209.947 335.613,209.562 335.372 C 208.811 334.903,205.864 334.864,205.551 335.319 C 205.241 335.771,193.588 335.684,193.018 335.226 C 192.788 335.041,190.391 334.877,187.691 334.863 C 184.991 334.848,182.565 334.702,182.301 334.539 C 182.036 334.375,180.915 334.204,179.810 334.159 C 177.091 334.047,177.120 334.054,177.400 333.600 C 177.746 333.040,177.060 333.100,176.480 333.680 C 176.107 334.053,175.893 334.053,175.520 333.680 C 175.256 333.416,174.435 333.200,173.696 333.200 C 172.957 333.200,172.449 333.044,172.567 332.854 C 172.685 332.663,172.060 332.548,171.179 332.597 C 170.299 332.647,169.465 332.505,169.327 332.282 C 169.174 332.034,169.279 332.002,169.600 332.200 C 169.946 332.414,170.027 332.367,169.838 332.062 C 169.681 331.808,169.283 331.600,168.953 331.600 C 168.579 331.600,168.466 331.789,168.653 332.100 C 168.882 332.482,168.817 332.494,168.377 332.153 C 168.060 331.908,167.305 331.734,166.700 331.767 C 165.993 331.805,165.600 331.625,165.600 331.263 C 165.600 330.855,165.280 330.764,164.436 330.933 C 163.594 331.101,163.206 330.992,163.031 330.538 C 162.826 330.002,162.692 329.990,162.118 330.455 C 161.546 330.919,161.497 330.916,161.789 330.432 C 162.047 330.003,161.964 329.928,161.450 330.125 C 161.020 330.290,160.681 330.156,160.529 329.760 C 160.335 329.254,160.223 329.236,159.950 329.666 C 159.748 329.986,159.610 330.020,159.606 329.750 C 159.601 329.371,158.652 329.014,156.600 328.619 C 156.380 328.577,155.570 328.290,154.800 327.982 C 154.030 327.674,153.040 327.417,152.600 327.411 C 152.160 327.405,151.491 327.040,151.113 326.600 C 150.736 326.160,150.421 325.937,150.413 326.105 C 150.406 326.273,149.815 326.166,149.099 325.867 C 148.384 325.568,147.484 325.370,147.099 325.427 C 146.715 325.483,146.400 325.365,146.400 325.165 C 146.400 324.964,145.995 324.797,145.500 324.794 C 144.768 324.789,144.712 324.714,145.200 324.392 C 145.647 324.097,145.451 324.020,144.430 324.088 C 143.631 324.142,142.992 323.977,142.897 323.690 C 142.807 323.421,142.478 323.200,142.167 323.200 C 141.855 323.200,141.600 323.041,141.600 322.847 C 141.600 322.652,141.285 322.382,140.900 322.246 C 140.515 322.111,139.950 321.886,139.644 321.748 C 139.279 321.582,139.190 321.661,139.386 321.978 C 139.771 322.601,138.170 321.688,137.121 320.687 C 136.711 320.296,135.852 319.870,135.213 319.743 C 134.574 319.615,133.955 319.260,133.838 318.955 C 133.721 318.650,133.190 318.400,132.659 318.400 C 132.029 318.400,131.620 318.121,131.484 317.598 C 131.351 317.092,131.055 316.881,130.681 317.024 C 130.344 317.153,129.643 316.807,129.058 316.221 C 128.491 315.655,127.796 315.238,127.514 315.295 C 127.231 315.353,127.041 315.186,127.092 314.925 C 127.145 314.647,126.850 314.513,126.381 314.604 C 125.940 314.689,125.678 314.597,125.801 314.399 C 126.022 314.041,124.714 313.142,124.116 313.242 C 123.160 313.402,122.612 313.180,123.138 312.847 C 123.531 312.597,123.376 312.430,122.559 312.225 C 121.661 312.000,121.555 311.865,122.021 311.538 C 122.471 311.221,122.406 311.173,121.726 311.321 C 121.207 311.434,120.766 311.288,120.641 310.963 C 120.511 310.624,120.156 310.516,119.715 310.682 C 119.065 310.925,119.054 310.882,119.600 310.200 C 120.144 309.521,120.135 309.475,119.505 309.711 C 119.067 309.875,118.845 309.791,118.905 309.486 C 118.958 309.212,118.676 309.055,118.260 309.127 C 117.853 309.196,117.625 309.082,117.755 308.873 C 117.884 308.664,117.454 308.271,116.800 308.000 C 116.146 307.729,115.709 307.348,115.829 307.154 C 115.949 306.959,115.632 306.797,115.124 306.794 C 114.381 306.789,114.317 306.712,114.800 306.400 C 115.330 306.058,115.328 306.012,114.785 306.006 C 114.447 306.003,113.547 305.467,112.785 304.816 C 112.023 304.165,111.175 303.625,110.900 303.616 C 110.625 303.607,110.445 303.375,110.500 303.100 C 110.555 302.825,110.375 302.645,110.100 302.700 C 109.825 302.755,109.600 302.609,109.600 302.376 C 109.600 302.143,109.447 302.047,109.260 302.163 C 109.073 302.278,108.686 301.935,108.400 301.400 C 108.114 300.865,107.696 300.541,107.472 300.679 C 107.223 300.833,107.167 300.664,107.327 300.245 C 107.484 299.837,107.430 299.658,107.195 299.803 C 106.978 299.937,106.797 299.722,106.794 299.324 C 106.789 298.710,106.729 298.691,106.400 299.200 C 106.005 299.811,105.775 299.286,105.975 298.232 C 106.014 298.030,105.772 298.091,105.439 298.368 C 104.926 298.794,104.857 298.743,104.993 298.036 C 105.099 297.488,104.947 297.200,104.553 297.200 C 104.223 297.200,104.064 297.020,104.200 296.800 C 104.336 296.580,104.150 296.400,103.786 296.400 C 103.423 296.400,103.027 296.025,102.907 295.566 C 102.741 294.932,102.608 294.860,102.351 295.266 C 102.097 295.666,102.011 295.674,102.006 295.300 C 102.003 295.025,101.685 294.787,101.300 294.772 C 100.672 294.747,100.668 294.716,101.258 294.472 C 101.819 294.240,101.834 294.123,101.358 293.684 C 101.036 293.387,100.800 293.344,100.800 293.584 C 100.800 293.813,100.609 294.000,100.376 294.000 C 100.143 294.000,100.043 293.854,100.153 293.676 C 100.263 293.498,99.824 292.915,99.177 292.381 C 98.529 291.846,98.000 291.195,98.000 290.933 C 98.000 290.671,97.397 289.817,96.660 289.036 C 95.922 288.254,95.427 287.506,95.560 287.374 C 95.692 287.242,95.545 287.193,95.233 287.267 C 94.921 287.340,94.446 286.979,94.178 286.464 C 93.838 285.812,93.626 285.691,93.477 286.064 C 93.328 286.437,93.254 286.394,93.232 285.923 C 93.214 285.550,92.869 285.010,92.465 284.723 C 92.060 284.435,91.607 283.705,91.457 283.100 C 91.303 282.476,90.910 282.000,90.550 282.000 C 90.140 282.000,89.999 281.780,90.153 281.379 C 90.289 281.023,90.222 280.863,89.995 281.003 C 89.778 281.137,89.600 281.057,89.600 280.824 C 89.600 279.944,89.528 279.791,88.963 279.475 C 88.644 279.297,88.506 278.951,88.657 278.707 C 88.841 278.410,88.683 278.359,88.178 278.553 C 87.763 278.712,87.543 278.724,87.688 278.579 C 87.972 278.295,87.573 277.727,86.004 276.181 C 85.456 275.642,85.169 275.200,85.366 275.200 C 85.563 275.200,85.404 274.847,85.013 274.415 C 84.623 273.983,84.408 273.355,84.537 273.020 C 84.675 272.661,84.571 272.449,84.286 272.505 C 84.019 272.557,83.845 272.375,83.900 272.100 C 83.955 271.825,83.719 271.600,83.376 271.600 C 83.033 271.600,82.855 271.435,82.980 271.232 C 83.105 271.030,82.930 270.587,82.591 270.249 C 82.253 269.910,81.642 268.888,81.234 267.977 C 80.788 266.980,80.407 266.536,80.278 266.861 C 80.160 267.157,80.049 266.979,80.032 266.464 C 80.014 265.949,79.595 265.190,79.100 264.777 C 78.605 264.364,78.425 264.021,78.700 264.013 C 78.975 264.006,79.200 263.809,79.200 263.576 C 79.200 263.343,79.046 263.248,78.858 263.364 C 78.569 263.543,77.509 261.809,77.535 261.200 C 77.539 261.090,77.258 260.685,76.910 260.300 C 76.561 259.915,76.439 259.595,76.638 259.588 C 76.837 259.581,76.677 259.388,76.282 259.158 C 75.796 258.875,75.647 258.481,75.821 257.935 C 75.997 257.379,75.824 256.952,75.262 256.559 C 74.766 256.211,74.509 255.670,74.605 255.174 C 74.691 254.726,74.512 254.264,74.206 254.147 C 73.901 254.030,73.737 253.708,73.843 253.431 C 73.950 253.154,73.760 252.699,73.423 252.419 C 73.085 252.139,72.895 251.770,73.000 251.600 C 73.105 251.430,72.923 251.068,72.596 250.796 C 71.937 250.249,71.768 249.410,72.395 249.797 C 72.622 249.937,72.689 249.777,72.553 249.421 C 72.422 249.079,72.109 248.797,71.857 248.794 C 71.572 248.790,71.601 248.660,71.934 248.450 C 72.364 248.177,72.346 248.065,71.840 247.871 C 71.473 247.730,71.312 247.374,71.451 247.011 C 71.582 246.670,71.264 245.809,70.744 245.096 C 70.225 244.383,69.806 243.440,69.814 243.000 C 69.821 242.560,69.641 242.068,69.414 241.906 C 69.152 241.720,69.194 241.610,69.529 241.606 C 69.915 241.602,69.880 241.422,69.398 240.940 C 69.035 240.578,68.825 239.948,68.931 239.540 C 69.055 239.069,68.912 238.800,68.539 238.800 C 68.217 238.800,68.051 238.641,68.172 238.446 C 68.397 238.081,67.824 235.916,67.189 234.729 C 66.949 234.282,66.991 233.991,67.314 233.859 C 67.677 233.711,67.683 233.577,67.340 233.330 C 67.087 233.149,66.817 232.640,66.740 232.200 C 66.663 231.760,66.420 231.265,66.200 231.100 C 65.949 230.912,66.024 230.653,66.400 230.406 C 66.801 230.143,66.834 230.010,66.500 230.006 C 66.225 230.003,66.000 229.670,66.000 229.267 C 66.000 228.863,65.875 228.408,65.722 228.255 C 65.389 227.922,65.238 227.107,65.142 225.117 C 65.096 224.169,64.913 223.727,64.635 223.893 C 64.396 224.036,64.470 223.814,64.800 223.400 C 65.130 222.986,65.198 222.768,64.950 222.916 C 64.675 223.081,64.479 222.838,64.447 222.293 C 64.329 220.308,64.159 219.372,63.817 218.824 C 63.620 218.507,63.499 217.456,63.549 216.489 C 63.600 215.508,63.410 214.447,63.120 214.089 C 62.834 213.735,62.802 213.567,63.048 213.715 C 63.586 214.037,63.652 209.533,63.114 209.168 C 62.489 208.743,62.618 191.961,63.249 191.561 C 63.649 191.308,63.662 191.211,63.300 191.206 C 63.025 191.203,62.800 191.009,62.800 190.776 C 62.800 190.543,62.980 190.464,63.200 190.600 C 63.420 190.736,63.600 190.556,63.600 190.200 C 63.600 189.844,63.450 189.645,63.267 189.759 C 63.083 189.872,62.933 189.711,62.933 189.400 C 62.933 189.089,63.069 188.919,63.234 189.021 C 63.400 189.124,63.526 188.261,63.513 187.104 C 63.483 184.159,63.556 183.525,63.900 183.738 C 64.065 183.839,64.200 182.815,64.200 181.461 C 64.200 180.108,64.358 178.773,64.552 178.497 C 64.881 178.026,65.079 176.528,65.164 173.876 C 65.188 173.133,65.357 172.850,65.663 173.039 C 66.001 173.248,66.057 172.823,65.871 171.463 C 65.708 170.276,65.766 169.600,66.031 169.600 C 66.260 169.600,66.344 169.768,66.217 169.972 C 66.091 170.177,66.157 170.450,66.365 170.578 C 66.588 170.716,66.709 169.977,66.659 168.783 C 66.608 167.573,66.772 166.589,67.063 166.347 C 67.332 166.124,67.465 165.714,67.358 165.435 C 67.251 165.156,67.442 164.697,67.782 164.415 C 68.122 164.133,68.400 163.283,68.400 162.527 C 68.400 161.771,68.555 161.248,68.744 161.365 C 68.933 161.482,69.018 160.949,68.933 160.180 C 68.824 159.192,68.958 158.714,69.390 158.549 C 69.725 158.420,70.000 157.989,70.000 157.591 C 70.000 157.192,70.225 156.762,70.500 156.633 C 70.899 156.447,70.899 156.353,70.498 156.166 C 70.126 155.993,70.183 155.759,70.717 155.266 C 71.113 154.900,71.204 154.757,70.919 154.949 C 70.176 155.449,70.262 154.612,71.018 153.985 C 71.358 153.703,71.540 153.221,71.423 152.915 C 71.305 152.609,71.387 152.468,71.605 152.603 C 71.824 152.739,72.000 152.408,72.000 151.857 C 72.000 151.312,72.206 150.798,72.457 150.714 C 72.709 150.630,72.951 150.030,72.994 149.381 C 73.038 148.731,73.237 148.230,73.437 148.266 C 73.637 148.303,73.828 147.863,73.863 147.289 C 73.897 146.714,74.183 146.054,74.497 145.822 C 74.812 145.590,75.039 144.992,75.001 144.494 C 74.964 143.996,75.164 143.396,75.446 143.162 C 75.728 142.928,76.163 142.119,76.412 141.364 C 76.661 140.610,77.034 140.098,77.242 140.226 C 77.450 140.354,77.594 140.311,77.563 140.130 C 77.391 139.143,77.646 138.381,78.062 138.638 C 78.358 138.821,78.415 138.747,78.219 138.431 C 78.038 138.138,78.271 137.607,78.797 137.117 C 79.358 136.595,79.522 136.199,79.248 136.029 C 78.970 135.858,79.086 135.533,79.575 135.114 C 79.991 134.758,80.455 134.586,80.605 134.733 C 80.755 134.880,80.840 134.550,80.795 134.000 C 80.667 132.466,80.776 132.144,81.200 132.800 C 81.514 133.285,81.589 133.228,81.594 132.500 C 81.597 132.005,81.791 131.600,82.024 131.600 C 82.257 131.600,82.336 131.420,82.200 131.200 C 82.064 130.980,82.237 130.800,82.584 130.800 C 83.039 130.800,83.165 130.521,83.034 129.800 C 82.935 129.250,83.034 128.800,83.255 128.800 C 83.993 128.800,84.855 127.690,84.296 127.459 C 83.995 127.334,84.143 127.149,84.672 126.988 C 85.152 126.841,85.645 126.460,85.768 126.140 C 85.892 125.815,85.816 125.666,85.595 125.803 C 85.378 125.937,85.200 125.857,85.200 125.624 C 85.200 125.391,85.470 125.200,85.800 125.200 C 86.130 125.200,86.355 124.975,86.300 124.700 C 86.245 124.425,86.438 124.249,86.730 124.310 C 87.021 124.370,87.155 124.251,87.028 124.045 C 86.900 123.838,87.405 123.095,88.149 122.392 C 89.114 121.482,89.441 120.879,89.287 120.290 C 89.122 119.659,89.220 119.522,89.703 119.707 C 90.350 119.956,90.998 119.045,90.846 118.100 C 90.801 117.825,91.031 117.600,91.356 117.600 C 91.680 117.600,92.060 117.240,92.200 116.800 C 92.340 116.360,92.622 116.000,92.827 116.000 C 93.032 116.000,93.200 115.640,93.200 115.200 C 93.200 114.760,93.335 114.421,93.500 114.447 C 94.222 114.561,94.792 114.373,94.700 114.049 C 94.645 113.857,95.139 113.092,95.797 112.349 C 96.455 111.607,96.950 110.865,96.897 110.700 C 96.844 110.535,97.070 110.400,97.400 110.400 C 97.730 110.400,97.955 110.265,97.900 110.100 C 97.845 109.935,97.980 109.729,98.200 109.642 C 98.420 109.555,98.977 108.973,99.439 108.348 C 99.900 107.722,100.410 107.343,100.572 107.505 C 100.734 107.667,100.823 107.620,100.770 107.400 C 100.612 106.747,101.255 105.587,101.642 105.826 C 101.839 105.948,102.000 105.846,102.000 105.600 C 102.000 105.354,102.161 105.252,102.357 105.374 C 102.554 105.495,102.831 105.130,102.974 104.562 C 103.171 103.777,103.356 103.632,103.747 103.956 C 104.140 104.282,104.254 104.182,104.231 103.532 C 104.214 103.064,104.470 102.604,104.800 102.510 C 105.285 102.372,105.296 102.412,104.857 102.720 C 104.552 102.934,104.479 103.202,104.691 103.333 C 104.899 103.461,105.363 102.947,105.724 102.191 C 106.208 101.175,106.555 100.885,107.055 101.076 C 107.508 101.250,107.637 101.183,107.445 100.873 C 107.066 100.259,108.482 98.774,109.522 98.696 C 109.974 98.662,110.268 98.510,110.175 98.359 C 110.081 98.208,110.285 97.976,110.628 97.845 C 110.970 97.713,111.140 97.426,111.005 97.207 C 110.857 96.969,111.034 96.915,111.445 97.073 C 111.864 97.233,112.033 97.177,111.879 96.928 C 111.508 96.328,113.668 94.599,114.600 94.749 C 115.040 94.820,115.268 94.743,115.106 94.579 C 114.945 94.414,115.125 94.023,115.506 93.710 C 115.920 93.371,115.957 93.265,115.600 93.447 C 115.071 93.717,115.069 93.668,115.585 93.033 C 115.931 92.607,116.231 92.493,116.318 92.753 C 116.412 93.037,116.676 92.981,117.064 92.593 C 117.394 92.263,117.858 92.112,118.094 92.258 C 118.330 92.404,118.418 92.352,118.288 92.143 C 118.159 91.933,118.218 91.500,118.420 91.181 C 118.739 90.678,118.791 90.680,118.809 91.200 C 118.821 91.557,119.363 91.178,120.147 90.262 C 120.980 89.289,121.842 88.701,122.494 88.662 C 123.060 88.628,123.452 88.484,123.364 88.342 C 123.276 88.200,123.485 87.976,123.828 87.845 C 124.170 87.713,124.355 87.451,124.239 87.262 C 124.122 87.074,124.760 86.677,125.656 86.382 C 126.552 86.086,127.375 85.610,127.484 85.324 C 127.594 85.038,127.845 84.904,128.042 85.026 C 128.239 85.148,128.400 85.046,128.400 84.800 C 128.400 84.554,128.580 84.464,128.800 84.600 C 129.020 84.736,129.200 84.657,129.200 84.424 C 129.200 84.191,129.455 84.000,129.767 84.000 C 130.078 84.000,130.393 83.857,130.467 83.681 C 130.670 83.194,134.527 81.436,135.140 81.552 C 135.437 81.608,135.573 81.481,135.443 81.269 C 135.312 81.058,135.662 80.771,136.219 80.631 C 136.777 80.491,137.122 80.197,136.987 79.978 C 136.851 79.759,136.889 79.606,137.070 79.637 C 137.252 79.669,137.535 79.651,137.700 79.597 C 138.316 79.397,138.819 79.299,139.467 79.250 C 139.833 79.223,140.016 79.083,139.873 78.939 C 139.594 78.661,140.540 78.104,142.800 77.216 C 143.570 76.913,144.443 76.479,144.739 76.252 C 145.035 76.024,145.658 75.779,146.122 75.709 C 146.586 75.638,147.090 75.378,147.242 75.132 C 147.395 74.885,147.817 74.798,148.180 74.937 C 148.600 75.098,148.744 75.032,148.573 74.757 C 148.408 74.489,148.591 74.382,149.053 74.476 C 149.464 74.560,150.038 74.353,150.330 74.015 C 150.776 73.496,150.811 73.494,150.553 74.000 C 150.300 74.496,150.353 74.514,150.860 74.103 C 151.197 73.830,151.621 73.740,151.801 73.903 C 151.981 74.067,152.002 73.980,151.848 73.712 C 151.558 73.207,153.421 72.488,153.866 72.933 C 153.992 73.059,154.358 72.899,154.680 72.577 C 155.001 72.256,155.438 72.100,155.650 72.231 C 155.862 72.362,156.289 72.258,156.600 72.000 C 156.911 71.742,157.353 71.647,157.582 71.789 C 157.812 71.931,158.000 71.846,158.000 71.600 C 158.000 71.354,158.180 71.264,158.400 71.400 C 158.620 71.536,158.800 71.457,158.800 71.224 C 158.800 70.991,158.620 70.800,158.400 70.800 C 158.180 70.800,158.000 70.609,158.000 70.376 C 158.000 70.143,158.135 70.036,158.300 70.138 C 158.465 70.240,158.600 58.838,158.600 44.800 C 158.600 30.762,158.468 19.484,158.306 19.738 C 158.039 20.158,157.830 19.599,157.937 18.747 C 157.954 18.608,157.436 18.517,156.784 18.543 C 156.133 18.570,155.600 18.728,155.600 18.896 M70.033 66.767 C 68.850 67.950,68.468 67.805,69.599 66.602 C 70.114 66.052,70.611 65.677,70.702 65.768 C 70.792 65.859,70.492 66.308,70.033 66.767 " stroke="none" fill="#144474" fill-rule="evenodd"></path><path id="path2" d="M157.870 18.663 C 157.737 18.796,157.806 19.237,158.023 19.643 C 158.274 20.112,158.378 29.559,158.309 45.590 C 158.249 59.456,158.333 70.800,158.497 70.800 C 158.908 70.800,158.856 18.882,158.444 18.627 C 158.261 18.514,158.003 18.531,157.870 18.663 M238.188 45.000 C 238.188 58.860,238.239 64.472,238.300 57.471 C 238.361 50.470,238.361 39.130,238.300 32.271 C 238.238 25.412,238.188 31.140,238.188 45.000 M272.492 29.675 C 272.579 29.936,272.864 30.221,273.125 30.308 C 273.418 30.406,273.507 30.223,273.357 29.833 C 273.078 29.106,272.252 28.955,272.492 29.675 M123.000 30.000 C 122.864 30.220,123.023 30.400,123.353 30.400 C 123.683 30.400,124.064 30.220,124.200 30.000 C 124.336 29.780,124.177 29.600,123.847 29.600 C 123.517 29.600,123.136 29.780,123.000 30.000 M116.600 33.257 L 115.800 34.067 116.900 33.569 C 117.505 33.296,118.000 32.920,118.000 32.736 C 118.000 32.189,117.454 32.393,116.600 33.257 M111.600 35.608 L 110.600 36.397 111.900 35.960 C 112.615 35.719,113.200 35.359,113.200 35.161 C 113.200 34.603,112.693 34.744,111.600 35.608 M286.800 36.554 C 286.800 36.639,287.295 37.027,287.900 37.416 L 289.000 38.124 288.238 37.262 C 287.564 36.499,286.800 36.123,286.800 36.554 M296.716 42.635 C 296.933 43.023,297.400 43.382,297.755 43.435 C 298.646 43.565,298.567 43.402,297.360 42.611 C 296.374 41.964,296.341 41.966,296.716 42.635 M298.673 43.860 C 298.338 44.195,299.686 45.194,300.115 44.929 C 300.293 44.819,300.228 44.475,299.970 44.164 C 299.459 43.548,299.075 43.458,298.673 43.860 M303.000 46.645 C 303.440 47.060,304.025 47.659,304.300 47.976 C 304.735 48.477,304.800 48.476,304.800 47.963 C 304.800 47.638,304.215 47.039,303.500 46.632 C 302.225 45.905,302.216 45.906,303.000 46.645 M323.913 63.800 C 324.385 64.714,326.400 66.558,326.400 66.076 C 326.400 65.900,325.747 65.137,324.950 64.378 C 324.074 63.546,323.663 63.317,323.913 63.800 M328.400 67.974 C 328.400 68.377,331.295 71.239,331.497 71.036 C 331.564 70.970,330.894 70.169,330.009 69.257 C 329.124 68.345,328.400 67.768,328.400 67.974 M151.776 73.395 C 151.071 73.935,151.128 73.948,152.400 73.535 C 154.136 72.972,154.357 72.800,153.343 72.800 C 152.909 72.800,152.204 73.068,151.776 73.395 M342.924 84.546 C 343.076 84.942,343.200 85.387,343.200 85.536 C 343.200 85.686,343.605 86.056,344.100 86.360 C 344.976 86.899,344.981 86.892,344.299 86.124 C 343.914 85.690,343.670 85.260,343.759 85.168 C 343.847 85.075,343.633 84.736,343.284 84.413 C 342.718 83.891,342.678 83.906,342.924 84.546 M121.741 88.797 C 120.778 89.186,120.125 90.000,120.776 90.000 C 121.009 90.000,121.200 89.820,121.200 89.600 C 121.200 89.380,121.459 89.200,121.776 89.200 C 122.093 89.200,122.464 89.020,122.600 88.800 C 122.886 88.338,122.879 88.338,121.741 88.797 M277.627 91.032 C 278.194 91.716,278.929 91.786,278.712 91.135 C 278.626 90.879,278.241 90.624,277.856 90.567 C 277.293 90.484,277.248 90.576,277.627 91.032 M45.829 95.029 C 45.136 95.721,45.043 96.000,45.504 96.000 C 45.671 96.000,46.032 95.640,46.307 95.200 C 46.906 94.241,46.693 94.164,45.829 95.029 M352.000 97.120 C 352.000 97.585,352.890 98.402,353.380 98.388 C 353.611 98.381,353.481 98.190,353.092 97.963 C 352.702 97.736,352.488 97.382,352.615 97.175 C 352.743 96.969,352.657 96.800,352.424 96.800 C 352.191 96.800,352.000 96.944,352.000 97.120 M42.700 99.812 C 41.919 100.859,41.795 101.600,42.400 101.600 C 42.620 101.600,42.800 101.255,42.800 100.833 C 42.800 100.412,43.007 99.998,43.260 99.913 C 43.513 99.829,43.648 99.561,43.560 99.317 C 43.472 99.073,43.085 99.296,42.700 99.812 M289.671 100.390 C 289.839 101.159,290.775 102.159,291.059 101.874 C 291.181 101.752,290.889 101.236,290.411 100.726 C 289.885 100.167,289.592 100.034,289.671 100.390 M104.117 103.196 C 104.003 103.633,103.768 103.904,103.596 103.798 C 103.425 103.692,103.171 103.898,103.034 104.257 C 102.807 104.847,102.869 104.852,103.692 104.305 C 104.191 103.974,104.540 103.565,104.466 103.396 C 104.392 103.227,104.572 102.937,104.866 102.751 C 105.310 102.469,105.310 102.411,104.863 102.406 C 104.567 102.403,104.231 102.758,104.117 103.196 M100.681 106.641 C 99.814 107.798,99.974 107.863,101.159 106.836 C 101.643 106.416,101.896 105.984,101.720 105.877 C 101.544 105.770,101.077 106.114,100.681 106.641 M297.744 108.306 C 297.219 108.645,297.829 109.327,298.816 109.506 C 299.246 109.584,299.217 109.468,298.706 109.066 C 298.325 108.766,298.130 108.404,298.273 108.260 C 298.620 107.913,298.312 107.940,297.744 108.306 M36.432 110.739 C 35.779 111.960,35.914 112.300,36.641 111.263 C 36.993 110.760,37.188 110.254,37.073 110.140 C 36.959 110.025,36.670 110.295,36.432 110.739 M309.881 123.761 C 310.277 124.289,310.657 124.667,310.728 124.600 C 310.938 124.399,309.834 122.800,309.485 122.800 C 309.308 122.800,309.486 123.232,309.881 123.761 M29.250 125.406 C 28.291 127.031,28.161 127.518,28.900 126.713 C 29.648 125.899,30.480 124.347,30.277 124.144 C 30.179 124.046,29.717 124.614,29.250 125.406 M26.164 132.500 C 25.730 133.851,25.616 135.349,25.978 134.950 C 26.307 134.588,26.864 131.600,26.602 131.600 C 26.520 131.600,26.324 132.005,26.164 132.500 M315.260 132.380 C 315.432 132.896,315.981 132.988,316.030 132.510 C 316.047 132.351,315.844 132.148,315.580 132.060 C 315.316 131.972,315.172 132.116,315.260 132.380 M370.714 133.457 C 370.612 133.646,370.767 134.250,371.059 134.800 C 371.521 135.674,371.588 135.699,371.588 135.000 C 371.588 134.047,370.978 132.970,370.714 133.457 M326.300 155.865 C 326.575 155.976,326.800 156.332,326.800 156.657 C 326.800 156.982,326.989 157.131,327.219 156.988 C 327.725 156.676,326.945 155.583,326.251 155.632 C 325.968 155.651,325.986 155.738,326.300 155.865 M327.613 160.651 C 327.639 161.360,328.800 162.607,328.800 161.925 C 328.800 161.580,328.530 161.074,328.200 160.800 C 327.870 160.526,327.606 160.459,327.613 160.651 M329.200 165.891 C 329.200 166.344,329.474 166.820,329.809 166.948 C 330.321 167.145,330.345 167.040,329.955 166.291 C 329.292 165.016,329.200 164.967,329.200 165.891 M66.838 166.555 C 66.510 166.949,66.493 167.211,66.783 167.390 C 67.016 167.533,67.317 167.362,67.452 167.008 C 67.790 166.128,67.419 165.854,66.838 166.555 M330.013 168.820 C 330.020 169.139,330.295 169.757,330.624 170.192 C 331.212 170.969,331.221 170.967,331.086 170.087 C 330.921 169.004,329.993 167.909,330.013 168.820 M66.100 169.423 C 65.471 170.106,65.455 170.800,66.067 170.800 C 66.323 170.800,66.415 170.682,66.270 170.537 C 66.125 170.392,66.211 170.028,66.460 169.727 C 67.063 169.001,66.740 168.729,66.100 169.423 M380.900 174.200 C 380.900 174.742,381.058 175.088,381.250 174.969 C 381.443 174.850,381.600 174.504,381.600 174.200 C 381.600 173.896,381.443 173.550,381.250 173.431 C 381.058 173.312,380.900 173.658,380.900 174.200 M14.692 181.842 C 14.531 182.002,14.400 182.409,14.400 182.747 C 14.400 183.197,14.518 183.242,14.845 182.915 C 15.090 182.670,15.221 182.263,15.137 182.010 C 15.052 181.757,14.852 181.681,14.692 181.842 M333.293 189.200 C 333.293 189.970,333.375 190.285,333.476 189.900 C 333.576 189.515,333.576 188.885,333.476 188.500 C 333.375 188.115,333.293 188.430,333.293 189.200 M13.977 189.700 C 13.580 191.421,13.695 192.823,14.178 192.163 C 14.541 191.666,14.605 191.184,14.367 190.738 C 14.125 190.286,14.170 189.999,14.503 189.864 C 14.897 189.705,14.896 189.657,14.500 189.632 C 14.225 189.614,13.990 189.645,13.977 189.700 M13.726 196.702 C 13.653 198.185,13.658 198.190,14.212 197.200 C 14.914 195.945,14.947 195.199,14.300 195.202 C 14.003 195.203,13.770 195.810,13.726 196.702 M13.970 204.700 C 13.954 204.865,13.865 205.405,13.773 205.900 C 13.681 206.395,13.805 206.800,14.049 206.800 C 14.296 206.800,14.401 206.445,14.284 206.000 C 14.169 205.560,14.238 205.200,14.437 205.200 C 14.637 205.200,14.800 205.020,14.800 204.800 C 14.800 204.341,14.015 204.246,13.970 204.700 M13.794 207.610 C 13.367 208.300,14.017 210.543,14.504 210.056 C 14.800 209.760,14.775 209.452,14.418 209.022 C 14.139 208.686,14.015 208.138,14.143 207.805 C 14.406 207.119,14.177 206.990,13.794 207.610 M63.463 217.498 C 63.332 217.709,63.484 218.224,63.800 218.641 C 64.242 219.225,64.376 219.261,64.381 218.800 C 64.391 217.946,63.749 217.036,63.463 217.498 M14.688 219.585 C 14.571 220.033,14.756 220.592,15.118 220.885 C 15.654 221.319,15.696 221.306,15.387 220.800 C 15.185 220.470,15.072 219.885,15.135 219.500 C 15.292 218.545,14.943 218.612,14.688 219.585 M15.309 226.009 C 15.276 226.453,15.418 226.713,15.624 226.585 C 16.079 226.304,16.127 225.200,15.685 225.200 C 15.512 225.200,15.343 225.564,15.309 226.009 M16.806 235.276 C 16.803 235.868,16.980 236.464,17.200 236.600 C 17.711 236.916,17.711 235.590,17.200 234.800 C 16.897 234.331,16.811 234.434,16.806 235.276 M17.600 239.576 C 17.600 240.247,18.309 240.413,18.546 239.798 C 18.685 239.435,18.544 239.200,18.187 239.200 C 17.864 239.200,17.600 239.369,17.600 239.576 M18.686 243.206 C 18.995 244.390,19.517 244.545,19.296 243.388 C 19.192 242.845,18.965 242.400,18.791 242.400 C 18.617 242.400,18.570 242.763,18.686 243.206 M317.489 264.667 C 317.391 265.180,317.355 265.600,317.409 265.600 C 317.464 265.600,317.783 265.180,318.120 264.667 C 318.602 263.930,318.619 263.733,318.199 263.733 C 317.907 263.733,317.587 264.153,317.489 264.667 M367.410 275.180 C 366.723 276.509,366.668 276.800,367.102 276.800 C 367.268 276.800,367.601 276.170,367.842 275.400 C 368.378 273.690,368.222 273.610,367.410 275.180 M307.867 279.467 C 307.720 279.613,307.600 280.093,307.600 280.533 C 307.600 281.536,308.129 281.065,308.208 279.992 C 308.273 279.115,308.251 279.082,307.867 279.467 M355.115 298.419 C 354.474 299.536,354.477 299.559,355.218 299.096 C 356.080 298.557,356.514 297.718,356.072 297.444 C 355.910 297.345,355.480 297.783,355.115 298.419 M104.933 298.181 C 104.933 298.502,105.072 298.679,105.242 298.574 C 105.412 298.469,105.736 298.702,105.963 299.092 C 106.190 299.481,106.381 299.603,106.388 299.362 C 106.395 299.121,106.070 298.625,105.667 298.260 C 105.060 297.711,104.933 297.698,104.933 298.181 M42.155 299.771 C 42.258 300.477,44.400 303.118,44.400 302.539 C 44.400 302.311,44.040 301.798,43.600 301.400 C 43.160 301.002,42.800 300.445,42.800 300.162 C 42.800 299.879,42.636 299.546,42.435 299.422 C 42.234 299.298,42.108 299.455,42.155 299.771 M349.860 306.187 C 349.511 307.097,350.181 307.242,350.723 306.374 C 351.115 305.747,351.100 305.600,350.646 305.600 C 350.338 305.600,349.984 305.864,349.860 306.187 M52.800 314.984 C 52.800 315.495,54.741 317.622,54.915 317.302 C 55.006 317.136,54.567 316.479,53.940 315.841 C 53.313 315.204,52.800 314.818,52.800 314.984 M129.200 316.357 C 129.200 316.554,129.485 316.824,129.833 316.957 C 130.811 317.333,130.908 317.251,130.257 316.600 C 129.577 315.920,129.200 315.833,129.200 316.357 M262.877 318.830 C 262.955 319.067,263.191 319.260,263.400 319.260 C 263.609 319.260,263.845 319.067,263.923 318.830 C 264.002 318.594,263.767 318.400,263.400 318.400 C 263.033 318.400,262.798 318.594,262.877 318.830 M58.800 322.259 C 58.800 322.459,59.322 323.193,59.960 323.892 C 60.599 324.591,61.196 325.387,61.287 325.662 C 61.381 325.943,61.555 325.994,61.685 325.780 C 61.813 325.571,61.216 324.612,60.359 323.649 C 59.501 322.685,58.800 322.060,58.800 322.259 M336.870 323.253 C 336.100 324.202,336.052 324.400,336.593 324.400 C 336.953 324.400,337.136 324.220,337.000 324.000 C 336.864 323.780,336.924 323.600,337.134 323.600 C 337.488 323.600,338.153 322.396,337.909 322.195 C 337.849 322.146,337.381 322.622,336.870 323.253 M243.600 327.602 C 243.138 327.902,243.247 327.973,244.071 327.911 C 244.660 327.867,245.055 327.688,244.948 327.515 C 244.692 327.102,244.334 327.125,243.600 327.602 M175.520 333.680 C 175.893 334.053,176.107 334.053,176.480 333.680 C 176.853 333.307,176.747 333.200,176.000 333.200 C 175.253 333.200,175.147 333.307,175.520 333.680 M219.600 333.600 C 219.600 334.069,219.907 334.069,221.000 333.600 C 221.709 333.295,221.675 333.253,220.700 333.228 C 220.095 333.213,219.600 333.380,219.600 333.600 M214.262 334.500 C 214.523 334.924,216.000 334.875,216.000 334.442 C 216.000 334.246,215.567 334.111,215.038 334.142 C 214.509 334.174,214.160 334.335,214.262 334.500 M204.252 335.115 C 204.116 335.336,204.268 335.617,204.589 335.741 C 205.198 335.974,205.859 335.326,205.440 334.907 C 205.308 334.775,205.197 334.922,205.194 335.233 C 205.189 335.704,205.129 335.708,204.844 335.257 C 204.632 334.924,204.405 334.869,204.252 335.115 M81.343 345.000 C 81.673 345.330,82.040 345.600,82.159 345.600 C 82.278 345.600,82.271 345.330,82.145 345.000 C 82.018 344.670,81.651 344.400,81.329 344.400 C 80.821 344.400,80.822 344.480,81.343 345.000 M301.041 355.400 C 300.624 355.716,300.101 355.862,299.879 355.725 C 299.658 355.588,299.596 355.671,299.743 355.908 C 299.890 356.145,299.693 356.422,299.305 356.523 C 298.807 356.653,298.776 356.720,299.200 356.752 C 299.530 356.776,300.340 356.353,301.000 355.812 C 302.280 354.763,302.312 354.438,301.041 355.400 M280.576 366.975 C 279.887 367.485,279.879 367.538,280.504 367.451 C 281.283 367.341,282.405 366.400,281.756 366.400 C 281.535 366.400,281.004 366.659,280.576 366.975 M116.700 367.482 C 117.195 367.578,117.600 367.823,117.600 368.028 C 117.600 368.233,117.802 368.400,118.049 368.400 C 118.359 368.400,118.344 368.215,118.000 367.800 C 117.726 367.470,117.119 367.225,116.651 367.254 C 115.836 367.307,115.838 367.316,116.700 367.482 M266.419 373.580 C 266.100 373.782,265.707 373.866,265.547 373.767 C 265.386 373.668,265.148 373.760,265.017 373.973 C 264.709 374.471,266.408 374.152,266.951 373.609 C 267.456 373.104,267.195 373.089,266.419 373.580 M254.071 377.714 C 253.748 378.103,253.834 378.229,254.422 378.229 C 254.850 378.229,255.200 377.997,255.200 377.714 C 255.200 377.431,255.042 377.200,254.849 377.200 C 254.656 377.200,254.306 377.431,254.071 377.714 M251.600 378.800 C 251.600 379.020,251.870 379.200,252.200 379.200 C 252.530 379.200,252.800 379.020,252.800 378.800 C 252.800 378.580,252.530 378.400,252.200 378.400 C 251.870 378.400,251.600 378.580,251.600 378.800 M215.276 385.945 C 214.928 386.165,215.164 386.289,215.976 386.312 C 216.649 386.331,217.200 386.179,217.200 385.973 C 217.200 385.513,215.986 385.494,215.276 385.945 M189.429 386.360 C 189.973 386.941,191.600 387.271,191.600 386.801 C 191.600 386.606,191.420 386.336,191.200 386.200 C 190.980 386.064,190.800 386.150,190.800 386.390 C 190.800 386.700,190.536 386.692,189.900 386.365 C 189.234 386.022,189.112 386.021,189.429 386.360 M201.446 386.727 C 201.354 386.877,201.795 387.037,202.426 387.083 C 203.057 387.128,203.664 387.021,203.773 386.843 C 203.883 386.666,203.442 386.506,202.793 386.487 C 202.145 386.469,201.538 386.577,201.446 386.727 " stroke="none" fill="#14447c" fill-rule="evenodd"></path><path id="path3" d="M195.000 335.200 C 195.999 335.629,200.659 335.629,202.000 335.200 C 202.633 334.997,201.385 334.875,198.600 334.868 C 195.803 334.861,194.491 334.981,195.000 335.200 " stroke="none" fill="#2488d0" fill-rule="evenodd"></path><path id="path4" d="M238.301 37.538 C 238.357 47.802,238.452 59.350,238.511 63.200 C 238.571 67.050,238.660 58.736,238.710 44.724 C 238.759 30.712,238.665 19.164,238.500 19.062 C 238.335 18.960,238.246 27.274,238.301 37.538 M193.000 335.200 C 193.136 335.420,193.517 335.600,193.847 335.600 C 194.177 335.600,194.336 335.420,194.200 335.200 C 194.064 334.980,193.683 334.800,193.353 334.800 C 193.023 334.800,192.864 334.980,193.000 335.200 M202.800 335.200 C 202.800 335.420,203.070 335.600,203.400 335.600 C 203.730 335.600,204.000 335.420,204.000 335.200 C 204.000 334.980,203.730 334.800,203.400 334.800 C 203.070 334.800,202.800 334.980,202.800 335.200 " stroke="none" fill="#245c74" fill-rule="evenodd"></path></g></svg>