<svg id="svg" version="1.1" xmlns="http://www.w3.org/2000/svg" xmlns:xlink="http://www.w3.org/1999/xlink" width="400" height="129.93630573248407" viewBox="0, 0, 400,129.93630573248407"><g id="svgg"><path id="path0" d="M23.862 26.386 L 23.500 26.771 23.500 61.107 L 23.500 95.442 23.886 95.804 L 24.271 96.167 33.202 96.167 C 41.719 96.167,42.182 96.151,43.232 95.827 L 44.333 95.487 44.333 82.680 L 44.333 69.874 44.971 69.217 C 46.434 67.709,50.953 67.939,51.823 69.565 C 51.942 69.786,52.333 70.099,52.692 70.261 C 53.429 70.594,54.443 71.633,54.587 72.204 C 54.640 72.413,54.924 72.741,55.219 72.934 C 55.764 73.291,55.977 73.637,56.750 75.417 C 56.989 75.967,57.400 76.642,57.664 76.917 C 58.223 77.500,58.912 78.832,59.086 79.667 C 59.259 80.499,59.729 81.341,60.329 81.896 C 60.975 82.493,61.361 83.241,61.823 84.795 C 62.096 85.716,62.325 86.136,62.775 86.545 C 63.428 87.138,63.831 87.845,64.444 89.472 C 64.667 90.065,65.146 90.887,65.508 91.299 C 65.870 91.710,66.167 92.113,66.167 92.193 C 66.167 92.274,66.473 92.978,66.847 93.758 C 68.046 96.258,67.535 96.167,80.258 96.167 C 90.287 96.167,90.462 96.161,90.890 95.825 L 91.324 95.483 90.910 94.383 C 90.669 93.743,90.223 92.986,89.842 92.574 C 89.454 92.152,89.089 91.530,88.943 91.037 C 88.594 89.862,88.223 89.200,87.395 88.276 C 86.809 87.623,86.575 87.155,86.163 85.821 C 85.768 84.542,85.501 83.996,84.973 83.386 C 84.267 82.569,83.798 81.649,83.584 80.660 C 83.407 79.840,82.887 78.874,82.515 78.675 C 82.063 78.433,81.205 76.971,80.869 75.873 C 80.634 75.104,80.454 74.845,79.858 74.427 C 79.400 74.104,78.980 73.610,78.719 73.083 C 78.491 72.625,77.880 71.830,77.361 71.318 C 76.841 70.805,76.243 70.150,76.031 69.862 C 75.800 69.548,75.134 69.087,74.370 68.711 C 73.100 68.086,73.092 68.078,72.381 66.697 C 71.300 64.598,71.562 64.170,74.333 63.510 C 77.278 62.810,77.685 62.635,78.251 61.832 C 78.601 61.335,79.092 60.929,79.760 60.585 C 80.424 60.243,80.825 59.912,80.980 59.579 C 81.283 58.925,81.785 58.377,82.500 57.921 C 82.959 57.628,83.146 57.344,83.379 56.588 C 83.660 55.676,84.623 53.903,85.329 53.000 C 85.983 52.164,86.213 49.779,86.123 44.777 C 86.031 39.649,85.897 38.855,84.897 37.548 C 84.214 36.654,83.742 35.652,83.568 34.727 C 83.481 34.266,83.203 33.873,82.476 33.187 C 81.939 32.680,81.500 32.178,81.500 32.071 C 81.500 31.825,80.075 30.500,79.811 30.500 C 79.702 30.500,79.298 30.156,78.912 29.736 C 78.140 28.895,76.846 28.403,74.083 27.900 C 72.595 27.628,71.953 27.415,71.320 26.980 C 69.919 26.017,69.468 26.000,45.878 26.000 L 24.225 26.000 23.862 26.386 M97.606 26.345 L 97.167 26.691 97.168 47.220 C 97.170 72.578,97.280 75.026,98.505 76.824 C 98.782 77.231,99.111 77.943,99.236 78.407 C 99.361 78.871,99.678 80.066,99.940 81.063 C 100.391 82.778,100.451 82.897,101.048 83.277 C 101.498 83.563,101.825 83.983,102.183 84.733 C 102.531 85.461,102.967 86.029,103.593 86.570 C 104.092 87.000,104.500 87.451,104.500 87.571 C 104.500 87.692,104.841 88.081,105.258 88.437 C 105.675 88.792,106.457 89.506,106.996 90.022 C 107.711 90.707,108.222 91.039,108.884 91.247 C 109.513 91.445,110.044 91.777,110.613 92.328 C 111.366 93.058,111.564 93.154,113.008 93.491 C 113.875 93.693,114.912 94.003,115.313 94.179 C 115.784 94.387,116.421 94.500,117.112 94.500 C 118.447 94.500,120.589 94.930,121.250 95.331 C 122.552 96.121,123.091 96.167,131.206 96.167 C 139.571 96.167,140.131 96.116,142.333 95.161 C 143.412 94.693,143.812 94.584,147.551 93.731 C 149.361 93.318,149.579 93.226,150.250 92.592 C 150.904 91.974,152.643 90.977,153.875 90.514 C 154.127 90.419,154.333 90.230,154.333 90.093 C 154.333 89.680,155.373 88.631,156.101 88.309 C 156.669 88.057,156.873 87.826,157.310 86.939 C 157.643 86.263,158.102 85.654,158.563 85.276 C 159.282 84.687,159.610 84.069,160.411 81.801 C 160.563 81.371,160.964 80.734,161.302 80.385 C 162.070 79.592,162.415 78.460,163.276 73.917 L 163.908 70.583 163.955 48.632 L 164.002 26.681 162.900 26.340 C 161.148 25.799,144.139 25.811,143.561 26.354 L 143.184 26.708 143.281 47.646 C 143.398 72.969,143.360 73.741,141.914 75.534 C 141.597 75.928,141.075 76.765,140.755 77.395 C 140.001 78.881,140.007 78.875,138.750 79.475 C 138.160 79.757,137.269 80.320,136.772 80.725 C 135.286 81.935,134.737 82.044,130.533 81.961 C 126.465 81.880,125.188 81.620,124.165 80.665 C 123.871 80.391,123.300 80.020,122.896 79.841 C 121.036 79.018,119.602 76.962,118.938 74.164 C 118.710 73.203,118.330 71.983,118.095 71.454 L 117.667 70.490 117.667 48.601 L 117.667 26.711 116.811 26.356 C 115.490 25.806,98.303 25.797,97.606 26.345 M181.696 26.386 L 181.333 26.771 181.333 61.151 L 181.333 95.530 181.708 95.843 C 182.288 96.326,235.621 96.345,236.058 95.862 C 236.499 95.373,236.476 80.181,236.033 79.780 C 235.761 79.533,234.263 79.504,219.908 79.462 C 202.355 79.412,203.595 79.492,202.256 78.316 L 201.667 77.799 201.667 52.253 L 201.667 26.708 200.844 26.354 C 200.039 26.008,199.826 26.000,191.040 26.000 L 182.058 26.000 181.696 26.386 M245.446 26.340 L 245.000 26.691 245.000 61.066 L 245.000 95.442 245.386 95.804 L 245.771 96.167 273.844 96.163 C 301.213 96.159,301.934 96.151,302.625 95.838 L 303.333 95.516 303.333 89.110 L 303.333 82.703 302.585 82.352 C 301.839 82.001,301.782 82.000,285.004 82.000 C 266.153 82.000,267.187 82.065,265.888 80.806 L 265.333 80.268 265.333 73.833 L 265.333 67.399 265.875 66.885 C 267.160 65.665,265.810 65.759,283.257 65.667 C 297.900 65.589,298.961 65.564,299.382 65.288 L 299.833 64.992 299.833 58.517 C 299.833 52.697,299.805 52.018,299.558 51.812 C 299.330 51.623,296.556 51.569,283.599 51.500 C 266.101 51.407,267.332 51.493,265.875 50.262 L 265.333 49.804 265.333 45.836 L 265.333 41.868 265.946 41.330 C 267.257 40.179,265.962 40.259,284.766 40.167 C 298.853 40.098,301.830 40.044,302.058 39.855 C 302.306 39.649,302.333 38.964,302.333 33.069 L 302.333 26.512 301.958 26.298 C 301.658 26.126,296.047 26.074,273.738 26.036 L 245.892 25.989 245.446 26.340 M335.835 26.347 C 334.965 26.534,334.137 26.792,333.996 26.921 C 333.515 27.356,332.560 27.647,331.236 27.763 C 330.511 27.827,329.727 27.974,329.494 28.092 C 329.262 28.209,328.774 28.355,328.411 28.416 C 326.968 28.660,326.128 29.045,325.160 29.910 C 324.474 30.522,323.892 30.874,323.215 31.085 C 321.983 31.470,321.718 31.639,321.493 32.184 C 321.267 32.729,320.583 33.381,319.917 33.687 C 319.574 33.845,319.280 34.203,318.982 34.828 C 318.744 35.329,318.214 36.042,317.806 36.411 C 317.168 36.989,317.010 37.271,316.683 38.417 C 316.473 39.150,316.129 40.350,315.918 41.083 C 315.158 43.720,315.000 44.514,314.998 45.706 C 314.996 46.946,315.357 48.961,315.767 50.000 C 315.894 50.321,316.102 51.033,316.229 51.583 C 316.635 53.335,317.138 54.368,317.933 55.083 C 318.341 55.450,318.879 56.162,319.129 56.666 C 319.483 57.378,319.732 57.650,320.251 57.890 C 321.041 58.257,321.771 58.908,322.102 59.542 C 322.234 59.794,322.420 60.000,322.515 60.000 C 323.069 60.000,326.103 61.458,326.657 61.991 C 327.204 62.516,327.514 62.647,329.018 62.985 C 331.544 63.553,332.169 63.772,333.410 64.520 C 334.463 65.156,334.663 65.211,336.982 65.508 C 338.334 65.682,339.847 65.905,340.345 66.005 C 343.106 66.558,345.116 67.070,345.359 67.282 C 345.706 67.585,346.949 67.972,348.250 68.183 C 349.901 68.450,350.828 68.828,351.513 69.513 C 351.865 69.865,352.475 70.314,352.868 70.511 C 353.816 70.987,354.457 71.606,354.651 72.236 C 355.629 75.404,354.952 78.446,353.044 79.463 C 352.506 79.750,351.819 80.220,351.517 80.509 C 350.186 81.781,349.557 81.917,345.000 81.917 C 340.355 81.917,339.661 81.785,338.430 80.674 C 338.056 80.337,337.377 79.922,336.921 79.752 C 335.053 79.057,333.650 77.144,333.007 74.417 L 332.576 72.583 331.663 72.257 C 329.166 71.363,321.059 71.773,320.198 72.837 C 319.858 73.256,318.411 73.486,316.067 73.495 C 314.670 73.500,314.499 73.537,313.900 73.972 C 312.707 74.839,312.726 74.702,313.400 77.540 C 314.527 82.286,314.493 82.187,315.252 82.926 C 315.729 83.391,316.088 83.974,316.402 84.794 C 316.688 85.543,317.054 86.161,317.387 86.457 C 317.678 86.715,318.140 87.225,318.414 87.588 C 318.687 87.952,319.137 88.437,319.414 88.666 C 319.690 88.894,320.411 89.582,321.016 90.194 C 321.816 91.003,322.305 91.358,322.810 91.494 C 323.201 91.599,323.857 91.994,324.311 92.397 C 325.053 93.055,325.262 93.143,326.934 93.488 C 327.933 93.694,329.034 94.006,329.380 94.181 C 329.835 94.411,330.360 94.500,331.266 94.500 C 332.539 94.500,332.979 94.629,333.588 95.181 C 334.490 96.000,335.488 96.083,344.417 96.083 C 353.590 96.083,353.562 96.086,354.709 95.060 C 355.302 94.529,355.400 94.500,356.592 94.500 C 357.444 94.500,358.022 94.410,358.383 94.221 C 358.677 94.068,359.817 93.738,360.917 93.488 C 362.733 93.075,362.979 92.974,363.595 92.386 C 363.968 92.029,364.598 91.640,364.996 91.521 C 366.543 91.057,370.463 87.452,371.652 85.399 C 371.965 84.859,372.533 84.117,372.913 83.750 C 373.668 83.023,373.527 83.476,374.935 77.250 C 375.649 74.090,375.621 71.728,374.840 69.333 C 374.676 68.829,374.295 67.629,373.993 66.667 C 373.539 65.221,373.335 64.813,372.816 64.321 C 372.471 63.993,372.006 63.314,371.784 62.811 C 371.552 62.287,371.148 61.724,370.837 61.490 C 370.539 61.266,369.862 60.664,369.334 60.152 C 368.633 59.474,368.153 59.160,367.561 58.995 C 367.008 58.841,366.479 58.514,365.900 57.968 C 365.030 57.147,363.966 56.663,362.491 56.416 C 361.609 56.269,360.557 55.803,359.415 55.054 C 358.691 54.579,358.283 54.461,356.336 54.167 C 355.023 53.969,353.829 53.691,353.458 53.497 C 352.986 53.252,352.493 53.166,351.537 53.165 C 350.329 53.164,350.207 53.129,349.548 52.605 C 348.635 51.879,347.937 51.712,344.917 51.494 C 341.864 51.274,341.321 51.151,339.417 50.245 C 338.592 49.852,337.729 49.479,337.500 49.415 C 335.927 48.976,334.651 47.464,334.318 45.641 L 334.115 44.532 335.349 43.145 C 338.026 40.136,338.093 40.110,343.083 40.201 C 346.738 40.267,347.693 40.477,348.862 41.471 C 349.150 41.716,349.880 42.179,350.485 42.500 C 351.563 43.073,351.594 43.108,352.167 44.432 C 353.592 47.726,354.051 47.910,360.578 47.788 C 366.029 47.686,366.353 47.635,367.375 46.724 C 367.975 46.190,368.057 46.167,369.342 46.167 C 370.813 46.167,371.302 45.992,372.059 45.196 L 372.535 44.695 372.262 43.556 C 372.112 42.929,371.879 41.948,371.744 41.375 C 371.015 38.265,370.972 38.155,370.088 37.052 C 369.612 36.458,369.086 35.585,368.920 35.111 C 368.548 34.054,368.414 33.876,367.763 33.583 C 367.052 33.262,366.787 33.020,366.299 32.250 C 365.971 31.731,365.683 31.516,365.003 31.278 C 364.426 31.077,363.780 30.648,363.099 30.014 C 362.211 29.188,361.907 29.015,360.909 28.763 C 360.272 28.602,359.262 28.331,358.667 28.161 C 358.071 27.991,357.058 27.804,356.417 27.746 C 355.468 27.660,355.133 27.548,354.626 27.147 C 353.331 26.121,353.310 26.119,345.000 26.060 C 337.873 26.009,337.322 26.026,335.835 26.347 M61.218 40.620 C 63.221 41.545,65.215 43.973,65.633 45.999 L 65.897 47.276 65.388 48.180 C 65.107 48.677,64.825 49.323,64.761 49.615 C 64.470 50.944,62.495 52.434,60.354 52.941 C 60.113 52.998,59.793 53.152,59.641 53.284 C 58.922 53.907,57.945 54.000,52.182 53.996 C 45.907 53.992,45.655 53.951,44.772 52.794 L 44.333 52.219 44.333 47.046 L 44.333 41.874 44.967 41.220 C 45.960 40.198,46.021 40.191,53.583 40.222 C 60.261 40.249,60.435 40.258,61.218 40.620 " stroke="none" fill="#f5f5f6" fill-rule="evenodd"></path><path id="path1" d="M23.480 25.980 L 22.833 26.627 22.833 61.083 L 22.833 95.539 23.480 96.186 L 24.127 96.833 33.046 96.833 C 42.684 96.833,44.119 96.727,44.958 95.954 L 45.333 95.609 45.333 82.835 L 45.333 70.062 45.792 69.635 C 47.025 68.484,49.313 68.635,50.852 69.968 C 51.254 70.316,51.933 70.803,52.361 71.050 C 52.841 71.326,53.320 71.790,53.611 72.261 C 53.871 72.680,54.376 73.374,54.735 73.802 C 55.093 74.230,55.679 75.218,56.037 75.998 C 56.396 76.777,56.980 77.792,57.335 78.252 C 57.691 78.713,58.216 79.703,58.502 80.452 C 58.788 81.201,59.243 82.099,59.513 82.448 C 60.509 83.737,61.020 84.604,61.259 85.417 C 61.519 86.294,61.884 86.962,62.817 88.260 C 63.128 88.694,63.631 89.645,63.933 90.373 C 64.235 91.100,64.664 91.933,64.885 92.223 C 65.106 92.513,65.634 93.393,66.059 94.178 C 67.549 96.934,67.009 96.833,80.287 96.833 C 91.439 96.833,91.089 96.864,91.877 95.808 C 92.254 95.304,91.537 93.178,90.559 91.896 C 90.246 91.486,89.699 90.521,89.343 89.751 C 88.988 88.982,88.350 87.866,87.926 87.272 C 87.502 86.678,86.981 85.678,86.767 85.051 C 86.289 83.644,85.766 82.605,85.151 81.837 C 84.892 81.514,84.487 80.735,84.251 80.105 C 83.663 78.539,83.447 78.152,82.645 77.225 C 82.264 76.785,81.734 75.935,81.467 75.337 C 81.176 74.685,80.686 73.965,80.242 73.537 C 79.835 73.144,79.354 72.533,79.173 72.179 C 78.729 71.308,76.114 68.647,75.094 68.028 C 74.289 67.539,74.264 67.499,73.965 66.234 C 73.604 64.704,73.413 64.911,76.065 63.972 C 77.882 63.330,78.125 63.193,78.982 62.327 C 79.496 61.807,80.142 61.266,80.417 61.123 C 81.213 60.711,83.603 57.985,84.051 56.979 C 84.270 56.486,84.734 55.712,85.082 55.259 C 87.785 51.736,87.829 39.366,85.151 36.000 C 84.896 35.679,84.529 34.991,84.336 34.471 C 84.124 33.899,83.643 33.142,83.118 32.552 C 82.641 32.016,82.100 31.390,81.917 31.161 C 80.820 29.788,78.947 28.465,77.309 27.908 C 76.676 27.693,75.944 27.364,75.681 27.177 C 75.106 26.768,71.585 25.902,69.167 25.576 C 67.733 25.383,63.498 25.339,45.772 25.337 L 24.127 25.333 23.480 25.980 M97.469 25.673 C 96.235 26.324,96.333 24.467,96.339 47.162 C 96.343 58.533,96.415 68.322,96.502 69.250 C 96.588 70.167,96.737 71.985,96.834 73.291 C 97.013 75.697,97.370 77.260,98.044 78.583 C 98.230 78.950,98.672 80.061,99.026 81.052 C 99.813 83.260,99.996 83.616,100.663 84.250 C 100.953 84.525,101.415 85.144,101.690 85.625 C 102.534 87.098,106.602 91.039,107.938 91.677 C 108.552 91.970,109.360 92.489,109.735 92.831 C 110.648 93.664,110.962 93.810,112.441 94.093 C 113.965 94.385,114.622 94.680,115.358 95.406 L 115.917 95.956 118.250 96.057 C 119.654 96.117,121.148 96.290,122.000 96.491 C 126.441 97.537,141.485 96.839,145.449 95.404 C 146.348 95.078,147.883 94.531,148.861 94.187 C 150.035 93.774,150.941 93.331,151.528 92.881 C 152.017 92.506,152.925 91.921,153.546 91.582 C 154.332 91.152,154.830 90.739,155.186 90.221 C 155.468 89.812,156.064 89.253,156.510 88.978 C 157.071 88.633,157.507 88.174,157.918 87.498 C 158.246 86.958,158.810 86.283,159.171 85.997 C 159.808 85.492,160.168 84.864,160.848 83.070 C 161.025 82.604,161.472 81.818,161.842 81.322 C 162.296 80.714,162.650 79.961,162.933 79.002 C 163.164 78.222,163.540 77.021,163.770 76.333 C 165.224 71.986,165.160 73.257,165.164 48.398 L 165.167 26.712 164.738 26.284 C 163.939 25.484,163.427 25.444,153.282 25.380 L 143.813 25.320 143.240 25.893 L 142.667 26.467 142.666 48.108 C 142.665 72.639,142.696 71.963,141.486 74.083 C 141.120 74.725,140.555 75.813,140.230 76.500 C 139.467 78.116,139.318 78.268,137.864 78.933 C 137.193 79.240,136.293 79.803,135.864 80.184 C 134.587 81.318,134.371 81.365,130.767 81.304 C 127.368 81.246,126.556 81.057,125.231 80.015 C 125.001 79.834,124.536 79.596,124.198 79.485 C 123.860 79.375,123.273 79.073,122.895 78.815 C 122.271 78.389,121.953 78.024,120.461 76.027 C 120.124 75.577,119.886 74.871,119.551 73.333 L 119.097 71.250 119.045 48.968 L 118.993 26.685 118.557 26.342 C 117.339 25.384,116.747 25.333,107.024 25.341 C 98.493 25.348,98.055 25.363,97.469 25.673 M181.750 25.524 C 181.567 25.627,181.210 25.903,180.958 26.137 L 180.500 26.562 180.500 61.083 L 180.500 95.604 180.958 96.032 C 181.210 96.267,181.580 96.543,181.781 96.646 C 182.045 96.782,189.470 96.833,208.983 96.833 L 235.822 96.833 236.411 96.244 L 237.000 95.656 237.000 87.833 L 237.000 80.011 236.411 79.422 L 235.822 78.833 220.369 78.830 C 205.732 78.826,204.882 78.810,204.250 78.520 C 202.870 77.886,203.006 80.677,202.959 52.077 L 202.917 26.597 202.353 26.217 C 202.043 26.008,201.518 25.745,201.186 25.632 C 200.356 25.350,182.240 25.250,181.750 25.524 M245.333 25.657 C 244.039 26.341,244.161 22.508,244.208 61.172 L 244.250 95.733 244.971 96.283 L 245.693 96.833 273.767 96.833 C 304.795 96.833,302.664 96.903,304.163 95.836 L 304.667 95.477 304.667 89.083 L 304.667 82.689 304.178 82.341 C 302.959 81.474,303.541 81.500,285.667 81.500 C 267.767 81.500,268.367 81.528,267.173 80.645 L 266.667 80.271 266.667 73.813 L 266.667 67.356 267.156 67.008 C 268.368 66.144,267.916 66.167,284.182 66.167 L 299.322 66.167 299.911 65.649 L 300.500 65.132 300.500 58.575 L 300.500 52.019 300.105 51.559 C 299.520 50.879,298.946 50.855,282.953 50.844 C 264.783 50.831,266.667 51.410,266.667 45.833 C 266.667 40.233,264.585 40.837,283.950 40.820 C 301.855 40.805,302.002 40.799,302.684 40.035 L 303.167 39.495 303.167 33.086 L 303.167 26.678 302.604 26.116 C 301.812 25.323,302.244 25.334,272.083 25.341 C 246.942 25.348,245.894 25.360,245.333 25.657 M334.917 25.750 C 334.275 25.868,333.450 26.042,333.083 26.137 C 332.717 26.233,331.892 26.362,331.250 26.426 C 330.343 26.516,329.937 26.649,329.423 27.023 C 329.059 27.288,327.939 27.761,326.922 28.078 C 325.382 28.559,324.965 28.765,324.366 29.341 C 323.972 29.719,323.185 30.242,322.617 30.502 C 321.509 31.011,318.609 33.653,317.820 34.874 C 317.598 35.217,317.361 35.498,317.294 35.499 C 316.996 35.502,316.290 36.902,315.818 38.426 C 315.536 39.338,315.055 40.534,314.750 41.084 C 313.468 43.400,313.519 48.291,314.851 50.735 C 315.205 51.385,315.496 52.004,315.498 52.111 C 315.506 52.837,316.580 55.000,317.326 55.796 C 317.779 56.279,318.309 56.957,318.503 57.302 C 318.697 57.647,319.213 58.174,319.650 58.472 C 320.087 58.770,320.776 59.353,321.181 59.767 C 321.643 60.240,322.414 60.754,323.255 61.149 C 323.991 61.494,324.983 62.046,325.460 62.374 C 326.426 63.038,327.033 63.280,329.316 63.911 C 330.177 64.148,331.302 64.599,331.816 64.912 C 332.947 65.601,334.183 65.927,336.500 66.147 C 337.875 66.277,338.707 66.475,340.382 67.073 C 341.554 67.490,343.054 67.912,343.715 68.009 C 347.515 68.569,349.353 69.122,350.654 70.100 C 351.194 70.506,351.974 70.988,352.388 71.171 C 353.284 71.567,353.951 72.307,354.081 73.047 C 354.132 73.342,354.235 73.924,354.310 74.341 C 354.637 76.183,353.701 78.238,352.214 78.941 C 351.731 79.170,350.904 79.679,350.376 80.073 C 348.612 81.391,348.553 81.408,345.536 81.471 C 342.422 81.537,341.104 81.269,339.583 80.259 C 339.125 79.954,338.244 79.468,337.627 79.178 C 335.677 78.263,334.050 76.078,333.654 73.841 C 333.245 71.530,332.964 71.419,327.083 71.250 C 323.344 71.143,321.715 71.261,320.299 71.742 C 319.852 71.894,318.576 72.028,316.994 72.089 C 312.703 72.255,312.186 72.448,311.753 74.050 C 311.423 75.268,311.557 76.002,312.504 78.170 C 312.765 78.767,313.180 80.064,313.428 81.051 C 313.829 82.650,313.958 82.936,314.615 83.666 C 315.020 84.117,315.651 85.098,316.017 85.847 C 316.841 87.535,320.285 91.068,322.189 92.180 C 322.809 92.542,323.363 92.913,323.420 93.005 C 323.653 93.383,324.901 93.843,326.311 94.071 C 327.935 94.334,328.528 94.575,329.380 95.323 C 329.875 95.758,330.072 95.814,331.340 95.876 C 332.116 95.914,333.162 96.071,333.667 96.224 C 335.327 96.727,338.554 96.877,345.999 96.797 L 353.083 96.721 354.379 96.277 C 355.285 95.966,356.015 95.833,356.811 95.833 C 357.755 95.833,358.002 95.774,358.266 95.483 C 358.901 94.781,359.945 94.326,361.496 94.075 C 363.059 93.822,363.755 93.559,364.507 92.935 C 364.740 92.742,365.519 92.283,366.238 91.917 C 367.810 91.115,370.754 88.328,372.136 86.333 C 372.612 85.646,373.255 84.731,373.565 84.301 C 373.875 83.871,374.355 82.859,374.632 82.051 C 374.908 81.244,375.360 79.977,375.634 79.235 C 376.353 77.297,376.540 75.832,376.474 72.667 L 376.417 69.917 375.612 68.167 C 375.170 67.204,374.621 65.929,374.391 65.333 C 374.162 64.737,373.791 64.025,373.567 63.750 C 373.344 63.475,372.866 62.800,372.505 62.250 C 371.653 60.949,369.681 59.180,368.324 58.498 C 367.733 58.202,366.907 57.640,366.487 57.250 C 365.957 56.756,365.436 56.459,364.778 56.273 C 364.257 56.127,363.424 55.892,362.926 55.752 C 362.429 55.612,361.660 55.220,361.219 54.883 C 360.256 54.145,358.860 53.725,356.866 53.571 C 355.217 53.444,354.091 53.037,353.405 52.321 C 352.974 51.871,352.846 51.833,351.745 51.833 C 350.973 51.833,350.205 51.713,349.568 51.491 C 348.993 51.291,347.786 51.085,346.667 50.994 C 343.160 50.711,341.933 50.420,340.686 49.572 C 340.364 49.354,339.535 49.052,338.842 48.901 C 336.318 48.351,335.536 47.353,335.503 44.639 C 335.498 44.155,337.999 41.653,338.917 41.225 C 339.691 40.864,339.961 40.836,342.715 40.835 C 345.961 40.833,346.287 40.911,347.664 42.018 C 347.987 42.278,348.739 42.686,349.334 42.926 C 350.753 43.498,351.249 43.995,351.673 45.268 C 352.161 46.734,352.620 47.352,353.584 47.833 L 354.417 48.250 360.113 48.300 C 365.755 48.349,365.821 48.346,367.030 47.947 C 367.991 47.629,368.758 47.522,370.647 47.441 C 373.468 47.319,373.404 47.357,373.663 45.693 C 373.881 44.290,373.874 44.261,372.534 40.667 C 372.346 40.162,372.000 39.106,371.766 38.319 C 371.448 37.252,371.175 36.700,370.693 36.152 C 370.338 35.748,369.854 35.042,369.619 34.583 C 369.079 33.529,366.629 31.261,365.224 30.515 C 364.660 30.216,363.966 29.681,363.681 29.327 C 363.296 28.847,362.941 28.619,362.290 28.431 C 361.810 28.292,360.885 28.027,360.236 27.843 C 359.586 27.658,358.784 27.292,358.452 27.028 C 357.985 26.657,357.614 26.528,356.794 26.451 C 356.213 26.397,355.076 26.161,354.267 25.926 L 352.796 25.500 344.440 25.518 C 338.421 25.531,335.757 25.596,334.917 25.750 M69.211 26.342 C 70.135 26.531,71.084 26.817,71.320 26.980 C 71.953 27.415,72.595 27.628,74.083 27.900 C 76.846 28.403,78.140 28.895,78.912 29.736 C 79.298 30.156,79.702 30.500,79.811 30.500 C 80.075 30.500,81.500 31.825,81.500 32.071 C 81.500 32.178,81.939 32.680,82.476 33.187 C 83.203 33.873,83.481 34.266,83.568 34.727 C 83.742 35.652,84.214 36.654,84.897 37.548 C 85.897 38.855,86.031 39.649,86.123 44.777 C 86.213 49.779,85.983 52.164,85.329 53.000 C 84.623 53.903,83.660 55.676,83.379 56.588 C 83.146 57.344,82.959 57.628,82.500 57.921 C 81.785 58.377,81.283 58.925,80.980 59.579 C 80.825 59.912,80.424 60.243,79.760 60.585 C 79.092 60.929,78.601 61.335,78.251 61.832 C 77.685 62.635,77.278 62.810,74.333 63.510 C 71.562 64.170,71.300 64.598,72.381 66.697 C 73.092 68.078,73.100 68.086,74.370 68.711 C 75.134 69.087,75.800 69.548,76.031 69.862 C 76.243 70.150,76.841 70.805,77.361 71.318 C 77.880 71.830,78.491 72.625,78.719 73.083 C 78.980 73.610,79.400 74.104,79.858 74.427 C 80.454 74.845,80.634 75.104,80.869 75.873 C 81.205 76.971,82.063 78.433,82.515 78.675 C 82.887 78.874,83.407 79.840,83.584 80.660 C 83.798 81.649,84.267 82.569,84.973 83.386 C 85.501 83.996,85.768 84.542,86.163 85.821 C 86.575 87.155,86.809 87.623,87.395 88.276 C 88.223 89.200,88.594 89.862,88.943 91.037 C 89.089 91.530,89.454 92.152,89.842 92.574 C 90.223 92.986,90.669 93.743,90.910 94.383 L 91.324 95.483 90.890 95.825 C 90.462 96.161,90.287 96.167,80.258 96.167 C 67.535 96.167,68.046 96.258,66.847 93.758 C 66.473 92.978,66.167 92.274,66.167 92.193 C 66.167 92.113,65.870 91.710,65.508 91.299 C 65.146 90.887,64.667 90.065,64.444 89.472 C 63.831 87.845,63.428 87.138,62.775 86.545 C 62.325 86.136,62.096 85.716,61.823 84.795 C 61.361 83.241,60.975 82.493,60.329 81.896 C 59.729 81.341,59.259 80.499,59.086 79.667 C 58.912 78.832,58.223 77.500,57.664 76.917 C 57.400 76.642,56.989 75.967,56.750 75.417 C 55.977 73.637,55.764 73.291,55.219 72.934 C 54.924 72.741,54.640 72.413,54.587 72.204 C 54.443 71.633,53.429 70.594,52.692 70.261 C 52.333 70.099,51.942 69.786,51.823 69.565 C 50.953 67.939,46.434 67.709,44.971 69.217 L 44.333 69.874 44.333 82.680 L 44.333 95.487 43.232 95.827 C 42.182 96.151,41.719 96.167,33.202 96.167 L 24.271 96.167 23.886 95.804 L 23.500 95.442 23.500 61.107 L 23.500 26.771 23.862 26.386 L 24.225 26.000 45.878 26.000 C 67.064 26.000,67.567 26.007,69.211 26.342 M116.811 26.356 L 117.667 26.711 117.667 48.601 L 117.667 70.490 118.095 71.454 C 118.330 71.983,118.710 73.203,118.938 74.164 C 119.602 76.962,121.036 79.018,122.896 79.841 C 123.300 80.020,123.871 80.391,124.165 80.665 C 125.188 81.620,126.465 81.880,130.533 81.961 C 134.737 82.044,135.286 81.935,136.772 80.725 C 137.269 80.320,138.160 79.757,138.750 79.475 C 140.007 78.875,140.001 78.881,140.755 77.395 C 141.075 76.765,141.597 75.928,141.914 75.534 C 143.360 73.741,143.398 72.969,143.281 47.646 L 143.184 26.708 143.561 26.354 C 144.139 25.811,161.148 25.799,162.900 26.340 L 164.002 26.681 163.955 48.632 L 163.908 70.583 163.276 73.917 C 162.415 78.460,162.070 79.592,161.302 80.385 C 160.964 80.734,160.563 81.371,160.411 81.801 C 159.610 84.069,159.282 84.687,158.563 85.276 C 158.102 85.654,157.643 86.263,157.310 86.939 C 156.873 87.826,156.669 88.057,156.101 88.309 C 155.373 88.631,154.333 89.680,154.333 90.093 C 154.333 90.230,154.127 90.419,153.875 90.514 C 152.643 90.977,150.904 91.974,150.250 92.592 C 149.579 93.226,149.361 93.318,147.551 93.731 C 143.812 94.584,143.412 94.693,142.333 95.161 C 140.131 96.116,139.571 96.167,131.206 96.167 C 123.091 96.167,122.552 96.121,121.250 95.331 C 120.589 94.930,118.447 94.500,117.112 94.500 C 116.421 94.500,115.784 94.387,115.313 94.179 C 114.912 94.003,113.875 93.693,113.008 93.491 C 111.564 93.154,111.366 93.058,110.613 92.328 C 110.044 91.777,109.513 91.445,108.884 91.247 C 108.222 91.039,107.711 90.707,106.996 90.022 C 106.457 89.506,105.675 88.792,105.258 88.437 C 104.841 88.081,104.500 87.692,104.500 87.571 C 104.500 87.451,104.092 87.000,103.593 86.570 C 102.967 86.029,102.531 85.461,102.183 84.733 C 101.825 83.983,101.498 83.563,101.048 83.277 C 100.451 82.897,100.391 82.778,99.940 81.063 C 99.678 80.066,99.361 78.871,99.236 78.407 C 99.111 77.943,98.782 77.231,98.505 76.824 C 97.280 75.026,97.170 72.578,97.168 47.220 L 97.167 26.691 97.606 26.345 C 98.303 25.797,115.490 25.806,116.811 26.356 M200.844 26.354 L 201.667 26.708 201.667 52.253 L 201.667 77.799 202.256 78.316 C 203.595 79.492,202.355 79.412,219.908 79.462 C 234.263 79.504,235.761 79.533,236.033 79.780 C 236.476 80.181,236.499 95.373,236.058 95.862 C 235.621 96.345,182.288 96.326,181.708 95.843 L 181.333 95.530 181.333 61.151 L 181.333 26.771 181.696 26.386 L 182.058 26.000 191.040 26.000 C 199.826 26.000,200.039 26.008,200.844 26.354 M301.958 26.298 L 302.333 26.512 302.333 33.069 C 302.333 38.964,302.306 39.649,302.058 39.855 C 301.830 40.044,298.853 40.098,284.766 40.167 C 265.962 40.259,267.257 40.179,265.946 41.330 L 265.333 41.868 265.333 45.836 L 265.333 49.804 265.875 50.262 C 267.332 51.493,266.101 51.407,283.599 51.500 C 296.556 51.569,299.330 51.623,299.558 51.812 C 299.805 52.018,299.833 52.697,299.833 58.517 L 299.833 64.992 299.382 65.288 C 298.961 65.564,297.900 65.589,283.257 65.667 C 265.810 65.759,267.160 65.665,265.875 66.885 L 265.333 67.399 265.333 73.833 L 265.333 80.268 265.888 80.806 C 267.187 82.065,266.153 82.000,285.004 82.000 C 301.782 82.000,301.839 82.001,302.585 82.352 L 303.333 82.703 303.333 89.110 L 303.333 95.516 302.625 95.838 C 301.934 96.151,301.213 96.159,273.844 96.163 L 245.771 96.167 245.386 95.804 L 245.000 95.442 245.000 61.066 L 245.000 26.691 245.446 26.340 L 245.892 25.989 273.738 26.036 C 296.047 26.074,301.658 26.126,301.958 26.298 M353.293 26.383 C 353.683 26.531,354.283 26.875,354.626 27.147 C 355.133 27.548,355.468 27.660,356.417 27.746 C 357.058 27.804,358.071 27.991,358.667 28.161 C 359.262 28.331,360.272 28.602,360.909 28.763 C 361.907 29.015,362.211 29.188,363.099 30.014 C 363.780 30.648,364.426 31.077,365.003 31.278 C 365.683 31.516,365.971 31.731,366.299 32.250 C 366.787 33.020,367.052 33.262,367.763 33.583 C 368.414 33.876,368.548 34.054,368.920 35.111 C 369.086 35.585,369.612 36.458,370.088 37.052 C 370.972 38.155,371.015 38.265,371.744 41.375 C 371.879 41.948,372.112 42.929,372.262 43.556 L 372.535 44.695 372.059 45.196 C 371.302 45.992,370.813 46.167,369.342 46.167 C 368.057 46.167,367.975 46.190,367.375 46.724 C 366.353 47.635,366.029 47.686,360.578 47.788 C 354.051 47.910,353.592 47.726,352.167 44.432 C 351.594 43.108,351.563 43.073,350.485 42.500 C 349.880 42.179,349.150 41.716,348.862 41.471 C 347.693 40.477,346.738 40.267,343.083 40.201 C 338.093 40.110,338.026 40.136,335.349 43.145 L 334.115 44.532 334.318 45.641 C 334.651 47.464,335.927 48.976,337.500 49.415 C 337.729 49.479,338.592 49.852,339.417 50.245 C 341.321 51.151,341.864 51.274,344.917 51.494 C 347.937 51.712,348.635 51.879,349.548 52.605 C 350.207 53.129,350.329 53.164,351.537 53.165 C 352.493 53.166,352.986 53.252,353.458 53.497 C 353.829 53.691,355.023 53.969,356.336 54.167 C 358.283 54.461,358.691 54.579,359.415 55.054 C 360.557 55.803,361.609 56.269,362.491 56.416 C 363.966 56.663,365.030 57.147,365.900 57.968 C 366.479 58.514,367.008 58.841,367.561 58.995 C 368.153 59.160,368.633 59.474,369.334 60.152 C 369.862 60.664,370.539 61.266,370.837 61.490 C 371.148 61.724,371.552 62.287,371.784 62.811 C 372.006 63.314,372.471 63.993,372.816 64.321 C 373.335 64.813,373.539 65.221,373.993 66.667 C 374.295 67.629,374.676 68.829,374.840 69.333 C 375.621 71.728,375.649 74.090,374.935 77.250 C 373.527 83.476,373.668 83.023,372.913 83.750 C 372.533 84.117,371.965 84.859,371.652 85.399 C 370.463 87.452,366.543 91.057,364.996 91.521 C 364.598 91.640,363.968 92.029,363.595 92.386 C 362.979 92.974,362.733 93.075,360.917 93.488 C 359.817 93.738,358.677 94.068,358.383 94.221 C 358.022 94.410,357.444 94.500,356.592 94.500 C 355.400 94.500,355.302 94.529,354.709 95.060 C 353.562 96.086,353.590 96.083,344.417 96.083 C 335.488 96.083,334.490 96.000,333.588 95.181 C 332.979 94.629,332.539 94.500,331.266 94.500 C 330.360 94.500,329.835 94.411,329.380 94.181 C 329.034 94.006,327.933 93.694,326.934 93.488 C 325.262 93.143,325.053 93.055,324.311 92.397 C 323.857 91.994,323.201 91.599,322.810 91.494 C 322.305 91.358,321.816 91.003,321.016 90.194 C 320.411 89.582,319.690 88.894,319.414 88.666 C 319.137 88.437,318.687 87.952,318.414 87.588 C 318.140 87.225,317.678 86.715,317.387 86.457 C 317.054 86.161,316.688 85.543,316.402 84.794 C 316.088 83.974,315.729 83.391,315.252 82.926 C 314.493 82.187,314.527 82.286,313.400 77.540 C 312.726 74.702,312.707 74.839,313.900 73.972 C 314.499 73.537,314.670 73.500,316.067 73.495 C 318.411 73.486,319.858 73.256,320.198 72.837 C 321.059 71.773,329.166 71.363,331.663 72.257 L 332.576 72.583 333.007 74.417 C 333.650 77.144,335.053 79.057,336.921 79.752 C 337.377 79.922,338.056 80.337,338.430 80.674 C 339.661 81.785,340.355 81.917,345.000 81.917 C 349.557 81.917,350.186 81.781,351.517 80.509 C 351.819 80.220,352.506 79.750,353.044 79.463 C 354.952 78.446,355.629 75.404,354.651 72.236 C 354.457 71.606,353.816 70.987,352.868 70.511 C 352.475 70.314,351.865 69.865,351.513 69.513 C 350.828 68.828,349.901 68.450,348.250 68.183 C 346.949 67.972,345.706 67.585,345.359 67.282 C 345.116 67.070,343.106 66.558,340.345 66.005 C 339.847 65.905,338.334 65.682,336.982 65.508 C 334.663 65.211,334.463 65.156,333.410 64.520 C 332.169 63.772,331.544 63.553,329.018 62.985 C 327.514 62.647,327.204 62.516,326.657 61.991 C 326.103 61.458,323.069 60.000,322.515 60.000 C 322.420 60.000,322.234 59.794,322.102 59.542 C 321.771 58.908,321.041 58.257,320.251 57.890 C 319.732 57.650,319.483 57.378,319.129 56.666 C 318.879 56.162,318.341 55.450,317.933 55.083 C 317.138 54.368,316.635 53.335,316.229 51.583 C 316.102 51.033,315.894 50.321,315.767 50.000 C 315.357 48.961,314.996 46.946,314.998 45.706 C 315.000 44.514,315.158 43.720,315.918 41.083 C 316.129 40.350,316.473 39.150,316.683 38.417 C 317.010 37.271,317.168 36.989,317.806 36.411 C 318.214 36.042,318.744 35.329,318.982 34.828 C 319.280 34.203,319.574 33.845,319.917 33.687 C 320.583 33.381,321.267 32.729,321.493 32.184 C 321.718 31.639,321.983 31.470,323.215 31.085 C 323.892 30.874,324.474 30.522,325.160 29.910 C 326.128 29.045,326.968 28.660,328.411 28.416 C 328.774 28.355,329.262 28.209,329.494 28.092 C 329.727 27.974,330.511 27.827,331.236 27.763 C 332.560 27.647,333.515 27.356,333.996 26.921 C 334.997 26.014,351.137 25.565,353.293 26.383 M46.176 40.380 C 45.860 40.483,45.316 40.861,44.967 41.220 L 44.333 41.874 44.333 47.046 L 44.333 52.219 44.772 52.794 C 45.655 53.951,45.907 53.992,52.182 53.996 C 57.945 54.000,58.922 53.907,59.641 53.284 C 59.793 53.152,60.113 52.998,60.354 52.941 C 62.495 52.434,64.470 50.944,64.761 49.615 C 64.825 49.323,65.107 48.677,65.388 48.180 L 65.897 47.276 65.633 45.999 C 65.215 43.973,63.221 41.545,61.218 40.620 C 60.282 40.188,47.399 39.983,46.176 40.380 M60.707 41.417 C 64.158 43.676,64.889 45.153,64.174 48.427 C 63.713 50.533,63.176 51.079,61.194 51.453 C 60.163 51.648,59.808 51.801,59.279 52.279 C 58.123 53.324,58.058 53.333,52.214 53.333 C 44.737 53.332,45.333 53.873,45.333 47.083 L 45.333 42.062 45.792 41.637 C 46.678 40.814,46.542 40.828,53.430 40.873 L 59.943 40.917 60.707 41.417 " stroke="none" fill="#8c94a6" fill-rule="evenodd"></path><path id="path2" d="M0.000 64.917 L 0.000 129.833 200.000 129.833 L 400.000 129.833 400.000 64.917 L 400.000 0.000 200.000 0.000 L 0.000 0.000 0.000 64.917 M72.800 24.668 C 75.958 24.860,76.373 25.005,76.848 26.077 C 77.213 26.904,77.299 26.949,78.899 27.175 C 80.366 27.381,81.474 27.917,81.824 28.590 C 82.250 29.409,82.717 29.895,83.422 30.250 C 84.147 30.615,84.800 31.720,85.170 33.209 C 85.330 33.852,85.496 34.086,86.058 34.461 C 87.087 35.145,87.297 35.732,87.585 38.738 C 87.786 40.835,87.903 41.452,88.162 41.781 C 89.518 43.506,89.532 48.282,88.184 49.736 C 87.947 49.992,87.813 50.523,87.673 51.750 C 87.213 55.790,87.007 56.326,85.809 56.589 C 85.254 56.711,85.088 56.974,84.935 57.976 C 84.709 59.454,82.680 61.793,81.276 62.194 C 80.422 62.438,80.167 62.623,80.167 62.998 C 80.167 63.519,79.510 64.152,78.783 64.331 C 78.398 64.426,77.802 64.581,77.458 64.675 L 76.833 64.847 76.833 66.144 C 76.833 67.599,76.970 67.821,78.253 68.465 C 78.894 68.786,79.100 69.069,80.062 70.952 C 80.165 71.155,80.413 71.408,80.612 71.515 C 81.227 71.845,82.132 73.343,82.366 74.417 C 82.575 75.379,82.614 75.431,83.387 75.801 C 84.309 76.241,84.638 76.811,85.104 78.776 C 85.366 79.879,85.437 79.997,86.046 80.339 C 86.833 80.781,87.155 81.448,87.603 83.566 C 87.898 84.961,87.953 85.071,88.537 85.440 C 89.243 85.886,89.595 86.361,89.755 87.083 C 90.003 88.208,90.438 89.102,90.960 89.560 C 91.721 90.229,92.276 91.245,92.475 92.333 C 92.713 93.641,92.888 94.022,93.566 94.700 C 94.332 95.466,94.333 95.461,93.273 96.463 C 91.933 97.731,92.512 97.683,79.046 97.630 C 65.673 97.578,66.261 97.632,65.744 96.409 C 65.610 96.092,65.388 95.569,65.251 95.246 C 65.114 94.923,64.833 94.588,64.626 94.502 C 63.687 94.109,63.115 93.101,62.923 91.500 C 62.762 90.153,62.566 89.787,61.821 89.442 C 60.956 89.042,60.576 88.284,60.338 86.489 C 60.153 85.089,59.832 84.500,59.254 84.500 C 58.618 84.500,57.789 82.881,57.396 80.867 C 57.313 80.445,57.137 80.240,56.639 79.986 C 55.941 79.630,55.711 79.239,55.228 77.583 C 55.038 76.933,54.753 76.408,54.413 76.083 C 53.502 75.211,53.015 74.424,52.809 73.490 C 52.549 72.313,52.468 72.223,51.481 72.011 C 50.368 71.773,49.777 71.447,48.994 70.641 C 48.292 69.917,47.269 69.541,46.881 69.863 C 46.710 70.005,46.667 72.624,46.667 82.850 C 46.667 97.208,46.707 96.692,45.529 97.279 C 44.668 97.707,24.081 97.844,23.086 97.429 C 21.915 96.939,22.000 99.789,22.000 61.047 C 22.001 21.891,21.896 25.151,23.167 24.718 C 23.914 24.463,68.688 24.418,72.800 24.668 M119.364 24.862 C 120.567 25.408,120.478 23.555,120.547 49.519 C 120.616 75.750,120.567 74.673,121.704 75.207 C 122.442 75.554,122.744 75.977,123.008 77.036 C 123.226 77.914,123.237 77.920,124.968 78.164 C 126.654 78.401,127.833 79.133,127.833 79.943 C 127.833 80.365,128.659 80.500,131.229 80.500 C 134.043 80.500,134.178 80.457,134.490 79.472 C 134.696 78.822,135.166 78.420,135.941 78.234 C 137.739 77.802,139.070 76.289,139.489 74.200 C 139.726 73.019,140.076 72.377,140.898 71.612 L 141.583 70.974 141.667 48.355 C 141.759 23.344,141.678 25.074,142.770 24.659 C 143.410 24.416,164.246 24.474,165.066 24.722 C 165.423 24.829,165.873 25.129,166.066 25.388 L 166.417 25.858 166.461 48.221 C 166.518 76.401,166.512 76.514,164.928 77.493 C 164.400 77.819,164.364 77.913,163.956 79.989 C 163.516 82.231,163.209 82.875,162.150 83.783 C 161.879 84.015,161.581 84.585,161.354 85.306 C 160.951 86.582,160.659 86.929,159.719 87.247 C 159.173 87.433,159.047 87.573,158.828 88.246 C 158.508 89.228,157.999 89.765,157.255 89.905 C 156.649 90.018,156.167 90.525,156.167 91.050 C 156.167 91.477,155.310 92.294,154.730 92.421 C 153.881 92.607,153.558 92.848,153.262 93.518 C 152.887 94.368,152.128 94.754,150.353 94.997 C 148.558 95.243,148.388 95.317,148.030 96.004 C 147.197 97.599,145.427 97.743,128.155 97.628 C 116.720 97.551,115.678 97.521,115.106 97.250 C 114.508 96.966,114.000 96.285,114.000 95.768 C 114.000 95.367,113.698 95.278,111.604 95.064 C 109.384 94.837,108.975 94.648,108.415 93.588 C 108.129 93.047,107.953 92.921,107.209 92.731 C 105.531 92.302,104.000 91.272,104.000 90.574 C 104.000 90.348,103.478 89.898,102.500 89.279 C 102.179 89.076,101.804 88.687,101.666 88.413 C 101.168 87.429,100.668 86.733,99.765 85.769 C 99.002 84.953,98.814 84.629,98.655 83.852 C 98.313 82.191,98.159 81.838,97.666 81.583 C 96.444 80.951,96.087 79.509,95.849 74.247 C 95.735 71.721,95.630 70.736,95.437 70.386 C 94.785 69.206,94.484 68.463,94.332 67.658 C 94.018 66.006,94.115 26.886,94.434 26.359 C 94.736 25.859,96.122 24.807,96.701 24.639 C 97.645 24.364,118.724 24.571,119.364 24.862 M203.382 24.897 C 204.687 25.546,204.579 23.180,204.617 51.985 C 204.644 72.881,204.691 77.746,204.867 77.858 C 204.986 77.933,212.096 77.996,220.667 77.998 C 237.817 78.001,237.100 77.958,237.620 79.000 C 237.921 79.602,237.921 96.065,237.620 96.667 C 237.086 97.736,239.101 97.666,208.833 97.665 C 178.615 97.665,180.696 97.750,179.292 96.451 L 178.333 95.563 178.333 61.104 C 178.333 39.714,178.393 26.533,178.491 26.350 C 178.752 25.863,180.161 24.794,180.724 24.656 C 182.006 24.342,202.709 24.563,203.382 24.897 M303.102 24.867 C 304.062 25.393,304.083 25.574,304.083 33.083 C 304.083 40.593,304.062 40.774,303.102 41.300 C 302.626 41.560,301.185 41.590,285.583 41.667 C 276.233 41.712,268.490 41.811,268.375 41.885 C 268.006 42.124,268.083 49.483,268.458 49.768 C 268.696 49.948,271.618 49.990,284.205 49.995 C 301.396 50.001,300.704 49.957,301.237 51.080 C 301.610 51.865,301.633 65.026,301.263 65.911 C 300.746 67.148,301.761 67.074,284.250 67.167 C 275.633 67.212,268.490 67.311,268.375 67.385 C 267.974 67.644,268.084 80.111,268.489 80.327 C 268.705 80.443,274.308 80.500,285.477 80.500 C 305.040 80.500,305.169 80.509,306.007 81.883 C 306.510 82.709,306.510 95.458,306.007 96.284 C 305.131 97.721,306.442 97.664,273.917 97.664 C 242.189 97.665,244.423 97.752,243.058 96.461 L 242.167 95.618 242.167 61.038 L 242.167 26.458 243.011 25.687 C 243.475 25.264,244.132 24.828,244.469 24.720 C 245.590 24.362,302.439 24.504,303.102 24.867 M356.500 24.791 C 358.526 24.937,359.156 25.219,359.588 26.176 C 359.925 26.924,360.402 27.165,361.550 27.171 C 363.450 27.180,364.690 27.800,364.922 28.858 C 365.045 29.419,365.332 29.598,366.511 29.851 C 367.734 30.113,370.202 32.489,370.504 33.694 C 370.647 34.265,370.796 34.496,371.063 34.563 C 372.003 34.799,373.104 37.289,373.171 39.333 C 373.176 39.471,373.420 39.733,373.715 39.917 C 375.538 41.052,375.826 47.315,374.113 48.571 C 373.507 49.016,368.601 49.247,359.750 49.247 C 351.140 49.247,351.332 49.334,350.428 44.979 C 350.346 44.585,350.193 44.506,348.878 44.176 C 347.292 43.778,346.407 43.327,346.252 42.839 C 346.197 42.668,346.001 42.334,345.814 42.097 L 345.476 41.667 342.770 41.667 C 339.806 41.667,339.702 41.696,339.196 42.667 C 339.005 43.034,338.619 43.389,338.154 43.626 C 337.112 44.158,337.000 44.375,337.000 45.859 C 337.000 47.404,337.049 47.450,338.859 47.589 C 340.951 47.749,342.071 48.113,342.976 48.927 C 343.955 49.807,344.503 49.947,347.500 50.082 C 354.081 50.377,354.225 50.411,354.675 51.775 C 354.901 52.459,354.896 52.458,358.227 52.657 C 361.301 52.842,362.197 53.143,362.706 54.163 C 362.990 54.731,363.035 54.751,364.835 55.105 C 366.935 55.518,367.430 55.777,367.809 56.666 C 368.048 57.225,368.175 57.320,368.915 57.486 C 370.219 57.779,371.688 58.670,372.116 59.428 C 372.318 59.784,372.977 60.582,373.582 61.202 C 374.747 62.395,375.060 62.955,375.242 64.167 C 375.407 65.275,375.627 65.712,376.204 66.083 C 377.494 66.913,377.811 68.266,377.824 73.000 C 377.839 78.773,377.502 80.689,376.334 81.467 C 375.585 81.966,375.541 82.055,375.267 83.628 C 374.959 85.390,374.272 86.544,373.343 86.859 C 373.249 86.891,372.922 87.404,372.616 88.000 C 372.164 88.878,371.920 89.154,371.327 89.459 C 370.411 89.928,370.257 90.083,369.792 91.006 C 369.473 91.638,369.239 91.837,368.230 92.333 C 367.571 92.657,366.812 93.185,366.523 93.521 C 365.716 94.456,364.653 94.826,362.292 94.990 C 360.219 95.134,359.667 95.361,359.667 96.071 C 359.667 97.396,357.718 97.582,343.917 97.574 C 329.464 97.567,328.712 97.487,328.136 95.894 C 327.882 95.193,327.804 95.167,325.435 94.998 C 323.136 94.834,321.663 94.271,321.118 93.348 C 320.947 93.058,320.367 92.589,319.759 92.249 C 318.608 91.605,318.427 91.436,318.020 90.626 C 317.871 90.331,317.487 89.922,317.167 89.718 C 316.846 89.513,316.411 89.224,316.200 89.075 C 315.735 88.747,315.097 87.355,314.836 86.095 C 314.688 85.385,314.573 85.167,314.344 85.167 C 313.413 85.167,312.851 84.187,312.406 81.790 C 312.121 80.247,312.076 80.146,311.543 79.832 C 310.224 79.053,309.591 73.477,310.632 71.803 C 311.367 70.621,313.806 70.413,326.917 70.419 C 334.419 70.423,334.148 70.312,334.751 73.611 C 335.007 75.014,335.067 75.154,335.498 75.333 C 336.143 75.599,336.587 76.127,336.834 76.917 C 337.148 77.923,337.389 78.108,338.545 78.228 C 339.852 78.365,340.972 78.916,341.469 79.667 C 341.996 80.464,342.047 80.475,345.208 80.488 C 348.284 80.501,348.118 80.553,348.887 79.342 C 349.163 78.907,349.578 78.623,350.588 78.175 C 352.904 77.150,353.469 76.185,353.128 73.842 L 352.936 72.525 352.363 72.418 C 350.527 72.073,348.667 70.989,348.667 70.264 C 348.667 69.843,347.769 69.669,344.707 69.496 C 340.071 69.234,339.285 69.035,338.740 67.980 C 338.369 67.263,338.105 67.195,334.984 67.015 C 331.475 66.812,330.662 66.596,329.569 65.579 C 328.828 64.888,328.635 64.800,327.337 64.561 C 324.443 64.026,323.802 63.722,323.266 62.631 C 323.135 62.363,322.737 62.139,321.926 61.875 C 320.632 61.455,320.067 61.017,319.913 60.315 C 319.828 59.931,319.677 59.804,319.128 59.656 C 318.267 59.425,317.578 58.741,317.350 57.894 C 317.205 57.358,317.063 57.196,316.582 57.022 C 315.830 56.750,315.554 56.318,315.072 54.662 C 314.781 53.659,314.559 53.221,314.184 52.905 C 313.909 52.674,313.474 52.057,313.217 51.534 L 312.750 50.583 312.750 45.833 L 312.750 41.083 313.217 40.133 C 313.474 39.610,313.894 39.005,314.152 38.788 C 314.629 38.386,315.055 37.327,315.252 36.048 C 315.474 34.614,319.691 30.212,321.198 29.842 C 322.653 29.485,322.738 29.431,323.127 28.611 C 323.591 27.635,324.190 27.342,325.989 27.212 C 327.502 27.104,327.916 26.917,328.296 26.172 C 328.874 25.036,329.176 24.937,332.720 24.726 C 336.151 24.522,353.404 24.569,356.500 24.791 M46.867 41.867 C 46.556 42.177,46.583 52.057,46.895 52.315 C 47.057 52.450,48.633 52.492,52.353 52.461 L 57.583 52.417 58.000 51.583 C 58.534 50.516,59.083 50.242,60.988 50.093 C 62.903 49.943,62.844 50.039,62.844 47.079 C 62.844 44.311,62.772 44.113,61.701 43.941 C 60.884 43.809,60.398 43.448,60.005 42.677 C 59.691 42.061,59.646 42.037,58.417 41.855 C 56.638 41.590,47.133 41.600,46.867 41.867 " stroke="none" fill="#04235c" fill-rule="evenodd"></path><path id="path3" d="M23.167 24.718 C 21.896 25.151,22.001 21.891,22.000 61.047 C 22.000 99.789,21.915 96.939,23.086 97.429 C 24.081 97.844,44.668 97.707,45.529 97.279 C 46.707 96.692,46.667 97.208,46.667 82.850 C 46.667 72.624,46.710 70.005,46.881 69.863 C 47.269 69.541,48.292 69.917,48.994 70.641 C 49.777 71.447,50.368 71.773,51.481 72.011 C 52.468 72.223,52.549 72.313,52.809 73.490 C 53.015 74.424,53.502 75.211,54.413 76.083 C 54.753 76.408,55.038 76.933,55.228 77.583 C 55.711 79.239,55.941 79.630,56.639 79.986 C 57.137 80.240,57.313 80.445,57.396 80.867 C 57.789 82.881,58.618 84.500,59.254 84.500 C 59.832 84.500,60.153 85.089,60.338 86.489 C 60.576 88.284,60.956 89.042,61.821 89.442 C 62.566 89.787,62.762 90.153,62.923 91.500 C 63.115 93.101,63.687 94.109,64.626 94.502 C 64.833 94.588,65.114 94.923,65.251 95.246 C 65.388 95.569,65.610 96.092,65.744 96.409 C 66.261 97.632,65.673 97.578,79.046 97.630 C 92.512 97.683,91.933 97.731,93.273 96.463 C 94.333 95.461,94.332 95.466,93.566 94.700 C 92.888 94.022,92.713 93.641,92.475 92.333 C 92.276 91.245,91.721 90.229,90.960 89.560 C 90.438 89.102,90.003 88.208,89.755 87.083 C 89.595 86.361,89.243 85.886,88.537 85.440 C 87.953 85.071,87.898 84.961,87.603 83.566 C 87.155 81.448,86.833 80.781,86.046 80.339 C 85.437 79.997,85.366 79.879,85.104 78.776 C 84.638 76.811,84.309 76.241,83.387 75.801 C 82.614 75.431,82.575 75.379,82.366 74.417 C 82.132 73.343,81.227 71.845,80.612 71.515 C 80.413 71.408,80.165 71.155,80.062 70.952 C 79.100 69.069,78.894 68.786,78.253 68.465 C 76.970 67.821,76.833 67.599,76.833 66.144 L 76.833 64.847 77.458 64.675 C 77.802 64.581,78.398 64.426,78.783 64.331 C 79.510 64.152,80.167 63.519,80.167 62.998 C 80.167 62.623,80.422 62.438,81.276 62.194 C 82.680 61.793,84.709 59.454,84.935 57.976 C 85.088 56.974,85.254 56.711,85.809 56.589 C 87.007 56.326,87.213 55.790,87.673 51.750 C 87.813 50.523,87.947 49.992,88.184 49.736 C 89.532 48.282,89.518 43.506,88.162 41.781 C 87.903 41.452,87.786 40.835,87.585 38.738 C 87.297 35.732,87.087 35.145,86.058 34.461 C 85.496 34.086,85.330 33.852,85.170 33.209 C 84.800 31.720,84.147 30.615,83.422 30.250 C 82.717 29.895,82.250 29.409,81.824 28.590 C 81.474 27.917,80.366 27.381,78.899 27.175 C 77.299 26.949,77.213 26.904,76.848 26.077 C 76.373 25.005,75.958 24.860,72.800 24.668 C 68.688 24.418,23.914 24.463,23.167 24.718 M96.701 24.639 C 96.122 24.807,94.736 25.859,94.434 26.359 C 94.115 26.886,94.018 66.006,94.332 67.658 C 94.484 68.463,94.785 69.206,95.437 70.386 C 95.630 70.736,95.735 71.721,95.849 74.247 C 96.087 79.509,96.444 80.951,97.666 81.583 C 98.159 81.838,98.313 82.191,98.655 83.852 C 98.814 84.629,99.002 84.953,99.765 85.769 C 100.668 86.733,101.168 87.429,101.666 88.413 C 101.804 88.687,102.179 89.076,102.500 89.279 C 103.478 89.898,104.000 90.348,104.000 90.574 C 104.000 91.272,105.531 92.302,107.209 92.731 C 107.953 92.921,108.129 93.047,108.415 93.588 C 108.975 94.648,109.384 94.837,111.604 95.064 C 113.698 95.278,114.000 95.367,114.000 95.768 C 114.000 96.285,114.508 96.966,115.106 97.250 C 115.678 97.521,116.720 97.551,128.155 97.628 C 145.427 97.743,147.197 97.599,148.030 96.004 C 148.388 95.317,148.558 95.243,150.353 94.997 C 152.128 94.754,152.887 94.368,153.262 93.518 C 153.558 92.848,153.881 92.607,154.730 92.421 C 155.310 92.294,156.167 91.477,156.167 91.050 C 156.167 90.525,156.649 90.018,157.255 89.905 C 157.999 89.765,158.508 89.228,158.828 88.246 C 159.047 87.573,159.173 87.433,159.719 87.247 C 160.659 86.929,160.951 86.582,161.354 85.306 C 161.581 84.585,161.879 84.015,162.150 83.783 C 163.209 82.875,163.516 82.231,163.956 79.989 C 164.364 77.913,164.400 77.819,164.928 77.493 C 166.512 76.514,166.518 76.401,166.461 48.221 L 166.417 25.858 166.066 25.388 C 165.873 25.129,165.423 24.829,165.066 24.722 C 164.246 24.474,143.410 24.416,142.770 24.659 C 141.678 25.074,141.759 23.344,141.667 48.355 L 141.583 70.974 140.898 71.612 C 140.076 72.377,139.726 73.019,139.489 74.200 C 139.070 76.289,137.739 77.802,135.941 78.234 C 135.166 78.420,134.696 78.822,134.490 79.472 C 134.178 80.457,134.043 80.500,131.229 80.500 C 128.659 80.500,127.833 80.365,127.833 79.943 C 127.833 79.133,126.654 78.401,124.968 78.164 C 123.237 77.920,123.226 77.914,123.008 77.036 C 122.744 75.977,122.442 75.554,121.704 75.207 C 120.567 74.673,120.616 75.750,120.547 49.519 C 120.478 23.555,120.567 25.408,119.364 24.862 C 118.724 24.571,97.645 24.364,96.701 24.639 M180.724 24.656 C 180.161 24.794,178.752 25.863,178.491 26.350 C 178.393 26.533,178.333 39.714,178.333 61.104 L 178.333 95.563 179.292 96.451 C 180.696 97.750,178.615 97.665,208.833 97.665 C 239.101 97.666,237.086 97.736,237.620 96.667 C 237.921 96.065,237.921 79.602,237.620 79.000 C 237.100 77.958,237.817 78.001,220.667 77.998 C 212.096 77.996,204.986 77.933,204.867 77.858 C 204.691 77.746,204.644 72.881,204.617 51.985 C 204.579 23.180,204.687 25.546,203.382 24.897 C 202.709 24.563,182.006 24.342,180.724 24.656 M244.469 24.720 C 244.132 24.828,243.475 25.264,243.011 25.687 L 242.167 26.458 242.167 61.038 L 242.167 95.618 243.058 96.461 C 244.423 97.752,242.189 97.665,273.917 97.664 C 306.442 97.664,305.131 97.721,306.007 96.284 C 306.510 95.458,306.510 82.709,306.007 81.883 C 305.169 80.509,305.040 80.500,285.477 80.500 C 274.308 80.500,268.705 80.443,268.489 80.327 C 268.084 80.111,267.974 67.644,268.375 67.385 C 268.490 67.311,275.633 67.212,284.250 67.167 C 301.761 67.074,300.746 67.148,301.263 65.911 C 301.633 65.026,301.610 51.865,301.237 51.080 C 300.704 49.957,301.396 50.001,284.205 49.995 C 271.618 49.990,268.696 49.948,268.458 49.768 C 268.083 49.483,268.006 42.124,268.375 41.885 C 268.490 41.811,276.233 41.712,285.583 41.667 C 301.185 41.590,302.626 41.560,303.102 41.300 C 304.062 40.774,304.083 40.593,304.083 33.083 C 304.083 25.574,304.062 25.393,303.102 24.867 C 302.439 24.504,245.590 24.362,244.469 24.720 M332.720 24.726 C 329.176 24.937,328.874 25.036,328.296 26.172 C 327.916 26.917,327.502 27.104,325.989 27.212 C 324.190 27.342,323.591 27.635,323.127 28.611 C 322.738 29.431,322.653 29.485,321.198 29.842 C 319.691 30.212,315.474 34.614,315.252 36.048 C 315.055 37.327,314.629 38.386,314.152 38.788 C 313.894 39.005,313.474 39.610,313.217 40.133 L 312.750 41.083 312.750 45.833 L 312.750 50.583 313.217 51.534 C 313.474 52.057,313.909 52.674,314.184 52.905 C 314.559 53.221,314.781 53.659,315.072 54.662 C 315.554 56.318,315.830 56.750,316.582 57.022 C 317.063 57.196,317.205 57.358,317.350 57.894 C 317.578 58.741,318.267 59.425,319.128 59.656 C 319.677 59.804,319.828 59.931,319.913 60.315 C 320.067 61.017,320.632 61.455,321.926 61.875 C 322.737 62.139,323.135 62.363,323.266 62.631 C 323.802 63.722,324.443 64.026,327.337 64.561 C 328.635 64.800,328.828 64.888,329.569 65.579 C 330.662 66.596,331.475 66.812,334.984 67.015 C 338.105 67.195,338.369 67.263,338.740 67.980 C 339.285 69.035,340.071 69.234,344.707 69.496 C 347.769 69.669,348.667 69.843,348.667 70.264 C 348.667 70.989,350.527 72.073,352.363 72.418 L 352.936 72.525 353.128 73.842 C 353.469 76.185,352.904 77.150,350.588 78.175 C 349.578 78.623,349.163 78.907,348.887 79.342 C 348.118 80.553,348.284 80.501,345.208 80.488 C 342.047 80.475,341.996 80.464,341.469 79.667 C 340.972 78.916,339.852 78.365,338.545 78.228 C 337.389 78.108,337.148 77.923,336.834 76.917 C 336.587 76.127,336.143 75.599,335.498 75.333 C 335.067 75.154,335.007 75.014,334.751 73.611 C 334.148 70.312,334.419 70.423,326.917 70.419 C 318.672 70.416,312.597 70.623,311.715 70.938 C 309.653 71.675,309.518 78.637,311.543 79.832 C 312.076 80.146,312.121 80.247,312.406 81.790 C 312.851 84.187,313.413 85.167,314.344 85.167 C 314.573 85.167,314.688 85.385,314.836 86.095 C 315.097 87.355,315.735 88.747,316.200 89.075 C 316.411 89.224,316.846 89.513,317.167 89.718 C 317.487 89.922,317.871 90.331,318.020 90.626 C 318.427 91.436,318.608 91.605,319.759 92.249 C 320.367 92.589,320.947 93.058,321.118 93.348 C 321.663 94.271,323.136 94.834,325.435 94.998 C 327.804 95.167,327.882 95.193,328.136 95.894 C 328.712 97.487,329.464 97.567,343.917 97.574 C 357.718 97.582,359.667 97.396,359.667 96.071 C 359.667 95.361,360.219 95.134,362.292 94.990 C 364.653 94.826,365.716 94.456,366.523 93.521 C 366.812 93.185,367.571 92.657,368.230 92.333 C 369.239 91.837,369.473 91.638,369.792 91.006 C 370.257 90.083,370.411 89.928,371.327 89.459 C 371.920 89.154,372.164 88.878,372.616 88.000 C 372.922 87.404,373.249 86.891,373.343 86.859 C 374.272 86.544,374.959 85.390,375.267 83.628 C 375.541 82.055,375.585 81.966,376.334 81.467 C 377.502 80.689,377.839 78.773,377.824 73.000 C 377.811 68.266,377.494 66.913,376.204 66.083 C 375.627 65.712,375.407 65.275,375.242 64.167 C 375.060 62.955,374.747 62.395,373.582 61.202 C 372.977 60.582,372.318 59.784,372.116 59.428 C 371.688 58.670,370.219 57.779,368.915 57.486 C 368.175 57.320,368.048 57.225,367.809 56.666 C 367.430 55.777,366.935 55.518,364.835 55.105 C 363.035 54.751,362.990 54.731,362.706 54.163 C 362.197 53.143,361.301 52.842,358.227 52.657 C 354.896 52.458,354.901 52.459,354.675 51.775 C 354.225 50.411,354.081 50.377,347.500 50.082 C 344.503 49.947,343.955 49.807,342.976 48.927 C 342.071 48.113,340.951 47.749,338.859 47.589 C 337.049 47.450,337.000 47.404,337.000 45.859 C 337.000 44.375,337.112 44.158,338.154 43.626 C 338.619 43.389,339.005 43.034,339.196 42.667 C 339.702 41.696,339.806 41.667,342.770 41.667 L 345.476 41.667 345.814 42.097 C 346.001 42.334,346.197 42.668,346.252 42.839 C 346.407 43.327,347.292 43.778,348.878 44.176 C 350.193 44.506,350.346 44.585,350.428 44.979 C 351.332 49.334,351.140 49.247,359.750 49.247 C 368.601 49.247,373.507 49.016,374.113 48.571 C 375.826 47.315,375.538 41.052,373.715 39.917 C 373.420 39.733,373.176 39.471,373.171 39.333 C 373.104 37.289,372.003 34.799,371.063 34.563 C 370.796 34.496,370.647 34.265,370.504 33.694 C 370.202 32.489,367.734 30.113,366.511 29.851 C 365.332 29.598,365.045 29.419,364.922 28.858 C 364.690 27.800,363.450 27.180,361.550 27.171 C 360.402 27.165,359.925 26.924,359.588 26.176 C 359.156 25.219,358.526 24.937,356.500 24.791 C 353.404 24.569,336.151 24.522,332.720 24.726 M69.225 25.172 C 72.909 25.521,74.997 25.963,75.644 26.531 C 76.280 27.090,76.860 27.365,78.414 27.845 C 80.459 28.476,84.818 33.060,84.832 34.593 C 84.833 34.690,85.170 35.165,85.582 35.647 C 88.119 38.619,88.114 52.812,85.576 55.526 C 85.165 55.964,84.578 56.876,84.270 57.551 C 83.909 58.343,83.525 58.912,83.189 59.151 C 82.902 59.355,82.438 59.855,82.158 60.262 C 81.860 60.695,81.359 61.146,80.950 61.349 C 80.565 61.540,79.837 62.125,79.333 62.650 C 78.508 63.509,78.243 63.666,76.667 64.233 L 74.917 64.863 74.971 66.185 L 75.026 67.506 75.705 67.853 C 76.592 68.306,78.955 70.780,79.550 71.880 C 79.806 72.354,80.286 72.965,80.615 73.236 C 80.996 73.551,81.418 74.176,81.772 74.954 C 82.079 75.627,82.658 76.531,83.060 76.963 C 83.911 77.881,84.198 78.400,84.581 79.716 C 84.759 80.329,85.104 80.959,85.534 81.456 C 86.274 82.311,86.640 83.064,87.154 84.791 C 87.382 85.555,87.692 86.151,88.091 86.591 C 88.721 87.286,89.355 88.440,89.998 90.057 C 90.210 90.592,90.487 91.070,90.613 91.118 C 91.432 91.432,92.780 95.226,92.333 95.960 C 91.588 97.185,91.771 97.167,80.288 97.167 C 66.732 97.167,67.214 97.249,65.821 94.704 C 65.433 93.996,64.875 93.133,64.579 92.786 C 64.284 92.440,63.910 91.727,63.748 91.203 C 63.349 89.914,62.926 89.104,62.265 88.367 C 61.586 87.609,61.291 87.037,60.927 85.772 C 60.613 84.680,60.099 83.791,59.420 83.167 C 58.866 82.657,58.449 81.865,58.098 80.657 C 57.939 80.112,57.555 79.408,57.149 78.916 C 56.434 78.050,55.968 77.205,55.351 75.649 C 55.139 75.113,54.781 74.567,54.510 74.367 C 54.251 74.175,53.869 73.658,53.661 73.218 C 53.148 72.129,52.592 71.567,51.563 71.095 C 51.085 70.877,50.575 70.515,50.428 70.291 C 49.808 69.344,47.309 68.892,46.424 69.566 L 45.833 70.017 45.833 82.864 L 45.833 95.711 45.268 96.244 C 44.377 97.084,43.271 97.167,33.033 97.167 C 23.230 97.167,23.482 97.193,22.827 96.117 C 22.307 95.265,22.315 26.923,22.834 26.082 C 23.545 24.932,21.929 25.008,45.833 25.004 C 59.370 25.002,68.091 25.064,69.225 25.172 M116.928 25.180 C 118.015 25.377,119.221 25.992,119.426 26.454 C 119.498 26.617,119.536 36.350,119.510 48.083 C 119.461 69.988,119.458 69.856,120.115 73.583 C 120.424 75.336,120.491 75.491,121.398 76.553 C 122.977 78.402,123.391 78.739,124.461 79.042 C 125.060 79.212,125.735 79.550,126.076 79.849 C 127.168 80.808,128.006 81.000,131.093 81.000 C 134.210 81.000,134.439 80.936,135.591 79.751 C 136.071 79.257,136.685 78.881,137.663 78.483 C 138.974 77.949,139.072 77.874,139.374 77.167 C 140.174 75.294,140.866 73.926,141.236 73.486 C 142.252 72.278,142.234 72.767,142.178 48.734 C 142.121 24.361,142.041 26.080,143.261 25.326 C 143.814 24.984,143.931 24.981,153.619 25.053 C 164.365 25.133,164.282 25.126,165.105 25.949 L 165.678 26.522 165.617 49.469 C 165.551 74.464,165.551 74.474,164.631 75.719 C 164.086 76.456,163.903 76.924,163.507 78.594 C 163.087 80.362,162.685 81.288,162.109 81.818 C 161.853 82.053,161.418 82.884,161.060 83.818 C 160.538 85.184,160.319 85.538,159.556 86.255 C 159.065 86.716,158.420 87.461,158.123 87.911 C 157.826 88.360,157.246 88.964,156.833 89.252 C 156.421 89.539,155.812 90.132,155.480 90.569 C 155.093 91.080,154.498 91.574,153.814 91.952 C 153.229 92.275,152.446 92.819,152.074 93.160 C 151.391 93.787,150.917 94.000,148.703 94.675 C 148.035 94.879,147.162 95.262,146.763 95.526 C 145.841 96.137,144.021 96.587,141.167 96.911 C 137.977 97.273,124.130 97.273,121.833 96.911 C 120.962 96.774,119.213 96.613,117.945 96.555 L 115.640 96.448 115.136 95.820 C 114.535 95.072,113.461 94.584,112.083 94.432 C 110.849 94.296,109.849 93.829,109.353 93.157 C 109.124 92.847,108.506 92.432,107.779 92.098 C 106.674 91.591,105.717 90.848,104.186 89.311 C 102.483 87.601,101.664 86.648,101.326 85.984 C 101.121 85.580,100.607 84.870,100.183 84.405 C 99.652 83.823,99.318 83.254,99.107 82.572 C 98.938 82.028,98.399 80.758,97.908 79.750 C 96.944 77.768,96.500 75.985,96.500 74.091 C 96.500 73.520,96.351 71.710,96.168 70.068 C 95.666 65.556,95.649 27.054,96.149 26.235 C 96.906 24.993,96.840 25.000,106.928 25.000 C 112.643 25.000,116.301 25.066,116.928 25.180 M201.381 25.272 C 202.301 25.481,202.704 25.670,203.122 26.089 L 203.667 26.633 203.667 52.203 L 203.667 77.772 204.314 78.136 L 204.962 78.500 220.323 78.500 C 237.279 78.500,236.330 78.440,237.007 79.550 C 237.512 80.378,237.512 95.289,237.007 96.117 C 236.317 97.248,238.487 97.167,208.883 97.163 C 179.076 97.159,181.275 97.242,180.362 96.082 L 180.000 95.622 180.000 61.083 L 180.000 26.545 180.362 26.085 C 181.216 24.999,181.133 25.008,191.134 25.004 C 198.916 25.001,200.352 25.038,201.381 25.272 M300.890 25.141 C 302.319 25.250,302.379 25.272,302.931 25.874 L 303.500 26.495 303.500 33.083 L 303.500 39.672 302.940 40.283 C 302.144 41.151,302.452 41.137,284.523 41.153 L 268.629 41.167 267.978 41.532 L 267.327 41.898 267.372 45.806 L 267.417 49.714 267.887 50.065 C 268.356 50.415,268.418 50.417,283.895 50.500 C 301.194 50.593,299.932 50.501,300.674 51.717 C 301.195 52.573,301.175 64.594,300.651 65.443 C 299.989 66.514,300.885 66.453,283.917 66.584 C 268.897 66.700,268.400 66.713,267.875 67.032 L 267.333 67.361 267.333 73.828 L 267.333 80.295 267.792 80.606 C 268.229 80.903,269.014 80.920,285.333 81.001 C 304.285 81.095,303.445 81.043,304.752 82.191 L 305.333 82.701 305.333 89.069 C 305.333 96.186,305.400 95.779,304.120 96.441 C 302.692 97.180,303.415 97.163,273.833 97.161 C 242.484 97.159,244.890 97.250,244.025 96.035 L 243.667 95.532 243.667 61.083 L 243.667 26.635 244.025 26.131 C 244.889 24.918,242.630 25.006,272.583 25.018 C 287.342 25.024,300.079 25.080,300.890 25.141 M354.576 25.513 C 355.396 25.689,356.473 25.833,356.968 25.833 C 357.794 25.833,357.933 25.892,358.665 26.551 C 359.506 27.306,359.949 27.486,362.041 27.921 C 363.269 28.176,363.368 28.231,364.041 29.037 C 364.533 29.626,365.056 30.025,365.751 30.342 C 366.312 30.598,367.052 31.118,367.436 31.525 C 367.813 31.924,368.421 32.489,368.788 32.782 C 369.154 33.074,369.623 33.673,369.830 34.113 C 370.036 34.553,370.559 35.299,370.991 35.772 C 371.654 36.497,371.836 36.850,372.150 38.024 C 372.620 39.776,373.127 41.094,373.601 41.793 C 374.168 42.627,374.423 44.390,374.204 45.954 C 373.934 47.875,373.859 47.919,370.579 48.065 C 369.133 48.130,367.492 48.290,366.933 48.422 C 366.156 48.605,364.599 48.662,360.322 48.664 C 352.530 48.668,352.128 48.524,351.246 45.417 C 350.960 44.409,350.457 43.667,350.061 43.667 C 349.501 43.667,347.873 42.891,347.264 42.333 C 346.043 41.217,345.843 41.167,342.624 41.167 C 339.212 41.167,339.069 41.223,337.134 43.314 L 336.018 44.521 336.109 45.385 C 336.336 47.534,336.778 48.072,338.549 48.350 C 339.945 48.568,340.654 48.804,341.250 49.246 C 342.439 50.129,343.534 50.409,346.500 50.591 C 347.462 50.649,348.723 50.803,349.302 50.932 C 349.881 51.061,350.937 51.167,351.650 51.167 L 352.946 51.167 353.563 51.833 C 354.461 52.804,355.276 53.167,356.558 53.167 C 358.850 53.167,360.663 53.672,361.701 54.601 C 362.084 54.943,362.687 55.252,363.285 55.413 C 365.814 56.095,366.056 56.201,366.903 56.992 C 367.369 57.427,368.184 57.979,368.714 58.218 C 369.898 58.753,372.000 60.609,372.690 61.730 C 372.970 62.186,373.405 62.764,373.656 63.015 C 373.907 63.266,374.392 64.170,374.733 65.024 C 375.074 65.879,375.576 66.913,375.847 67.323 C 377.524 69.855,377.455 77.932,375.735 80.483 C 375.525 80.794,375.116 81.785,374.827 82.685 C 374.444 83.878,374.133 84.516,373.680 85.036 C 373.338 85.429,372.730 86.237,372.330 86.833 C 371.127 88.623,368.118 91.467,366.619 92.232 C 365.919 92.589,365.187 93.051,364.991 93.260 C 364.450 93.835,363.224 94.285,361.833 94.418 C 360.234 94.570,359.681 94.806,358.733 95.741 L 357.963 96.500 356.661 96.500 C 355.935 96.500,354.894 96.629,354.305 96.792 C 352.726 97.228,335.740 97.224,333.833 96.787 C 333.146 96.629,331.980 96.500,331.242 96.500 L 329.901 96.500 329.242 95.819 C 328.351 94.899,327.634 94.567,326.250 94.435 C 324.686 94.286,323.679 93.935,322.898 93.268 C 322.542 92.964,321.912 92.545,321.500 92.337 C 320.014 91.591,316.120 87.443,315.595 86.047 C 315.265 85.173,314.924 84.625,314.343 84.042 C 313.524 83.218,313.287 82.661,312.844 80.512 C 312.741 80.015,312.366 79.077,312.009 78.429 C 311.119 76.812,310.877 75.557,311.154 74.007 C 311.540 71.849,311.817 71.725,316.750 71.503 C 318.620 71.419,320.376 71.258,320.750 71.135 C 321.522 70.882,329.650 70.823,331.550 71.056 C 333.209 71.259,333.684 71.778,334.079 73.812 C 334.393 75.430,334.245 75.181,336.480 77.841 C 337.005 78.465,337.282 78.632,338.523 79.072 C 338.948 79.223,339.623 79.600,340.023 79.910 C 342.377 81.733,347.863 81.727,349.766 79.898 C 350.141 79.538,351.018 78.982,351.714 78.663 C 353.126 78.016,353.333 77.752,353.745 76.072 C 354.297 73.822,353.642 72.114,351.989 71.496 C 351.446 71.293,350.668 70.834,350.262 70.475 C 349.017 69.380,347.650 68.978,343.833 68.582 C 342.044 68.397,341.324 68.189,339.690 67.388 C 338.223 66.668,338.018 66.614,336.273 66.492 C 333.667 66.309,332.263 65.954,331.139 65.191 C 330.476 64.741,329.710 64.428,328.479 64.104 C 326.160 63.495,325.887 63.383,324.905 62.643 C 324.441 62.293,323.499 61.747,322.813 61.430 C 321.670 60.902,320.667 60.150,320.667 59.821 C 320.667 59.748,320.198 59.385,319.624 59.014 C 318.865 58.523,318.434 58.092,318.036 57.428 C 317.736 56.927,317.266 56.356,316.991 56.160 C 316.399 55.739,315.879 54.754,315.263 52.885 C 315.015 52.134,314.592 51.243,314.323 50.904 C 313.560 49.943,313.435 49.229,313.435 45.833 C 313.435 42.428,313.559 41.724,314.334 40.750 C 314.641 40.363,315.033 39.473,315.352 38.436 C 315.965 36.445,316.307 35.731,316.919 35.167 C 317.167 34.938,317.619 34.362,317.924 33.888 C 318.263 33.362,318.768 32.857,319.222 32.591 C 319.630 32.352,320.141 31.894,320.357 31.575 C 320.633 31.167,321.160 30.792,322.121 30.318 C 323.041 29.864,323.658 29.431,324.000 29.000 C 324.530 28.331,325.187 28.039,326.967 27.679 C 328.088 27.452,328.607 27.177,329.324 26.431 C 329.797 25.939,330.018 25.833,330.569 25.833 C 330.938 25.833,332.330 25.685,333.662 25.504 C 337.878 24.929,351.887 24.935,354.576 25.513 M46.375 41.588 L 45.833 42.024 45.833 47.087 L 45.833 52.150 46.391 52.575 L 46.948 53.000 52.235 53.000 C 58.079 53.000,57.793 53.049,59.097 51.827 C 59.913 51.063,59.991 51.029,61.222 50.914 C 62.924 50.754,63.349 50.318,63.655 48.421 C 64.126 45.500,63.606 43.820,61.973 42.986 C 61.620 42.806,61.238 42.504,61.124 42.316 C 60.518 41.313,60.148 41.260,53.250 41.204 L 46.917 41.152 46.375 41.588 M58.417 41.855 C 59.646 42.037,59.691 42.061,60.005 42.677 C 60.398 43.448,60.884 43.809,61.701 43.941 C 62.772 44.113,62.844 44.311,62.844 47.079 C 62.844 50.039,62.903 49.943,60.988 50.093 C 59.083 50.242,58.534 50.516,58.000 51.583 L 57.583 52.417 52.353 52.461 C 48.633 52.492,47.057 52.450,46.895 52.315 C 46.583 52.057,46.556 42.177,46.867 41.867 C 47.133 41.600,56.638 41.590,58.417 41.855 " stroke="none" fill="#44547c" fill-rule="evenodd"></path><path id="path4" d="M23.709 25.274 C 23.412 25.421,23.018 25.784,22.834 26.082 C 22.315 26.923,22.307 95.265,22.827 96.117 C 23.482 97.193,23.230 97.167,33.033 97.167 C 43.271 97.167,44.377 97.084,45.268 96.244 L 45.833 95.711 45.833 82.864 L 45.833 70.017 46.424 69.566 C 47.309 68.892,49.808 69.344,50.428 70.291 C 50.575 70.515,51.085 70.877,51.563 71.095 C 52.592 71.567,53.148 72.129,53.661 73.218 C 53.869 73.658,54.251 74.175,54.510 74.367 C 54.781 74.567,55.139 75.113,55.351 75.649 C 55.968 77.205,56.434 78.050,57.149 78.916 C 57.555 79.408,57.939 80.112,58.098 80.657 C 58.449 81.865,58.866 82.657,59.420 83.167 C 60.099 83.791,60.613 84.680,60.927 85.772 C 61.291 87.037,61.586 87.609,62.265 88.367 C 62.926 89.104,63.349 89.914,63.748 91.203 C 63.910 91.727,64.284 92.440,64.579 92.786 C 64.875 93.133,65.433 93.996,65.821 94.704 C 67.214 97.249,66.732 97.167,80.288 97.167 C 91.771 97.167,91.588 97.185,92.333 95.960 C 92.780 95.226,91.432 91.432,90.613 91.118 C 90.487 91.070,90.210 90.592,89.998 90.057 C 89.355 88.440,88.721 87.286,88.091 86.591 C 87.692 86.151,87.382 85.555,87.154 84.791 C 86.640 83.064,86.274 82.311,85.534 81.456 C 85.104 80.959,84.759 80.329,84.581 79.716 C 84.198 78.400,83.911 77.881,83.060 76.963 C 82.658 76.531,82.079 75.627,81.772 74.954 C 81.418 74.176,80.996 73.551,80.615 73.236 C 80.286 72.965,79.806 72.354,79.550 71.880 C 78.955 70.780,76.592 68.306,75.705 67.853 L 75.026 67.506 74.971 66.185 L 74.917 64.863 76.667 64.233 C 78.243 63.666,78.508 63.509,79.333 62.650 C 79.837 62.125,80.565 61.540,80.950 61.349 C 81.359 61.146,81.860 60.695,82.158 60.262 C 82.438 59.855,82.902 59.355,83.189 59.151 C 83.525 58.912,83.909 58.343,84.270 57.551 C 84.578 56.876,85.165 55.964,85.576 55.526 C 88.114 52.812,88.119 38.619,85.582 35.647 C 85.170 35.165,84.833 34.690,84.832 34.593 C 84.818 33.060,80.459 28.476,78.414 27.845 C 76.860 27.365,76.280 27.090,75.644 26.531 C 74.997 25.963,72.909 25.521,69.225 25.172 C 65.908 24.857,24.365 24.951,23.709 25.274 M97.190 25.360 C 95.709 26.093,95.834 24.100,95.835 46.917 C 95.836 65.940,95.855 67.253,96.168 70.068 C 96.351 71.710,96.500 73.520,96.500 74.091 C 96.500 75.985,96.944 77.768,97.908 79.750 C 98.399 80.758,98.938 82.028,99.107 82.572 C 99.318 83.254,99.652 83.823,100.183 84.405 C 100.607 84.870,101.121 85.580,101.326 85.984 C 101.664 86.648,102.483 87.601,104.186 89.311 C 105.717 90.848,106.674 91.591,107.779 92.098 C 108.506 92.432,109.124 92.847,109.353 93.157 C 109.849 93.829,110.849 94.296,112.083 94.432 C 113.461 94.584,114.535 95.072,115.136 95.820 L 115.640 96.448 117.945 96.555 C 119.213 96.613,120.962 96.774,121.833 96.911 C 124.130 97.273,137.977 97.273,141.167 96.911 C 144.021 96.587,145.841 96.137,146.763 95.526 C 147.162 95.262,148.035 94.879,148.703 94.675 C 150.917 94.000,151.391 93.787,152.074 93.160 C 152.446 92.819,153.229 92.275,153.814 91.952 C 154.498 91.574,155.093 91.080,155.480 90.569 C 155.812 90.132,156.421 89.539,156.833 89.252 C 157.246 88.964,157.826 88.360,158.123 87.911 C 158.420 87.461,159.065 86.716,159.556 86.255 C 160.319 85.538,160.538 85.184,161.060 83.818 C 161.418 82.884,161.853 82.053,162.109 81.818 C 162.685 81.288,163.087 80.362,163.507 78.594 C 163.903 76.924,164.086 76.456,164.631 75.719 C 165.551 74.474,165.551 74.464,165.617 49.469 L 165.678 26.522 165.105 25.949 C 164.282 25.126,164.365 25.133,153.619 25.053 C 143.931 24.981,143.814 24.984,143.261 25.326 C 142.041 26.080,142.121 24.361,142.178 48.734 C 142.234 72.767,142.252 72.278,141.236 73.486 C 140.866 73.926,140.174 75.294,139.374 77.167 C 139.072 77.874,138.974 77.949,137.663 78.483 C 136.685 78.881,136.071 79.257,135.591 79.751 C 133.837 81.556,128.087 81.615,126.076 79.849 C 125.735 79.550,125.060 79.212,124.461 79.042 C 122.452 78.472,120.558 76.092,120.115 73.583 C 119.458 69.856,119.461 69.988,119.510 48.083 C 119.536 36.350,119.498 26.617,119.426 26.454 C 119.221 25.992,118.015 25.377,116.928 25.180 C 114.793 24.792,98.027 24.945,97.190 25.360 M181.404 25.316 C 181.030 25.486,180.561 25.832,180.362 26.085 L 180.000 26.545 180.000 61.083 L 180.000 95.622 180.362 96.082 C 181.275 97.242,179.076 97.159,208.883 97.163 C 238.487 97.167,236.317 97.248,237.007 96.117 C 237.512 95.289,237.512 80.378,237.007 79.550 C 236.330 78.440,237.279 78.500,220.323 78.500 L 204.962 78.500 204.314 78.136 L 203.667 77.772 203.667 52.203 L 203.667 26.633 203.122 26.089 C 202.095 25.061,201.413 25.000,191.134 25.004 C 182.684 25.007,182.038 25.028,181.404 25.316 M245.067 25.318 C 244.691 25.488,244.222 25.854,244.025 26.131 L 243.667 26.635 243.667 61.083 L 243.667 95.532 244.025 96.035 C 244.890 97.250,242.484 97.159,273.833 97.161 C 303.415 97.163,302.692 97.180,304.120 96.441 C 305.400 95.779,305.333 96.186,305.333 89.069 L 305.333 82.701 304.752 82.191 C 303.445 81.043,304.285 81.095,285.333 81.001 C 269.014 80.920,268.229 80.903,267.792 80.606 L 267.333 80.295 267.333 73.828 L 267.333 67.361 267.875 67.032 C 268.400 66.713,268.897 66.700,283.917 66.584 C 300.885 66.453,299.989 66.514,300.651 65.443 C 301.175 64.594,301.195 52.573,300.674 51.717 C 299.932 50.501,301.194 50.593,283.895 50.500 C 268.418 50.417,268.356 50.415,267.887 50.065 L 267.417 49.714 267.372 45.806 L 267.327 41.898 267.978 41.532 L 268.629 41.167 284.523 41.153 C 302.452 41.137,302.144 41.151,302.940 40.283 L 303.500 39.672 303.500 33.083 L 303.500 26.495 302.931 25.874 C 302.132 25.002,303.144 25.031,272.583 25.018 C 246.758 25.008,245.724 25.019,245.067 25.318 M336.833 25.129 C 336.421 25.153,334.994 25.322,333.662 25.504 C 332.330 25.685,330.938 25.833,330.569 25.833 C 330.018 25.833,329.797 25.939,329.324 26.431 C 328.607 27.177,328.088 27.452,326.967 27.679 C 325.187 28.039,324.530 28.331,324.000 29.000 C 323.658 29.431,323.041 29.864,322.121 30.318 C 321.160 30.792,320.633 31.167,320.357 31.575 C 320.141 31.894,319.630 32.352,319.222 32.591 C 318.768 32.857,318.263 33.362,317.924 33.888 C 317.619 34.362,317.167 34.938,316.919 35.167 C 316.307 35.731,315.965 36.445,315.352 38.436 C 315.033 39.473,314.641 40.363,314.334 40.750 C 313.009 42.417,313.002 49.241,314.323 50.904 C 314.592 51.243,315.015 52.134,315.263 52.885 C 315.879 54.754,316.399 55.739,316.991 56.160 C 317.266 56.356,317.736 56.927,318.036 57.428 C 318.434 58.092,318.865 58.523,319.624 59.014 C 320.198 59.385,320.667 59.748,320.667 59.821 C 320.667 60.150,321.670 60.902,322.813 61.430 C 323.499 61.747,324.441 62.293,324.905 62.643 C 325.887 63.383,326.160 63.495,328.479 64.104 C 329.710 64.428,330.476 64.741,331.139 65.191 C 332.263 65.954,333.667 66.309,336.273 66.492 C 338.018 66.614,338.223 66.668,339.690 67.388 C 341.324 68.189,342.044 68.397,343.833 68.582 C 347.650 68.978,349.017 69.380,350.262 70.475 C 350.668 70.834,351.446 71.293,351.989 71.496 C 353.642 72.114,354.297 73.822,353.745 76.072 C 353.333 77.752,353.126 78.016,351.714 78.663 C 351.018 78.982,350.141 79.538,349.766 79.898 C 347.863 81.727,342.377 81.733,340.023 79.910 C 339.623 79.600,338.948 79.223,338.523 79.072 C 337.282 78.632,337.005 78.465,336.480 77.841 C 334.245 75.181,334.393 75.430,334.079 73.812 C 333.684 71.778,333.209 71.259,331.550 71.056 C 329.650 70.823,321.522 70.882,320.750 71.135 C 320.376 71.258,318.620 71.419,316.750 71.503 C 311.817 71.725,311.540 71.849,311.154 74.007 C 310.877 75.557,311.119 76.812,312.009 78.429 C 312.366 79.077,312.741 80.015,312.844 80.512 C 313.287 82.661,313.524 83.218,314.343 84.042 C 314.924 84.625,315.265 85.173,315.595 86.047 C 316.120 87.443,320.014 91.591,321.500 92.337 C 321.912 92.545,322.542 92.964,322.898 93.268 C 323.679 93.935,324.686 94.286,326.250 94.435 C 327.634 94.567,328.351 94.899,329.242 95.819 L 329.901 96.500 331.242 96.500 C 331.980 96.500,333.146 96.629,333.833 96.787 C 335.740 97.224,352.726 97.228,354.305 96.792 C 354.894 96.629,355.935 96.500,356.661 96.500 L 357.963 96.500 358.733 95.741 C 359.681 94.806,360.234 94.570,361.833 94.418 C 363.224 94.285,364.450 93.835,364.991 93.260 C 365.187 93.051,365.919 92.589,366.619 92.232 C 368.118 91.467,371.127 88.623,372.330 86.833 C 372.730 86.237,373.338 85.429,373.680 85.036 C 374.133 84.516,374.444 83.878,374.827 82.685 C 375.116 81.785,375.525 80.794,375.735 80.483 C 377.455 77.932,377.524 69.855,375.847 67.323 C 375.576 66.913,375.074 65.879,374.733 65.024 C 374.392 64.170,373.907 63.266,373.656 63.015 C 373.405 62.764,372.970 62.186,372.690 61.730 C 372.000 60.609,369.898 58.753,368.714 58.218 C 368.184 57.979,367.369 57.427,366.903 56.992 C 366.056 56.201,365.814 56.095,363.285 55.413 C 362.687 55.252,362.084 54.943,361.701 54.601 C 360.663 53.672,358.850 53.167,356.558 53.167 C 355.276 53.167,354.461 52.804,353.563 51.833 L 352.946 51.167 351.650 51.167 C 350.937 51.167,349.881 51.061,349.302 50.932 C 348.723 50.803,347.462 50.649,346.500 50.591 C 343.534 50.409,342.439 50.129,341.250 49.246 C 340.654 48.804,339.945 48.568,338.549 48.350 C 336.778 48.072,336.336 47.534,336.109 45.385 L 336.018 44.521 337.134 43.314 C 339.069 41.223,339.212 41.167,342.624 41.167 C 345.843 41.167,346.043 41.217,347.264 42.333 C 347.873 42.891,349.501 43.667,350.061 43.667 C 350.457 43.667,350.960 44.409,351.246 45.417 C 352.128 48.524,352.530 48.668,360.322 48.664 C 364.599 48.662,366.156 48.605,366.933 48.422 C 367.492 48.290,369.133 48.130,370.579 48.065 C 373.859 47.919,373.934 47.875,374.204 45.954 C 374.423 44.390,374.168 42.627,373.601 41.793 C 373.127 41.094,372.620 39.776,372.150 38.024 C 371.836 36.850,371.654 36.497,370.991 35.772 C 370.559 35.299,370.036 34.553,369.830 34.113 C 369.623 33.673,369.154 33.074,368.788 32.782 C 368.421 32.489,367.813 31.924,367.436 31.525 C 367.052 31.118,366.312 30.598,365.751 30.342 C 365.056 30.025,364.533 29.626,364.041 29.037 C 363.368 28.231,363.269 28.176,362.041 27.921 C 359.949 27.486,359.506 27.306,358.665 26.551 C 357.933 25.892,357.794 25.833,356.968 25.833 C 356.473 25.833,355.396 25.689,354.576 25.513 C 353.192 25.216,340.096 24.932,336.833 25.129 M69.167 25.576 C 71.585 25.902,75.106 26.768,75.681 27.177 C 75.944 27.364,76.676 27.693,77.309 27.908 C 78.947 28.465,80.820 29.788,81.917 31.161 C 82.100 31.390,82.641 32.016,83.118 32.552 C 83.643 33.142,84.124 33.899,84.336 34.471 C 84.529 34.991,84.896 35.679,85.151 36.000 C 86.133 37.234,86.398 38.054,86.741 40.917 C 87.548 47.646,86.949 52.825,85.082 55.259 C 84.734 55.712,84.270 56.486,84.051 56.979 C 83.603 57.985,81.213 60.711,80.417 61.123 C 80.142 61.266,79.496 61.807,78.982 62.327 C 78.125 63.193,77.882 63.330,76.065 63.972 C 73.413 64.911,73.604 64.704,73.965 66.234 C 74.264 67.499,74.289 67.539,75.094 68.028 C 76.114 68.647,78.729 71.308,79.173 72.179 C 79.354 72.533,79.835 73.144,80.242 73.537 C 80.686 73.965,81.176 74.685,81.467 75.337 C 81.734 75.935,82.264 76.785,82.645 77.225 C 83.447 78.152,83.663 78.539,84.251 80.105 C 84.487 80.735,84.892 81.514,85.151 81.837 C 85.766 82.605,86.289 83.644,86.767 85.051 C 86.981 85.678,87.502 86.678,87.926 87.272 C 88.350 87.866,88.988 88.982,89.343 89.751 C 89.699 90.521,90.246 91.486,90.559 91.896 C 91.537 93.178,92.254 95.304,91.877 95.808 C 91.089 96.864,91.439 96.833,80.287 96.833 C 67.009 96.833,67.549 96.934,66.059 94.178 C 65.634 93.393,65.106 92.513,64.885 92.223 C 64.664 91.933,64.235 91.100,63.933 90.373 C 63.631 89.645,63.128 88.694,62.817 88.260 C 61.884 86.962,61.519 86.294,61.259 85.417 C 61.020 84.604,60.509 83.737,59.513 82.448 C 59.243 82.099,58.788 81.201,58.502 80.452 C 58.216 79.703,57.691 78.713,57.335 78.252 C 56.980 77.792,56.396 76.777,56.037 75.998 C 55.679 75.218,55.093 74.230,54.735 73.802 C 54.376 73.374,53.871 72.680,53.611 72.261 C 53.320 71.790,52.841 71.326,52.361 71.050 C 51.933 70.803,51.254 70.316,50.852 69.968 C 49.313 68.635,47.025 68.484,45.792 69.635 L 45.333 70.062 45.333 82.835 L 45.333 95.609 44.958 95.954 C 44.119 96.727,42.684 96.833,33.046 96.833 L 24.127 96.833 23.480 96.186 L 22.833 95.539 22.833 61.083 L 22.833 26.627 23.480 25.980 L 24.127 25.333 45.772 25.337 C 63.498 25.339,67.733 25.383,69.167 25.576 M117.043 25.666 C 117.636 25.849,118.317 26.154,118.557 26.342 L 118.993 26.685 119.045 48.968 L 119.097 71.250 119.551 73.333 C 119.886 74.871,120.124 75.577,120.461 76.027 C 121.953 78.024,122.271 78.389,122.895 78.815 C 123.273 79.073,123.860 79.375,124.198 79.485 C 124.536 79.596,125.001 79.834,125.231 80.015 C 126.556 81.057,127.368 81.246,130.767 81.304 C 134.371 81.365,134.587 81.318,135.864 80.184 C 136.293 79.803,137.193 79.240,137.864 78.933 C 139.318 78.268,139.467 78.116,140.230 76.500 C 140.555 75.813,141.120 74.725,141.486 74.083 C 142.696 71.963,142.665 72.639,142.666 48.108 L 142.667 26.467 143.240 25.893 L 143.813 25.320 153.282 25.380 C 163.427 25.444,163.939 25.484,164.738 26.284 L 165.167 26.712 165.164 48.398 C 165.160 73.257,165.224 71.986,163.770 76.333 C 163.540 77.021,163.164 78.222,162.933 79.002 C 162.650 79.961,162.296 80.714,161.842 81.322 C 161.472 81.818,161.025 82.604,160.848 83.070 C 160.168 84.864,159.808 85.492,159.171 85.997 C 158.810 86.283,158.246 86.958,157.918 87.498 C 157.507 88.174,157.071 88.633,156.510 88.978 C 156.064 89.253,155.468 89.812,155.186 90.221 C 154.830 90.739,154.332 91.152,153.546 91.582 C 152.925 91.921,152.017 92.506,151.528 92.881 C 150.941 93.331,150.035 93.774,148.861 94.187 C 147.883 94.531,146.348 95.078,145.449 95.404 C 141.485 96.839,126.441 97.537,122.000 96.491 C 121.148 96.290,119.654 96.117,118.250 96.057 L 115.917 95.956 115.358 95.406 C 114.622 94.680,113.965 94.385,112.441 94.093 C 110.962 93.810,110.648 93.664,109.735 92.831 C 109.360 92.489,108.552 91.970,107.938 91.677 C 106.602 91.039,102.534 87.098,101.690 85.625 C 101.415 85.144,100.953 84.525,100.663 84.250 C 99.996 83.616,99.813 83.260,99.026 81.052 C 98.672 80.061,98.230 78.950,98.044 78.583 C 97.370 77.260,97.013 75.697,96.834 73.291 C 96.737 71.985,96.588 70.167,96.502 69.250 C 96.415 68.322,96.343 58.533,96.339 47.162 C 96.333 24.467,96.235 26.324,97.469 25.673 C 98.433 25.163,115.397 25.158,117.043 25.666 M201.186 25.632 C 201.518 25.745,202.043 26.008,202.353 26.217 L 202.917 26.597 202.959 52.077 C 203.006 80.677,202.870 77.886,204.250 78.520 C 204.882 78.810,205.732 78.826,220.369 78.830 L 235.822 78.833 236.411 79.422 L 237.000 80.011 237.000 87.833 L 237.000 95.656 236.411 96.244 L 235.822 96.833 208.983 96.833 C 189.470 96.833,182.045 96.782,181.781 96.646 C 181.580 96.543,181.210 96.267,180.958 96.032 L 180.500 95.604 180.500 61.083 L 180.500 26.562 180.958 26.137 C 181.210 25.903,181.567 25.627,181.750 25.524 C 182.240 25.250,200.356 25.350,201.186 25.632 M300.146 25.444 C 302.018 25.552,302.049 25.561,302.604 26.116 L 303.167 26.678 303.167 33.086 L 303.167 39.495 302.684 40.035 C 302.002 40.799,301.855 40.805,283.950 40.820 C 264.585 40.837,266.667 40.233,266.667 45.833 C 266.667 51.410,264.783 50.831,282.953 50.844 C 298.946 50.855,299.520 50.879,300.105 51.559 L 300.500 52.019 300.500 58.575 L 300.500 65.132 299.911 65.649 L 299.322 66.167 284.182 66.167 C 267.916 66.167,268.368 66.144,267.156 67.008 L 266.667 67.356 266.667 73.813 L 266.667 80.271 267.173 80.645 C 268.367 81.528,267.767 81.500,285.667 81.500 C 303.541 81.500,302.959 81.474,304.178 82.341 L 304.667 82.689 304.667 89.083 L 304.667 95.477 304.163 95.836 C 302.664 96.903,304.795 96.833,273.767 96.833 L 245.693 96.833 244.971 96.283 L 244.250 95.733 244.208 61.172 C 244.161 22.508,244.039 26.341,245.333 25.657 C 245.937 25.337,294.992 25.147,300.146 25.444 M354.267 25.926 C 355.076 26.161,356.213 26.397,356.794 26.451 C 357.614 26.528,357.985 26.657,358.452 27.028 C 358.784 27.292,359.586 27.658,360.236 27.843 C 360.885 28.027,361.810 28.292,362.290 28.431 C 362.941 28.619,363.296 28.847,363.681 29.327 C 363.966 29.681,364.660 30.216,365.224 30.515 C 366.629 31.261,369.079 33.529,369.619 34.583 C 369.854 35.042,370.338 35.748,370.693 36.152 C 371.175 36.700,371.448 37.252,371.766 38.319 C 372.000 39.106,372.346 40.162,372.534 40.667 C 373.874 44.261,373.881 44.290,373.663 45.693 C 373.404 47.357,373.468 47.319,370.647 47.441 C 368.758 47.522,367.991 47.629,367.030 47.947 C 365.821 48.346,365.755 48.349,360.113 48.300 L 354.417 48.250 353.584 47.833 C 352.620 47.352,352.161 46.734,351.673 45.268 C 351.249 43.995,350.753 43.498,349.334 42.926 C 348.739 42.686,347.987 42.278,347.664 42.018 C 346.287 40.911,345.961 40.833,342.715 40.835 C 339.961 40.836,339.691 40.864,338.917 41.225 C 337.999 41.653,335.498 44.155,335.503 44.639 C 335.536 47.353,336.318 48.351,338.842 48.901 C 339.535 49.052,340.364 49.354,340.686 49.572 C 341.933 50.420,343.160 50.711,346.667 50.994 C 347.786 51.085,348.993 51.291,349.568 51.491 C 350.205 51.713,350.973 51.833,351.745 51.833 C 352.846 51.833,352.974 51.871,353.405 52.321 C 354.091 53.037,355.217 53.444,356.866 53.571 C 358.860 53.725,360.256 54.145,361.219 54.883 C 361.660 55.220,362.429 55.612,362.926 55.752 C 363.424 55.892,364.257 56.127,364.778 56.273 C 365.436 56.459,365.957 56.756,366.487 57.250 C 366.907 57.640,367.733 58.202,368.324 58.498 C 369.681 59.180,371.653 60.949,372.505 62.250 C 372.866 62.800,373.344 63.475,373.567 63.750 C 373.791 64.025,374.162 64.737,374.391 65.333 C 374.621 65.929,375.170 67.204,375.612 68.167 L 376.417 69.917 376.474 72.667 C 376.540 75.832,376.353 77.297,375.634 79.235 C 375.360 79.977,374.908 81.244,374.632 82.051 C 374.355 82.859,373.875 83.871,373.565 84.301 C 373.255 84.731,372.612 85.646,372.136 86.333 C 370.754 88.328,367.810 91.115,366.238 91.917 C 365.519 92.283,364.740 92.742,364.507 92.935 C 363.755 93.559,363.059 93.822,361.496 94.075 C 359.945 94.326,358.901 94.781,358.266 95.483 C 358.002 95.774,357.755 95.833,356.811 95.833 C 356.015 95.833,355.285 95.966,354.379 96.277 L 353.083 96.721 345.999 96.797 C 338.554 96.877,335.327 96.727,333.667 96.224 C 333.162 96.071,332.116 95.914,331.340 95.876 C 330.072 95.814,329.875 95.758,329.380 95.323 C 328.528 94.575,327.935 94.334,326.311 94.071 C 324.901 93.843,323.653 93.383,323.420 93.005 C 323.363 92.913,322.809 92.542,322.189 92.180 C 320.285 91.068,316.841 87.535,316.017 85.847 C 315.651 85.098,315.020 84.117,314.615 83.666 C 313.958 82.936,313.829 82.650,313.428 81.051 C 313.180 80.064,312.765 78.767,312.504 78.170 C 311.557 76.002,311.423 75.268,311.753 74.050 C 312.186 72.448,312.703 72.255,316.994 72.089 C 318.576 72.028,319.852 71.894,320.299 71.742 C 321.715 71.261,323.344 71.143,327.083 71.250 C 332.964 71.419,333.245 71.530,333.654 73.841 C 334.050 76.078,335.677 78.263,337.627 79.178 C 338.244 79.468,339.125 79.954,339.583 80.259 C 341.104 81.269,342.422 81.537,345.536 81.471 C 348.553 81.408,348.612 81.391,350.376 80.073 C 350.904 79.679,351.731 79.170,352.214 78.941 C 353.701 78.238,354.637 76.183,354.310 74.341 C 354.235 73.924,354.132 73.342,354.081 73.047 C 353.951 72.307,353.284 71.567,352.388 71.171 C 351.974 70.988,351.194 70.506,350.654 70.100 C 349.353 69.122,347.515 68.569,343.715 68.009 C 343.054 67.912,341.554 67.490,340.382 67.073 C 338.707 66.475,337.875 66.277,336.500 66.147 C 334.183 65.927,332.947 65.601,331.816 64.912 C 331.302 64.599,330.177 64.148,329.316 63.911 C 327.033 63.280,326.426 63.038,325.460 62.374 C 324.983 62.046,323.991 61.494,323.255 61.149 C 322.414 60.754,321.643 60.240,321.181 59.767 C 320.776 59.353,320.087 58.770,319.650 58.472 C 319.213 58.174,318.697 57.647,318.503 57.302 C 318.309 56.957,317.779 56.279,317.326 55.796 C 316.580 55.000,315.506 52.837,315.498 52.111 C 315.496 52.004,315.205 51.385,314.851 50.735 C 313.519 48.291,313.468 43.400,314.750 41.084 C 315.055 40.534,315.536 39.338,315.818 38.426 C 316.290 36.902,316.996 35.502,317.294 35.499 C 317.361 35.498,317.598 35.217,317.820 34.874 C 318.609 33.653,321.509 31.011,322.617 30.502 C 323.185 30.242,323.972 29.719,324.366 29.341 C 324.965 28.765,325.382 28.559,326.922 28.078 C 327.939 27.761,329.059 27.288,329.423 27.023 C 329.937 26.649,330.343 26.516,331.250 26.426 C 331.892 26.362,332.717 26.233,333.083 26.137 C 335.192 25.590,336.184 25.536,344.440 25.518 L 352.796 25.500 354.267 25.926 M46.583 41.021 C 46.400 41.126,46.044 41.403,45.792 41.637 L 45.333 42.062 45.333 47.083 C 45.333 53.873,44.737 53.332,52.214 53.333 C 58.058 53.333,58.123 53.324,59.279 52.279 C 59.808 51.801,60.163 51.648,61.194 51.453 C 63.176 51.079,63.713 50.533,64.174 48.427 C 64.889 45.153,64.158 43.676,60.707 41.417 L 59.943 40.917 53.430 40.873 C 48.776 40.842,46.821 40.885,46.583 41.021 M60.250 41.614 C 60.617 41.811,61.010 42.127,61.124 42.316 C 61.238 42.504,61.620 42.806,61.973 42.986 C 63.606 43.820,64.126 45.500,63.655 48.421 C 63.349 50.318,62.924 50.754,61.222 50.914 C 59.991 51.029,59.913 51.063,59.097 51.827 C 57.793 53.049,58.079 53.000,52.235 53.000 L 46.948 53.000 46.391 52.575 L 45.833 52.150 45.833 47.087 L 45.833 42.024 46.375 41.588 L 46.917 41.152 53.250 41.204 C 59.361 41.254,59.607 41.268,60.250 41.614 " stroke="none" fill="#7c849c" fill-rule="evenodd"></path></g></svg>